<?xml version="1.0" encoding="UTF-8"?>
<svg xmlns="http://www.w3.org/2000/svg" width="589.43" height="307.77" viewBox="185.29 136.11 589.43 307.77" style="background-color:#060e1f">
  <!-- Created using SVG Map Generator: dojo.amcharts.com/svg-map-generator -->
  <style>
    .land { fill: #1a2e4a; stroke: #0d1f35; stroke-width: 0.15; }
    .land-cn { fill: #c2410c; stroke: #9a3412; stroke-width: 0.2; opacity: 0.85; }
    .land-mx { fill: #0369a1; stroke: #075985; stroke-width: 0.2; opacity: 0.85; }
  </style>
  <g id="polygons">
    <path d="M772.61,303.9L772.61,303.9L772.61,303.9Z" class="land" id="TV" title="Tuvalu"/>
    <path d="M483.22,390.99L483.22,390.99L483.22,390.99Z" class="land" id="BV" title="Bouvet Island"/>
    <path d="M470.13,218.41L470.13,218.41L470.13,218.41Z" class="land" id="GI" title="Gibraltar"/>
    <path d="M555.8,309.66L555.8,309.66L555.8,309.66Z" class="land" id="GO" title="Glorioso Islands"/>
    <path d="M547.84,320.17L547.84,320.17L547.84,320.17Z" class="land" id="JU" title="Juan De Nova Island"/>
    <path d="M214.74,288.35L214.74,288.35L214.74,288.35Z" class="land" id="UM-DQ" title="Jarvis Island"/>
    <path d="M187.67,287.16L187.67,287.16L187.67,287.16Z" class="land" id="UM-FQ" title="Baker Island"/>
    <path d="M187.39,286.07L187.39,286.07L187.39,286.07Z" class="land" id="UM-HQ" title="Howland Island"/>
    <path d="M202.73,255.67L202.73,255.67L202.73,255.67Z" class="land" id="UM-JQ" title="Johnston Atoll"/>
    <path d="M197.12,233.71L197.12,233.71L197.12,233.71Z" class="land" id="UM-MQ" title="Midway Islands"/>
    <path d="M748.15,250.78L748.15,250.78L748.15,250.78Z" class="land" id="UM-WQ" title="Wake Island"/>
    <path d="M366.77,264.43L366.77,264.43L366.77,264.43Z" class="land" id="BQ" title="Bonair, Saint Eustachius and Saba"/>
    <path d="M484.41,189.75L483.16,189.77L484.41,189.75ZM484.41,189.75L485.12,186.91L488.54,186.29L486.97,190.92Z" class="land" id="NL" title="Netherlands"/>
    <path d="M528.69,330.37L525.62,329.97L520.7,324.89L519.36,321.55L522.21,321.86L525.43,318.09L527.87,317.43L531.93,319.48L531.73,325.53Z" class="land" id="ZW" title="Zimbabwe"/>
    <path d="M532.37,305.52L533.52,307.78L532.56,314.32L527.64,316.19L527.87,317.43L525.43,318.09L522.21,321.86L519.36,321.55L516.32,321.25L514.38,319.26L514.29,312.38L517.33,312.38L517.63,308.32L524.74,311.39L527.04,313.13L527.11,310.77L524.79,309.49L524.96,305.18L525.93,303.73L528.86,303.21Z" class="land" id="ZM" title="Zambia"/>
    <path d="M528.69,330.37L529.32,337.19L529.46,338.88L530.69,338.9L529.48,342.31L521.86,350.81L516.98,352.95L512.97,352.76L508.84,354.07L506.29,350.64L506.92,348.3L504.41,342.3L508.81,342.84L510.02,341.98L510.33,334.93L511.37,338.9L512.81,338.91L515.54,335.87L517.85,336.92L521.92,332.52L525.62,329.97ZM522.39,342.86L521.07,344.31L522.46,346.18L524.81,343.55Z" class="land" id="ZA" title="South Africa"/>
    <path d="M564.69,255.82L563.4,257.72L557.8,260.79L549.43,263.1L547.99,256.35L548.52,254.46L555.45,254.94L557.85,252.12L562.55,251.33Z" class="land" id="YE" title="Yemen"/>
    <path d="M196.85,313.27L196.85,313.27L196.85,313.27Z" class="land" id="WS" title="Samoa"/>
    <path d="M187.84,314.9L187.84,314.9L187.84,314.9Z" class="land" id="WF" title="Wallis and Futuna"/>
    <path d="M532.16,227.91L532.07,227.69L532.46,227.18ZM534.01,227.39L534,225.63L534.01,227.39Z" class="land" id="PS" title="Palestinian Territories"/>
    <path d="M750.25,315.87L750.25,315.87L750.25,315.87ZM750.83,318.3L750.83,318.3L750.83,318.3Z" class="land" id="VU" title="Vanuatu"/>
    <path d="M652.38,246.52L650.48,247.57L649.44,251.39L655.66,258.25L657.22,262.88L657.11,265.23L653.44,267.7L650.57,271.23L649.53,267.74L652.28,266.59L651.65,265.4L654.21,264.01L653.71,259.54L653.17,256.98L646.53,250.67L647.98,249.37L644.75,247.7L642.65,244.85L647.35,243Z" class="land" id="VN" title="Vietnam"/>
    <path d="M373.24,253.63L373.24,253.63L373.24,253.63Z" class="land" id="VI" title="US Virgin Islands"/>
    <path d="M373.96,252.35L373.96,252.35L373.96,252.35Z" class="land" id="VG" title="British Virgin Islands"/>
    <path d="M379.82,271.29L377.41,276.33L378.42,277.67L377.96,278.94L372.07,280.16L373.95,283.35L370.69,285.93L368.2,285.26L366.65,282.08L367.45,276.1L364.17,275.9L363.14,274.36L359.89,274.06L358.9,270.22L359.26,266.93L361.64,264.97L360.09,268.88L361.82,269.08L361.28,266.68L364.35,265.7L367.12,267.62L372.03,268.34L375.62,267.09L378.62,269.74L377.7,271.56Z" class="land" id="VE" title="Venezuela"/>
    <path d="M378.39,262.49L378.39,262.49L378.39,262.49Z" class="land" id="VC" title="Saint Vincent and the Grenadines"/>
    <path d="M497.1,207.48L497.1,207.48L497.1,207.48Z" class="land" id="VA" title="Vatican City"/>
    <path d="M585.08,206.81L584.26,208.1L589.08,209.59L586.08,210.63L584.92,209.14L582.61,210.73L582.56,216.48L580.58,216.14L573.63,211.35L571.98,209L569.11,208.42L566.27,205.81L562.93,208.57L561.43,201.63L565,200.57L571.05,204.46L575.3,204.04L579.38,208.91L581.84,209.83Z" class="land" id="UZ" title="Uzbekistan"/>
    <path d="M254.89,173.69L254.89,173.69L254.89,173.69ZM253.59,168.11L253.59,168.11L253.59,168.11ZM302.92,158.18L288.57,173.83L291.65,175.7L295.31,174.71L296.23,179.99L297.64,181.6L294.52,179.32L295.08,177.48L291.68,177.42L288.81,174.83L284.38,174.33L281.74,172.61L272.4,175.77L277.2,172.1L269.48,175.46L267.4,177.57L254.61,181.81L261.93,178.56L263.33,177.11L257.86,176.78L259.78,174.04L256.91,174.69L257.41,171.24L262.09,168.83L267.91,167.8L262.26,166.52L261.7,164.72L267.73,163.23L273.17,163.45L269.02,160.16L278.21,157.09L286.31,155.52L290.71,156.89ZM226.38,251.3L226.38,251.3L226.38,251.3ZM368.65,209.21L368.65,209.21L368.65,209.21ZM367.5,201.61L372.24,201.6L376.95,197L378.84,197.71L378.84,201.3L373.57,203.94L371.53,206.66L372.15,207.99L365.86,209.93L364.95,212.25L361.67,213.95L361.15,219.4L351.72,226.17L350.15,228.55L350.89,236.81L348.8,239.21L346.89,234.36L347.59,232.36L345.87,230.03L343.68,230.84L342.54,229.28L335.84,229.96L335.92,231.8L330.5,230.67L324.31,233.79L323.41,237.98L320.48,237.05L318.28,230.65L315.04,232.14L311.42,226.83L308.42,227.67L303.97,227.68L298.72,225.41L295.15,225.36L293.94,222.52L291.18,221.65L289.77,210.15L291.53,205.74L295,200.53L296.75,195.31L299.87,195.98L300.07,194.16L310.13,194.16L323.75,194.16L340.18,194.16L344.77,195.9L349.53,195.44L353.67,198.06L356.08,200.96L354.02,207.9L359.79,205.76L359.97,204.51L363.57,204.2ZM249.73,183.23L249.73,183.23L249.73,183.23ZM295.81,182.31L295.81,182.31L295.81,182.31ZM293.3,180.8L293.3,180.8L293.3,180.8ZM294.44,179.61L294.44,179.61L294.44,179.61ZM292.69,179L292.69,179L292.69,179ZM268.74,178.16L268.74,178.16L268.74,178.16ZM292.84,177.42L292.84,177.42L292.84,177.42ZM294.17,177.57L294.17,177.57L294.17,177.57Z" class="land" id="US" title="United States"/>
    <path d="M395.23,352.13L393.21,354.41L388.52,353.54L387.3,349.7L387.56,345.31L388.77,345.16L394.13,348.9Z" class="land" id="UY" title="Uruguay"/>
    <path d="M534.44,197.7L529.76,199.38L531.11,201.39L528.84,202.77L526.5,200.86L528.07,199.84L523.69,198.71L522.38,201.13L520.13,200.77L522.27,198.19L521.02,196.22L517.17,195.52L511.78,196.1L510.61,195.25L511.07,194.01L512.98,190.74L512.12,189.51L515.35,188.79L520.37,189.76L523.63,188.44L526.36,188L529.31,191.3L535.93,193.09L536.44,196.29Z" class="land" id="UA" title="Ukraine"/>
    <path d="M534.21,289.5L528.62,289.62L527.08,290.23L527.69,286.03L529.84,283.69L529.14,280.94L534.29,279.55L535.95,283.66L534.28,287.26Z" class="land" id="UG" title="Uganda"/>
    <path d="M534.21,289.5L540.35,293.39L542.91,296.53L542.21,298.79L543.25,300.7L542.9,303.69L544.68,307.54L541.39,309.35L535.6,309.67L534.65,306.14L532.37,305.52L528.86,303.21L527.21,300.2L526.76,296.07L529.06,293.83L528.68,292.16L528.62,289.62Z" class="land" id="TZ" title="Tanzania"/>
    <path d="M672.93,244.39L671.08,242.3L673.33,239.87Z" class="land" id="TW" title="Taiwan"/>
    <path d="M541.01,208.2L544.05,208.98L546.48,211.65L546.57,211.75L545.44,212.27L547.21,216.53L543.52,216.6L539,217.42L534.82,217.18L533.83,218.88L533.85,216.98L529.02,218.65L526.64,217.19L524.2,218.42L520.44,216.77L518.92,210.32L522.68,208.75L525.62,208.98L528.63,207.25L536.45,209.32ZM520.56,207.34L521.91,209.23L517.8,209.7L518.05,207.82Z" class="land" id="TR" title="Türkiye"/>
    <path d="M496.32,224.12L493.36,229.79L492.53,226.25L490.05,222.4L491.56,216.93L495.49,217.05L495.59,220.17L494.01,222.15Z" class="land" id="TN" title="Tunisia"/>
    <path d="M378.33,268.27L378.33,268.27L378.33,268.27Z" class="land" id="TT" title="Trinidad and Tobago"/>
    <path d="M195.85,328.01L195.85,328.01L195.85,328.01Z" class="land" id="TO" title="Tonga"/>
    <path d="M683.54,305.72L683.4,304.64L686.71,304.2Z" class="land" id="TL" title="Timor-Leste"/>
    <path d="M580.58,216.14L578.05,216.55L575.36,220.19L573.14,219.45L572.55,217.49L564.77,214.42L561.21,216.15L558.83,209.51L561.17,209.39L559.42,207.11L557.5,207.7L559.74,206.65L562.93,208.57L566.27,205.81L569.11,208.42L571.98,209L573.63,211.35Z" class="land" id="TM" title="Turkmenistan"/>
    <path d="M195.19,303.95L195.19,303.95L195.19,303.95Z" class="land" id="TK" title="Tokelau"/>
    <path d="M586.08,210.63L584.33,211.89L590.53,212.13L593.5,216.36L591.22,215.9L588.98,217.39L586.79,214.02L586.18,215.54L582.56,216.48L582.61,210.73L584.92,209.14Z" class="land" id="TJ" title="Tajikistan"/>
    <path d="M640.12,248.8L642.41,251.37L642.2,254.03L646.93,252.63L650.37,257.64L649.98,260.22L646.75,260.25L645.49,261.76L646.86,265.27L643.29,261.97L641.77,262.12L640.92,267.91L643.67,273.91L646.26,275.69L642.98,275.31L639.67,271.53L640.18,268.16L641.41,265.12L640.25,261.43L638.56,259.33L638.93,256.48L636.39,252.29L637.04,249.86Z" class="land" id="TH" title="Thailand"/>
    <path d="M479.84,266.63L480.99,270.34L481.03,275.74L480.31,275.98L479.4,273.57L478.25,266.39Z" class="land" id="TG" title="Togo"/>
    <path d="M515.81,266.77L508.67,272.28L503.8,273.25L501.29,269.11L503.85,268.6L503.04,265L501.35,262.65L500.58,261.45L500.3,260.16L503.51,255.32L504.13,248.83L502.43,243.67L504.01,242.81L517.17,250.37L517.41,257.48L515.99,257.63L514.68,262.17Z" class="land" id="TD" title="Chad"/>
    <path d="M362.93,246.03L362.93,246.03L362.93,246.03Z" class="land" id="TC" title="Turks and Caicos Islands"/>
    <path d="M543.52,216.6L542.22,217.73L542.29,221.08L538.84,223.76L535.99,225.78L534.3,224.98L534.3,223.64L534.22,221.35L533.83,218.88L534.82,217.18L539,217.42Z" class="land" id="SY" title="Syria"/>
    <path d="M569.77,296.53L569.77,296.53L569.77,296.53Z" class="land" id="SC" title="Seychelles"/>
    <path d="M375.96,253.11L376.14,253.11L375.96,253.11Z" class="land" id="SX" title="Sint Maarten"/>
    <path d="M529.32,337.19L529.46,338.88L529.32,337.19Z" class="land" id="SZ" title="Eswatini"/>
    <path d="M509.46,164.47L506.22,165.13L505.53,167.72L501.98,169.48L501.51,173.14L504,174.77L501.09,177.09L500.54,181L496.95,182.57L493.84,176.03L495.19,174.17L494.14,168.7L501.46,159.94L504.16,159.17L508.23,160.93ZM504.51,178.14L504.51,178.14L504.51,178.14Z" class="land" id="SE" title="Sweden"/>
    <path d="M502.68,198.8L501.07,200.74L498.46,200.65L498.66,200.51L498.53,198.77L502.01,198.12Z" class="land" id="SI" title="Slovenia"/>
    <path d="M511.07,194.01L510.61,195.25L503.4,195.99L503.03,194.89L505.62,193.2Z" class="land" id="SK" title="Slovakia"/>
    <path d="M389.26,277.38L389.47,280.75L388.41,283.16L385.33,283.89L382.8,279.64L384.27,277.01L384.66,276.17L389.45,276.52Z" class="land" id="SR" title="Suriname"/>
    <path d="M489.33,287.36L489.33,287.36L489.33,287.36Z" class="land" id="ST" title="Sao Tome and Principe"/>
    <path d="M508.23,199.54L512.19,203.05L511.96,206.69L510.8,206.81L508.88,205.71L507.06,204.38L506.59,201.86L506.28,199.87Z" class="land" id="RS" title="Serbia"/>
    <path d="M395.67,198.17L395.67,198.17L395.67,198.17Z" class="land" id="PM" title="Saint Pierre and Miquelon"/>
    <path d="M546.77,290.82L545.87,289.25L545.82,282.23L547.31,280.01L552.31,278.23L557.17,272.34L550.61,270.46L548.68,266.62L549.17,265.66L551.12,267.7L562.25,265.03L561.75,269.61L557.32,279.02L554.2,282.87L551.39,284.94Z" class="land" id="SO" title="Somalia"/>
    <path d="M496.99,203.69L496.99,203.69L496.99,203.69Z" class="land" id="SM" title="San Marino"/>
    <path d="M332.57,260.09L334.9,262.03L331.24,261.39Z" class="land" id="SV" title="El Salvador"/>
    <path d="M461.48,271.41L459.45,274.42L457.2,272.61L456.55,270.34L459.99,268.57Z" class="land" id="SL" title="Sierra Leone"/>
    <path d="M743.44,307.39L743.44,307.39L743.44,307.39ZM740.49,305.27L740.49,305.27L740.49,305.27ZM742.33,303.44L742.33,303.44L742.33,303.44ZM740.86,303.86L740.86,303.86L740.86,303.86Z" class="land" id="SB" title="Solomon Islands"/>
    <path d="M469.1,318.11L469.1,318.11L469.1,318.11Z" class="land" id="SH" title="Saint Helena"/>
    <path d="M426.15,390.3L426.15,390.3L426.15,390.3Z" class="land" id="GS" title="South Georgia and South Sandwich Islands"/>
    <path d="M649.63,285.05L649.63,285.05L649.63,285.05Z" class="land" id="SG" title="Singapore"/>
    <path d="M458.34,259.34L459.73,263.93L455.91,263.42L451.02,264.03L450.96,262.67L451.31,261.67L450.36,259.66L451.44,257.37L452.07,256.02L455.11,255.95Z" class="land" id="SN" title="Senegal"/>
    <path d="M534.27,269.55L532.59,272.43L535.43,274.89L536.38,277.12L534.29,279.55L529.14,280.94L527.2,278.85L524.76,279.3L523.45,277.85L521.7,274.94L518,271.07L519.45,267.96L521.92,269.43L525.69,269.81L527.55,267.99L529.57,268.91L531.44,266.5L530.84,264.69L532.68,264.29L532.71,266.9Z" class="land" id="SS" title="South Sudan"/>
    <path d="M537.73,245.58L539.07,251.67L541,253.23L538.5,255.04L537.96,260.39L537.4,263.32L534.54,267.52L534.27,269.55L532.71,266.9L532.68,264.29L530.84,264.69L531.44,266.5L529.57,268.91L527.55,267.99L525.69,269.81L521.92,269.43L519.45,267.96L518,271.07L515.81,266.77L514.68,262.17L515.99,257.63L517.41,257.48L517.17,250.37L518.74,249.4L518.58,245.58L527.19,245.59Z" class="land" id="SD" title="Sudan"/>
    <path d="M551.94,231.96L555.09,233.02L557.91,236.31L559.64,240.23L560.41,240.58L560.96,241.19L562.8,243.79L567.08,244.23L567.94,245.57L567.24,249.42L562.55,251.33L557.85,252.12L555.45,254.94L548.52,254.46L547.99,256.35L544.28,249.88L541.39,246.9L540.05,242.29L534.16,234L533.59,231.47L535.3,231.78L538.16,229.27L536.37,227.36L539.68,226.15L544.49,228.15L549.05,231.77Z" class="land" id="SA" title="Saudi Arabia"/>
    <path d="M464.57,234.72L464.56,235.44L464.51,237.91L459.2,237.91L459.07,242.76L457.43,243.66L457.38,246.85L451.01,246.86L450.85,247.86L451.1,245.77L454.29,240.69L457.44,234.73Z" class="land" id="EH" title="Western Sahara"/>
    <path d="M528.62,289.62L528.68,292.16L526.14,292.77L527.08,290.23Z" class="land" id="RW" title="Rwanda"/>
    <path d="M698.48,156.3L698.48,156.3L698.48,156.3ZM553.38,157.72L553.38,157.72L553.38,157.72ZM689.02,158.29L689.02,158.29L689.02,158.29ZM541.17,158.93L541.17,158.93L541.17,158.93ZM701.43,176.79L701.43,176.79L701.43,176.79ZM508,182.72L510.33,184.35L505.88,184.16ZM678.81,184.28L687.46,193.57L686.83,196.49L689.25,198.69L687.23,198.9L682.12,190.05L678.88,186.19ZM698.52,201.02L698.52,201.02L698.52,201.02ZM584.36,141.23L584.36,141.23L584.36,141.23ZM538.42,141.18L538.42,141.18L538.42,141.18ZM546.86,141.54L546.86,141.54L546.86,141.54ZM586.96,142.43L590.8,144.24L582.73,143.33ZM594.09,143.66L594.09,143.66L594.09,143.66ZM253.15,159.16L260,163.81L252.79,167L251.02,165.03L246.9,164.95L245.66,165.29L253.15,159.16ZM711.06,165.29L709.42,166.75L715.58,169.72L708.93,171.81L707.56,174.23L705.62,173.32L699.24,174.28L700,177.72L704.84,180.99L705.42,183.64L703.42,184.65L703.31,190.52L695.37,182.57L693.95,180.16L697.67,172.76L695.34,169.71L694,173.04L691.66,171.25L687.86,171.24L686.26,176.2L680.59,174.75L678.47,175.63L672.46,175.45L669.41,181.15L667.58,183.29L672.27,185.83L674.67,184.49L678.48,186.47L682.44,195.03L681.81,200.08L680.38,204.4L678.23,205.96L675.65,204.91L674.89,206.71L674.89,206.71L674.43,206.27L672.97,201.79L675.6,201.56L674.5,195.41L669.99,196.58L666.08,193.55L663.6,193.1L656.35,186.73L652.89,185.81L649.2,186.49L650.44,192.18L646.97,192.62L643.08,191.79L639.12,193.84L635.77,193.55L630.05,191.43L627.83,192.04L624.55,189.81L619.25,188.5L619.9,192.16L614.92,192.26L610.33,191.02L605.74,193.85L605.09,193.99L601.6,192.92L597.97,190.47L593.28,190.87L585.5,184.43L583.41,185.63L578.3,184.61L577.07,182.64L565.57,185.09L564.03,188.67L566.52,190.71L556.55,190.86L550.91,189.12L546.56,191.8L546.34,195.24L550.91,199.11L547.95,202.71L551.56,207.58L548.32,207.49L547.07,206.38L538.16,204.6L533.95,202.12L534.44,197.7L536.44,196.29L535.93,193.09L529.31,191.3L526.36,188L523.63,188.44L524.6,186.19L521.41,182.17L517.42,181.15L515.94,178.69L516.3,175.25L515.71,173.42L519.95,169.39L517.75,168.02L516.33,161.59L514.61,159.19L516.72,157.97L523.17,158.92L530.23,161.32L527.68,164.04L519.76,162.63L523.12,164.37L523.73,166.55L527.37,167.81L526.1,165.53L530.08,166.53L532.37,163.29L534.92,163.76L533.72,159.96L537.41,161.1L537.03,162.74L545.71,159.24L546.38,160.48L554.14,157.86L564.61,160.29L560.36,155.58L561.83,153.4L566.37,153.36L570.86,161.07L572.99,161.24L567.78,155.32L576.25,153.68L574.92,152.01L581.77,151.5L581.01,150.3L594.94,147.62L597.53,145.8L607.13,147.26L612.09,149.38L609.88,151.32L626.84,152.95L627.12,151.72L633.38,152.59L634.43,154.31L639.9,156.43L648.85,154.92L650.03,153.32L660,154.19L666.03,156.29L674.54,156.36L676.98,157.96L686.21,158.42L691.07,159.57L689.59,157.45L697.06,157.84L703.57,159.16L711.06,165.29ZM557.32,147.97L550.56,149.35L546.75,152.32L543.58,151.4L545.49,149.25L556.38,146.84ZM642.26,148.58L648.8,148.94L643.18,150.34ZM651,149.26L651,149.26L651,149.26ZM613.07,150.73L613.07,150.73L613.07,150.73ZM648.16,151.5L648.16,151.5L648.16,151.5ZM544.82,152.41L548.85,156.68L541.72,155.25Z" class="land" id="RU" title="Russia"/>
    <path d="M520.13,200.77L522.38,201.13L521.05,203.99L516.45,204.12L512.19,203.05L508.23,199.54L511.78,196.1L517.17,195.52L519.58,197.91Z" class="land" id="RO" title="Romania"/>
    <path d="M568.32,328.34L568.32,328.34L568.32,328.34Z" class="land" id="RE" title="Reunion"/>
    <path d="M560.41,240.58L559.64,240.23L560.41,240.58Z" class="land" id="QA" title="Qatar"/>
    <path d="M235.96,321.35L235.96,321.35L235.96,321.35Z" class="land" id="PF" title="French Polynesia"/>
    <path d="M384.37,326.09L385.01,329.69L388.5,330.19L389.62,333.42L391.43,333.53L391.16,336.46L389.84,339.99L385.15,339.45L386.38,336.13L380.48,332.97L377.54,330.05L378.46,325.09L382.71,324.4Z" class="land" id="PY" title="Paraguay"/>
    <path d="M466.97,216.46L465.14,216.58L463.88,213.5L465.14,207.39L468.39,207.39Z" class="land" id="PT" title="Portugal"/>
    <path d="M674.43,206.27L674.89,206.71L674.73,209.45L672.41,211.5L674.6,213.71L672.62,215.31L669.36,214.65L669.26,211.98L667.35,211.07L669.67,207.7L671.84,208.44L673.06,205.39Z" class="land" id="KP" title="North Korea"/>
    <path d="M371.15,252.39L371.15,252.39L371.15,252.39Z" class="land" id="PR" title="Puerto Rico"/>
    <path d="M505.88,184.16L510.33,184.35L511.43,185.1L512.12,189.51L512.98,190.74L511.07,194.01L505.62,193.2L499.63,190.72L498.47,185.48L504.01,183.48Z" class="land" id="PL" title="Poland"/>
    <path d="M730.09,296.65L730.09,296.65L730.09,296.65ZM734.76,300.34L734.76,300.34L734.76,300.34ZM728.42,295.78L728.67,297.8L725.73,299.55L722.4,298.16L726.7,297.93ZM709.71,304.97L710.53,292.56L716.21,294.88L718.31,298.02L721.4,299.63L720.23,301.65L723.84,307.33L720.65,306.79L718.21,302.98L715.8,302.01L712.41,305.37Z" class="land" id="PG" title="Papua New Guinea"/>
    <path d="M699.54,273.52L699.54,273.52L699.54,273.52Z" class="land" id="PW" title="Palau"/>
    <path d="M685.11,269.82L686.39,273.77L684.51,274.64L684.73,276.79L682.38,275.38L682.46,273.49L679.62,272.96L681,271L682.36,271.82ZM682.71,268.93L682.71,268.93L682.71,268.93ZM680.44,270.31L679.43,269.51L680.83,267.03ZM680.76,269.57L680.76,269.57L680.76,269.57ZM670.98,271.5L674.18,266.7L674.51,267.47ZM682.36,265.96L682.36,265.96L682.36,265.96ZM678.9,265.44L678.9,265.44L678.9,265.44ZM683.18,263.7L683.48,266.34L681.62,263.62ZM675.53,261.88L675.53,261.88L675.53,261.88ZM674.64,252.06L676.65,252.47L677.44,254.91L676.16,258.35L676.31,261.57L674.16,259.26L673.86,252.26Z" class="land" id="PH" title="Philippines"/>
    <path d="M363.19,295.66L358.43,297.35L356.77,301.99L360,306.66L362.48,305.66L362.64,308.58L364.37,308.47L366.03,311.43L365.48,321L364.18,322.6L360.53,319.47L356,316.99L351.22,309.11L349.05,304.02L345.32,298.57L344.57,295.83L346.1,294.05L345.88,295.96L348.24,297.1L350.15,293.27L353.88,290.51L354.34,287.79L357.87,291.93L361.56,291.82L362.96,292.83Z" class="land" id="PE" title="Peru"/>
    <path d="M272.93,334.2L272.93,334.2L272.93,334.2Z" class="land" id="PN" title="Pitcairn Islands"/>
    <path d="M351.34,271.08L350.34,273.81L350.09,271.61L347.98,270.42L345.5,273.83L342.24,272.2L342.92,269.33L344.82,270.85L347.82,269.29Z" class="land" id="PA" title="Panama"/>
    <path d="M598.78,219.68L595.97,221.59L593.19,221.3L593.82,224L596.3,225.85L595.68,228.24L592.38,234.14L590.03,234.02L588.92,236.36L592.12,240.97L587.65,242.02L584.42,238.72L581.7,239.47L576.79,239.43L578.93,236.63L577.88,234.06L574.35,230.5L579.63,231.39L582.77,230.54L582.77,228.47L586.94,226.51L587.13,222.75L588.92,222.46L588.31,218.64L593.06,216.76L596.24,219.08Z" class="land" id="PK" title="Pakistan"/>
    <path d="M568.53,239.86L572.33,242.42L574.59,245.15L571.99,251.29L568.4,253.54L567.85,255.08L564.69,255.82L562.55,251.33L567.24,249.42L567.94,245.57L567.08,244.23Z" class="land" id="OM" title="Oman"/>
    <path d="M739.94,366.53L741.14,367.4L733.89,371.93L728.12,376.47L724.24,375.81L729.37,371.83L735.7,368.78L740.12,365.08ZM747.1,354.42L748.42,355.02L748.12,358.36L750.16,360.26L752.33,359.69L744.35,366.4L743.25,363.16L746.67,359.91Z" class="land" id="NZ" title="New Zealand"/>
    <path d="M501.57,142.31L501.57,142.31L501.57,142.31ZM497.09,142.77L500.77,144.54L497.75,147.47L490.5,142.92ZM502.86,144.57L502.86,144.57L502.86,144.57Z" class="land" id="SJ" title="Svalbard and Jan Mayen"/>
    <path d="M753.41,288.57L753.41,288.57L753.41,288.57Z" class="land" id="NR" title="Nauru"/>
    <path d="M618.18,234.31L618.64,237.08L614.13,236.48L605.07,232.47L606.05,229.91L607.61,229.6L613.27,233.46Z" class="land" id="NP" title="Nepal"/>
    <path d="M516.72,157.97L514.61,159.19L511.28,157.75L509.69,159.89L504.16,159.17L501.46,159.94L494.14,168.7L495.19,174.17L493.84,176.03L487.95,177.81L485.32,175.7L484.92,171.39L487.99,169.87L494.1,165.52L495.13,163.25L501.16,158.46L512.24,155.88Z" class="land" id="NO" title="Norway"/>
    <path d="M203.38,324.01L203.38,324.01L203.38,324.01Z" class="land" id="NU" title="Niue"/>
    <path d="M342.8,258.99L341.33,266.77L337.91,266.5L335.61,262.84L339.77,259.45Z" class="land" id="NI" title="Nicaragua"/>
    <path d="M500.58,261.45L501.35,262.65L502.29,264.5L498.73,271.2L497.35,274.82L495.03,274.25L492.44,278.53L488.36,279.41L486.36,276.1L482.81,275.45L482.92,270.34L484.65,267.36L484.25,265.29L485.14,261.92L487.33,261.13L489.9,262.8L494.08,263.16L498.73,262.62Z" class="land" id="NG" title="Nigeria"/>
    <path d="M743.98,343.07L743.98,343.07L743.98,343.07Z" class="land" id="NF" title="Norfolk Island"/>
    <path d="M502.43,243.67L504.13,248.83L503.51,255.32L500.3,260.16L500.58,261.45L498.73,262.62L494.08,263.16L489.9,262.8L487.33,261.13L485.14,261.92L484.25,265.29L482.27,264.9L479.97,262.72L478.72,259.14L484.07,258.29L485.24,255.16L485.21,251.05L487.81,250.41L490.44,247.74L497.56,242.67L501.24,244.39Z" class="land" id="NE" title="Niger"/>
    <path d="M743.68,326.24L747.09,329.77L744.67,328.69Z" class="land" id="NC" title="New Caledonia"/>
    <path d="M516.32,321.25L519.36,321.55L512.37,322.55L512.12,329.6L510.53,329.6L510.33,334.93L510.02,341.98L508.81,342.84L504.41,342.3L502.74,339.94L501.59,333.82L501.71,330.95L497.44,320.51L508.24,320.79L513.11,321.94Z" class="land" id="NA" title="Namibia"/>
    <path d="M552.21,312.34L552.21,312.34L552.21,312.34Z" class="land" id="YT" title="Mayotte"/>
    <path d="M646.26,275.69L648.54,278.34L648.7,282L650.15,284.77L645.17,282.09L642.98,275.31ZM671.9,279.64L669.12,279.3L667.05,284.79L663.63,284.62L660.4,285.95L658.93,283.73L661.11,284.7L662.35,282.15L664.5,281.48L666.09,278.84L667.83,278.25L671.19,274.86L674.51,277.27Z" class="land" id="MY" title="Malaysia"/>
    <path d="M535.6,309.67L534.83,313.07L536.83,315.57L535.71,320.21L534.12,317.9L534.37,315.07L532.56,314.32L533.52,307.78L532.37,305.52L534.65,306.14Z" class="land" id="MW" title="Malawi"/>
    <path d="M571.47,326.7L571.47,326.7L571.47,326.7Z" class="land" id="MU" title="Mauritius"/>
    <path d="M379.13,259.94L379.13,259.94L379.13,259.94Z" class="land" id="MQ" title="Martinique"/>
    <path d="M377.31,255.65L377.31,255.65L377.31,255.65Z" class="land" id="MS" title="Montserrat"/>
    <path d="M458.34,259.34L455.11,255.95L452.07,256.02L451.44,257.37L452.25,254.11L450.85,247.86L451.01,246.86L457.38,246.85L457.43,243.66L459.07,242.76L459.2,237.91L464.51,237.91L464.56,235.44L470.65,239.83L467.82,239.83L469.38,258.03L460.93,258.17Z" class="land" id="MR" title="Mauritania"/>
    <path d="M530.69,338.9L529.46,338.88L529.32,337.19L528.69,330.37L531.73,325.53L531.93,319.48L527.87,317.43L527.64,316.19L532.56,314.32L534.37,315.07L534.12,317.9L535.71,320.21L536.83,315.57L534.83,313.07L535.6,309.67L541.39,309.35L544.68,307.54L544.95,315.81L543.18,318.95L538.82,321.44L534.41,326.54L535.52,331.45L534.64,334.48L530.34,337.28Z" class="land" id="MZ" title="Mozambique"/>
    <path d="M715.92,258.72L715.92,258.72L715.92,258.72Z" class="land" id="MP" title="Northern Mariana Islands"/>
    <path d="M646.97,192.62L647.15,196.11L651.41,196.03L654.51,198.6L650.17,199.2L647.14,202.1L644.36,201.5L645.55,204.04L642.82,206.42L634.73,207.75L631.2,206.4L623.02,205.92L620.38,202.98L613.08,201.25L610.48,196.61L605.74,193.85L610.33,191.02L614.92,192.26L619.9,192.16L619.25,188.5L624.55,189.81L627.83,192.04L630.05,191.43L635.77,193.55L639.12,193.84L643.08,191.79Z" class="land" id="MN" title="Mongolia"/>
    <path d="M507.06,204.38L508.88,205.71L508.5,206.25L507.51,207.53L506.19,206.46L506.05,206.22Z" class="land" id="ME" title="Montenegro"/>
    <path d="M641.35,246.4L640.12,248.8L637.04,249.86L636.39,252.29L638.93,256.48L638.56,259.33L640.25,261.43L641.41,265.12L640.18,268.16L639.45,262.49L636.28,255.03L633.7,257.59L631.69,256.82L631.95,254.06L630.48,250.48L627.38,247.89L627.42,245.62L627.91,241.7L629.27,241.98L629.84,236.76L632.65,233.65L635.04,234.89L635.74,238.06L634.97,241.94L636.62,241.52L638.02,245.33Z" class="land" id="MM" title="Myanmar"/>
    <path d="M500.88,219L500.88,219L500.88,219Z" class="land" id="MT" title="Malta"/>
    <path d="M485.21,251.05L485.24,255.16L484.07,258.29L478.72,259.14L477.12,258.88L472.97,262.26L471.74,262.07L469.71,265.03L469.31,267.71L465.26,268.21L463.57,263.94L460.89,264.9L459.73,263.93L458.34,259.34L460.93,258.17L469.38,258.03L467.82,239.83L470.65,239.83L480.21,247.3L481.08,248.68Z" class="land" id="ML" title="Mali"/>
    <path d="M511.96,206.69L512.98,208.54L510.1,209.47L509.35,207.52L510.8,206.81Z" class="land" id="MK" title="North Macedonia"/>
    <path d="M759.57,273.98L759.57,273.98L759.57,273.98Z" class="land" id="MH" title="Marshall Islands"/>
    <path d="M323.41,237.98L321.02,244.38L321.54,248.23L323.1,251.79L325.01,252.9L330.39,251.51L332.59,247.47L338.4,246.68L336.08,252.38L335.22,252.33L333.65,253.59L329.86,254.66L331.15,256.92L329.05,256.93L327.91,259.84L323.98,256.26L321.18,257.73L310.62,252.61L307.67,248.67L308.27,244.37L300.96,232.11L300.74,227.96L298.29,226.77L297.69,229.77L300.75,236.55L301.31,242.5L299.1,240.13L299.23,237.49L295.81,234.57L297.67,233.25L295.81,230.69L295.15,225.36L298.72,225.41L303.97,227.68L308.42,227.67L311.42,226.83L315.04,232.14L318.28,230.65L320.48,237.05Z" class="land land-mx" id="MX" title="Mexico"/>
    <path d="M599.37,279.65L599.37,279.65L599.37,279.65Z" class="land" id="MV" title="Maldives"/>
    <path d="M559.39,311.3L560.61,316.94L559.43,319.05L553.83,334.95L550.4,336.4L548.77,335.35L548.01,329.7L550.16,325.62L549.79,320.78L550.73,318.53L556.35,315.33Z" class="land" id="MG" title="Madagascar"/>
    <path d="M520.13,200.77L519.58,197.91L517.17,195.52L521.02,196.22L522.27,198.19Z" class="land" id="MD" title="Moldova"/>
    <path d="M489.47,203.97L489.38,204.01L489.47,203.97Z" class="land" id="MC" title="Monaco"/>
    <path d="M474.92,220.44L476.36,226.22L472.36,227.04L469.77,230.31L464.65,232.69L464.57,234.72L457.44,234.73L460.25,233.33L463.12,230.02L462.96,227.49L464.95,224.11L467.62,222.61L469.2,219.13Z" class="land" id="MA" title="Morocco"/>
    <path d="M376.14,253.11L375.96,253.11L376.14,253.11Z" class="land" id="MF" title="Saint Martin"/>
    <path d="M660.99,245.2L661.09,245.15L660.99,245.2Z" class="land" id="MO" title="Macau"/>
    <path d="M515.94,178.69L517.42,181.15L515.38,181.99L512.85,180.69L507.58,181.28L508.21,178.61L510.98,179.67L511.7,178.08Z" class="land" id="LV" title="Latvia"/>
    <path d="M487.18,192.08L487.55,193.31L486.74,193.15Z" class="land" id="LU" title="Luxembourg"/>
    <path d="M515.38,181.99L514.25,184.39L511.43,185.1L510.33,184.35L508,182.72L507.58,181.28L512.85,180.69Z" class="land" id="LT" title="Lithuania"/>
    <path d="M522.39,342.86L524.81,343.55L522.46,346.18L521.07,344.31Z" class="land" id="LS" title="Lesotho"/>
    <path d="M609.54,268.88L612.91,273.7L612.59,275.34L610.08,275.86Z" class="land" id="LK" title="Sri Lanka"/>
    <path d="M492.42,197.76L492.33,197.36L492.42,197.76Z" class="land" id="LI" title="Liechtenstein"/>
    <path d="M378.93,261.23L378.93,261.23L378.93,261.23Z" class="land" id="LC" title="Saint Lucia"/>
    <path d="M517.82,227.05L518.58,245.58L518.74,249.4L517.17,250.37L504.01,242.81L502.43,243.67L501.24,244.39L497.56,242.67L494.78,240.61L493.36,229.79L496.32,224.12L502.11,225.64L503.69,227.8L508.2,229.67L509.6,226.74L512.16,224.59Z" class="land" id="LY" title="Libya"/>
    <path d="M464.42,273.18L464.22,275.18L466.1,276.46L465.94,279.3L463.33,277.95L459.45,274.42L461.48,271.41Z" class="land" id="LR" title="Liberia"/>
    <path d="M534.3,223.64L533.18,224.31L534.22,221.35Z" class="land" id="LB" title="Lebanon"/>
    <path d="M642.65,244.85L644.75,247.7L647.98,249.37L646.53,250.67L653.17,256.98L653.71,259.54L651.26,261.03L649.98,260.22L650.37,257.64L646.93,252.63L642.2,254.03L642.41,251.37L640.12,248.8L641.35,246.4Z" class="land" id="LA" title="Lao People's Democratic Republic"/>
    <path d="M555.09,233.02L551.94,231.96L554.03,230.26Z" class="land" id="KW" title="Kuwait"/>
    <path d="M510.8,206.81L509.35,207.52L508.5,206.25L508.88,205.71Z" class="land" id="XK" title="Kosovo"/>
    <path d="M674.6,213.71L677.17,216.28L678.59,220.29L674.85,221.6L672.62,215.31Z" class="land" id="KR" title="South Korea"/>
    <path d="M376.61,254.69L376.61,254.69L376.61,254.69Z" class="land" id="KN" title="Saint Kitts and Nevis"/>
    <path d="M219.2,284.05L219.2,284.05L219.2,284.05Z" class="land" id="KI" title="Kiribati"/>
    <path d="M649.53,267.74L646.86,265.27L645.49,261.76L646.75,260.25L649.98,260.22L651.26,261.03L653.71,259.54L654.21,264.01L651.65,265.4L652.28,266.59Z" class="land" id="KH" title="Cambodia"/>
    <path d="M599.05,206.92L596.51,209.04L590.78,211L590.53,212.13L584.33,211.89L586.08,210.63L589.08,209.59L584.26,208.1L585.08,206.81L586.09,205.73L597.15,205.85Z" class="land" id="KG" title="Kyrgyzstan"/>
    <path d="M547.31,280.01L545.82,282.23L545.87,289.25L546.77,290.82L544.6,292.71L542.91,296.53L540.35,293.39L534.21,289.5L534.28,287.26L535.95,283.66L534.29,279.55L536.38,277.12L537.75,279.11L543.39,281L545.46,279.44Z" class="land" id="KE" title="Kenya"/>
    <path d="M605.09,193.99L603.3,195.29L602.97,198.18L600.39,197.52L600.2,200.64L597.16,201.61L599.35,205.08L599.05,206.92L597.15,205.85L586.09,205.73L585.08,206.81L581.84,209.83L579.38,208.91L575.3,204.04L571.05,204.46L565,200.57L561.43,201.63L562.93,208.57L559.74,206.65L557.5,207.7L554.1,203.14L556.15,200.87L556.08,197.95L550.91,199.11L546.34,195.24L546.56,191.8L550.91,189.12L556.55,190.86L566.52,190.71L564.03,188.67L565.57,185.09L577.07,182.64L578.3,184.61L583.41,185.63L585.5,184.43L593.28,190.87L597.97,190.47L601.6,192.92Z" class="land" id="KZ" title="Kazakhstan"/>
    <path d="M691.67,208.47L694.27,211.38L694.4,214.99L696.21,219.25L694.11,221.21L690.77,221.01L690.21,223.39L687.47,221.08L682.12,222.6L684.08,219.66L688.36,219.67L688.93,217.3L691.03,216.39L691.68,212.1L690.43,209.94ZM692.75,203.28L696.02,205.06L694.07,207.28L691.4,206.19L690.25,208.19L688.39,206.05L689.93,205.01L688.44,200.66ZM682.79,223.31L684.58,224.77L684.57,227.53L682.86,227.75L682.65,225.2L680.57,224.02ZM687.27,222.06L686.15,224.77L685.02,222.57Z" class="land" id="JP" title="Japan"/>
    <path d="M539.68,226.15L536.37,227.36L538.16,229.27L535.3,231.78L533.59,231.47L533.59,231.08L534.01,227.39L534,225.63L534.3,224.98L535.99,225.78L538.84,223.76Z" class="land" id="JO" title="Jordan"/>
    <path d="M475.43,193.72L475.43,193.72L475.43,193.72Z" class="land" id="JE" title="Jersey"/>
    <path d="M353.1,252.36L353.1,252.36L353.1,252.36Z" class="land" id="JM" title="Jamaica"/>
    <path d="M492.94,209.4L492.95,212.67L491.2,212.6L490.77,209.84ZM502.21,214.48L501.65,217.4L497.43,215.24ZM498.53,198.77L498.66,200.51L496.53,200.78L496.83,203.08L499.39,205.98L506.44,210.88L504.03,210.21L504.57,212.99L497.43,208.29L491.41,202.7L489.55,203.94L488.73,199.88L491.59,200.06L493.72,198.12ZM496.99,203.69L496.99,203.69L496.99,203.69Z" class="land" id="IT" title="Italy"/>
    <path d="M534.3,224.98L534,225.63L534.01,227.39L533.59,231.08L533.49,231.23L532.16,227.91L532.46,227.18L533.18,224.31L534.3,223.64Z" class="land" id="IL" title="Israel"/>
    <path d="M458.42,163.77L460.78,165L458.78,167L453.86,168.5L449.87,167.15L449.96,164.99Z" class="land" id="IS" title="Iceland"/>
    <path d="M547.21,216.53L549.86,220.39L549.02,222.61L552.49,225.57L554.93,230.3L554.03,230.26L551.94,231.96L549.05,231.77L544.49,228.15L539.68,226.15L538.84,223.76L542.29,221.08L542.22,217.73L543.52,216.6Z" class="land" id="IQ" title="Iraq"/>
    <path d="M548.78,213.22L549.35,213.17L551.4,211.68L553.12,214.06L557.1,217.3L561.21,216.15L564.77,214.42L572.55,217.49L573.14,219.45L572.46,222.37L573.88,227.38L575.54,228.63L574.35,230.5L577.88,234.06L578.93,236.63L576.79,239.43L569.85,238.3L567.96,235.6L563.85,236.51L559.67,233.81L557.13,229.82L554.93,230.3L552.49,225.57L549.02,222.61L549.86,220.39L547.21,216.53L545.44,212.27L546.57,211.75Z" class="land" id="IR" title="Iran"/>
    <path d="M469.61,184.83L469.02,188.28L463.55,188.87L465.19,186.63L464.32,184.5L468.27,183.03Z" class="land" id="IE" title="Ireland"/>
    <path d="M597.48,301.65L597.48,301.65L597.48,301.65Z" class="land" id="IO" title="British Indian Ocean Territory"/>
    <path d="M606.05,229.91L605.07,232.47L614.13,236.48L618.64,237.08L618.18,234.31L619.64,235.38L621.26,236.56L624.76,236.26L623.81,234.53L627.89,231.55L630.06,231.29L632.65,233.65L629.84,236.76L629.27,241.98L627.91,241.7L627.42,245.62L626.32,242.35L624.59,242.39L625.48,239.5L621.86,239.24L619.28,237.19L619.48,240.81L621.71,245.4L618.43,247.04L617.86,249.56L615.63,251.08L609.12,257.62L609.62,262.11L609.24,267.91L605.68,272.19L604.74,271.56L597.95,256.96L595.87,249.73L595.16,245.04L593.01,247.99L589.42,245.2L591.21,244.48L587.65,242.02L592.12,240.97L588.92,236.36L590.03,234.02L592.38,234.14L595.68,228.24L596.3,225.85L593.82,224L593.19,221.3L595.97,221.59L598.78,219.68L601.05,221.88L602.19,227.73Z" class="land" id="IN" title="India"/>
    <path d="M472.16,184.66L472.16,184.66L472.16,184.66Z" class="land" id="IM" title="Isle of Man"/>
    <path d="M637.12,277.62L648.83,286.67L650.75,292.14L652.98,293.51L652.42,298.41L650.4,298.84L647.15,295.5L641.72,286.92L640.71,283.96L635.52,278.51ZM675.27,305.46L675.27,305.46L675.27,305.46ZM683.54,305.72L683.4,304.64L683.54,305.72ZM669.86,304.01L669.86,304.01L669.86,304.01ZM679.94,304.01L677.02,304.62L676.43,303.3ZM672.53,303.45L672.53,303.45L672.53,303.45ZM667.97,303.13L667.97,303.13L667.97,303.13ZM686.69,302.21L686.69,302.21L686.69,302.21ZM705.86,303.36L705.86,303.36L705.86,303.36ZM694.07,302.84L694.07,302.84L694.07,302.84ZM665.47,301.13L665.47,301.13L665.47,301.13ZM699.57,299.87L699.57,299.87L699.57,299.87ZM654.95,299.04L657.02,300.53L660.44,299.93L665.78,302.14L666.46,304.31L653.58,301.72L651.77,300.52L652.83,298.86ZM700.01,298.47L700.01,298.47L700.01,298.47ZM680.15,297.63L680.15,297.63L680.15,297.63ZM687.26,293.47L687.26,293.47L687.26,293.47ZM692.04,293.05L692.04,293.05L692.04,293.05ZM656.55,293.3L656.55,293.3L656.55,293.3ZM684.21,290.84L684.21,290.84L684.21,290.84ZM701.52,290.62L701.52,290.62L701.52,290.62ZM653.04,290.77L653.04,290.77L653.04,290.77ZM689.45,290.75L689.45,290.75L689.45,290.75ZM641.7,290.98L641.7,290.98L641.7,290.98ZM701.39,288.83L701.39,288.83L701.39,288.83ZM710.53,292.56L709.71,304.97L706.89,302.05L705.49,298.01L700.88,296.07L698.43,294L697.25,295.39L696.3,293.26L698.94,291.6L696.28,291.86L694.59,289.22L696.85,288.27L699.07,289.01L700.71,293.94L705.36,290.42ZM638.94,284.8L638.94,284.8L638.94,284.8ZM684.09,285.69L683.34,286.69L676.62,286.73L677.13,290.2L680.8,289.03L678.24,291.3L680.65,295.88L678.99,296.83L676.38,293.41L676.28,298.15L674.76,297.93L675.28,295.28L673.98,292.86L675.74,287.13L677.54,285.13ZM688.78,285.97L688.78,285.97L688.78,285.97ZM671.9,279.64L672.5,283.84L674.37,285.72L672.33,286.2L672.03,289.06L670.35,290.4L669.27,294.44L667.16,295.54L665.3,293.66L662.47,294.32L659.89,293.16L659.59,290.25L658.19,288.53L658.04,284.74L658.93,283.73L660.4,285.95L663.63,284.62L667.05,284.79L669.12,279.3Z" class="land" id="ID" title="Indonesia"/>
    <path d="M510.61,195.25L511.78,196.1L508.23,199.54L506.28,199.87L502.68,198.8L502.01,198.12L503.4,195.99Z" class="land" id="HU" title="Hungary"/>
    <path d="M362.26,249.95L361.92,253.16L360.14,249.59Z" class="land" id="HT" title="Haiti"/>
    <path d="M506.28,199.87L506.59,201.86L501.77,201.28L504.73,205.51L498.46,200.65L501.07,200.74L502.68,198.8ZM504.86,205.58L506.05,206.22L506.19,206.46Z" class="land" id="HR" title="Croatia"/>
    <path d="M342.8,258.99L339.77,259.45L335.61,262.84L334.9,262.03L332.57,260.09L334.69,257.58L341.17,257.4Z" class="land" id="HN" title="Honduras"/>
    <path d="M582.71,388.62L582.71,388.62L582.71,388.62Z" class="land" id="HM" title="Heard Island and McDonald Islands"/>
    <path d="M661.73,244.6L662.12,244.54L661.73,244.6Z" class="land" id="HK" title="Hong Kong"/>
    <path d="M384.27,277.01L382.8,279.64L385.33,283.89L380.79,284.97L379.56,282.46L380.33,280.09L378.42,277.67L377.41,276.33L379.82,271.29L384.31,275.97Z" class="land" id="GY" title="Guyana"/>
    <path d="M714.86,262.3L714.86,262.3L714.86,262.3Z" class="land" id="GU" title="Guam"/>
    <path d="M393.33,279.85L391.13,283.43L388.41,283.16L389.47,280.75L389.26,277.38L391.33,277.25Z" class="land" id="GF" title="French Guiana"/>
    <path d="M333.65,253.59L333.64,257.27L334.69,257.58L332.57,260.09L331.24,261.39L327.91,259.84L329.05,256.93L331.15,256.92L329.86,254.66Z" class="land" id="GT" title="Guatemala"/>
    <path d="M447.09,156.15L447.09,156.15L447.09,156.15ZM412.93,157.71L412.93,157.71L412.93,157.71ZM446.69,138.21L451.11,140.06L465.76,140.78L456.79,142.3L454.14,147.02L455.54,150.61L451.26,154.26L451.8,156.78L448.45,155.79L443.12,156.86L449.65,157.43L445.3,159.71L437.91,160.23L431.54,164.43L426.81,164.89L419.89,174.48L416.81,172.45L413.01,172.14L410.89,168.1L409.79,162.27L414.06,159.65L415.52,156.07L410.42,155.15L412.32,153.08L409.78,148.79L400.27,148.37L396.46,147.05L396.18,144.7L404.05,143.83L404.12,142.1L414.82,139.95Z" class="land" id="GL" title="Greenland"/>
    <path d="M377.37,264.68L377.37,264.68L377.37,264.68Z" class="land" id="GD" title="Grenada"/>
    <path d="M515.27,219.61L515.27,219.61L515.27,219.61ZM517.8,209.7L512.68,210.14L513.9,213.63L513.9,217.24L511.56,216.65L508.8,211.64L510.1,209.47L512.98,208.54L518.05,207.82ZM514.1,213.07L514.1,213.07L514.1,213.07Z" class="land" id="GR" title="Greece"/>
    <path d="M494.16,285.62L494.5,283.2L497.02,283.46L497.03,285.68Z" class="land" id="GQ" title="Equatorial Guinea"/>
    <path d="M453.72,266.73L451.02,264.03L455.91,263.42L455.88,265.21Z" class="land" id="GW" title="Guinea-Bissau"/>
    <path d="M450.96,262.67L451.31,261.67L450.96,262.67Z" class="land" id="GM" title="Gambia"/>
    <path d="M378.57,256.62L378.57,256.62L378.57,256.62Z" class="land" id="GP" title="Guadeloupe"/>
    <path d="M459.73,263.93L460.89,264.9L463.57,263.94L465.26,268.21L465.52,271.45L464.42,273.18L461.48,271.41L459.99,268.57L456.55,270.34L453.72,266.73L455.88,265.21L455.91,263.42Z" class="land" id="GN" title="Guinea"/>
    <path d="M478.25,266.39L479.4,273.57L480.31,275.98L475.07,278.51L473.39,277.81L473.04,274.61L474.25,271.94L473.94,269.51L473.73,266.62Z" class="land" id="GH" title="Ghana"/>
    <path d="M474.72,193.23L474.72,193.23L474.72,193.23Z" class="land" id="GG" title="Guernsey"/>
    <path d="M548.32,207.49L546.35,208.63L544.05,208.98L541.01,208.2L540.65,206.03L538.16,204.6L547.07,206.38Z" class="land" id="GE" title="Georgia"/>
    <path d="M500.26,283.47L502.14,286.04L501.19,287.98L502.05,291.19L497.43,292.16L496.68,295.05L494.21,292.1L492.89,288.94L494.16,285.62L497.03,285.68L497.02,283.46Z" class="land" id="GA" title="Gabon"/>
    <path d="M486.74,193.15L487.55,193.31L490.17,194.2L489.51,196.76L487.29,198.94L488.73,199.88L489.55,203.94L489.47,203.97L489.38,204.01L487.52,205.25L484.42,204.27L483.19,206.47L480.92,206.33L480.51,206.15L475.68,204.62L476.67,199.16L471.49,195L476.27,194.81L481.98,190.28ZM492.58,205.76L492.58,205.76L492.58,205.76Z" class="land" id="FR" title="France"/>
    <path d="M738.61,274.6L738.61,274.6L738.61,274.6Z" class="land" id="FM" title="Federated States of Micronesia"/>
    <path d="M469.57,170.51L469.57,170.51L469.57,170.51Z" class="land" id="FO" title="Faroe Islands"/>
    <path d="M394.06,385.21L394.06,385.21L394.06,385.21ZM392.11,385.57L392.11,385.57L392.11,385.57Z" class="land" id="FK" title="Falkland Islands"/>
    <path d="M767.93,320.74L767.93,320.74L767.93,320.74ZM771.28,318.44L771.28,318.44L771.28,318.44Z" class="land" id="FJ" title="Fiji"/>
    <path d="M514.61,159.19L516.33,161.59L517.75,168.02L519.95,169.39L515.71,173.42L510.37,174.41L507.15,173.32L506.25,169.83L511.08,165.02L509.46,164.47L508.23,160.93L504.16,159.17L509.69,159.89L511.28,157.75Z" class="land" id="FI" title="Finland"/>
    <path d="M547.67,263.81L546.84,266.65L548.68,266.62L550.61,270.46L557.17,272.34L552.31,278.23L547.31,280.01L545.46,279.44L543.39,281L537.75,279.11L536.38,277.12L535.43,274.89L532.59,272.43L534.27,269.55L534.54,267.52L537.4,263.32L537.96,260.39L540.13,259.26L544.9,260.61Z" class="land" id="ET" title="Ethiopia"/>
    <path d="M516.3,175.25L515.94,178.69L511.7,178.08L510.25,175.75ZM509.19,176.76L509.19,176.76L509.19,176.76Z" class="land" id="EE" title="Estonia"/>
    <path d="M475.68,204.62L480.51,206.15L480.92,206.33L483.19,206.47L477.86,212L478.67,213.45L475.11,217.23L471.63,217.35L469.67,218.67L466.97,216.46L468.39,207.39L465.14,207.39L464.52,205.43L466.87,203.94ZM483.15,211.48L483.15,211.48L483.15,211.48ZM452.48,233.34L452.48,233.34L452.48,233.34Z" class="land" id="ES" title="Spain"/>
    <path d="M541,253.23L542.34,257.21L548.86,263.35L547.67,263.81L544.9,260.61L540.13,259.26L537.96,260.39L538.5,255.04Z" class="land" id="ER" title="Eritrea"/>
    <path d="M469.61,184.83L468.27,183.03L469.61,184.83ZM474.12,176.95L475.92,178.75L473.95,181.26L476.06,182.17L480.58,188.47L478.66,190.89L470.66,191.85L472.36,190.11L471.11,188.63L474.24,185.48L470.15,180.32L471.06,177.43Z" class="land" id="GB" title="United Kingdom"/>
    <path d="M532.07,227.69L532.16,227.91L533.49,231.23L532.43,236.66L535.45,241.62L535.72,243.76L537.73,245.58L527.19,245.59L518.58,245.58L517.82,227.05L524.09,228.63L527.31,227.18Z" class="land" id="EG" title="Egypt"/>
    <path d="M328,287.54L328,287.54L328,287.54ZM354.34,287.79L353.88,290.51L350.15,293.27L348.24,297.1L345.88,295.96L346.1,294.05L345.09,289.65L346.43,286.09L348.46,284.82Z" class="land" id="EC" title="Ecuador"/>
    <path d="M491.56,216.93L490.05,222.4L492.53,226.25L493.36,229.79L494.78,240.61L497.56,242.67L490.44,247.74L487.81,250.41L485.21,251.05L481.08,248.68L480.21,247.3L470.65,239.83L464.56,235.44L464.57,234.72L464.65,232.69L469.77,230.31L472.36,227.04L476.36,226.22L474.92,220.44L480.3,217.73L488.34,216.64Z" class="land" id="DZ" title="Algeria"/>
    <path d="M361.92,253.16L362.26,249.95L363.64,249.57L367.55,252.21Z" class="land" id="DO" title="Dominican Republic"/>
    <path d="M492,183.51L490.49,183.37L490.24,179.42L492.85,178.83ZM495.84,181.78L495.84,181.78L495.84,181.78ZM493.19,182.1L493.19,182.1L493.19,182.1Z" class="land" id="DK" title="Denmark"/>
    <path d="M378.5,258.5L378.5,258.5L378.5,258.5Z" class="land" id="DM" title="Dominica"/>
    <path d="M549.17,265.66L548.68,266.62L546.84,266.65L547.67,263.81L548.86,263.35Z" class="land" id="DJ" title="Djibouti"/>
    <path d="M492,183.51L494.41,185.09L498.47,185.48L499.63,190.72L496.3,191.65L498.45,194.58L496.92,196.62L492.31,196.89L489.51,196.76L490.17,194.2L487.55,193.31L487.18,192.08L486.97,190.92L488.54,186.29L490.9,185.29L490.49,183.37Z" class="land" id="DE" title="Germany"/>
    <path d="M499.63,190.72L505.62,193.2L503.03,194.89L498.45,194.58L496.3,191.65Z" class="land" id="CZ" title="Czechia"/>
    <path d="M531.68,219.5L531.68,219.5L531.68,219.5Z" class="land" id="CY" title="Cyprus"/>
    <path d="M346.66,250.65L346.66,250.65L346.66,250.65Z" class="land" id="KY" title="Cayman Islands"/>
    <path d="M651.65,307.6L651.65,307.6L651.65,307.6Z" class="land" id="CX" title="Christmas Island"/>
    <path d="M365.86,264.59L365.86,264.59L365.86,264.59Z" class="land" id="CW" title="Curaçao"/>
    <path d="M345.31,246.4L345.31,246.4L345.31,246.4ZM346.94,243.35L356.22,247.28L358.34,249.26L352.69,249.68L353.67,248.17L351.62,246.5L346.69,245.19Z" class="land" id="CU" title="Cuba"/>
    <path d="M341.33,266.77L342.92,269.33L342.24,272.2L341.1,270.36L337.94,268.71L337.91,266.5Z" class="land" id="CR" title="Costa Rica"/>
    <path d="M440.14,258.96L440.14,258.96L440.14,258.96Z" class="land" id="CV" title="Cape Verde"/>
    <path d="M549.5,310.28L549.5,310.28L549.5,310.28Z" class="land" id="KM" title="Comoros"/>
    <path d="M361.64,264.97L359.26,266.93L358.9,270.22L359.89,274.06L363.14,274.36L364.17,275.9L367.45,276.1L366.65,282.08L368.2,285.26L367.43,283.61L363.31,284.33L362.93,287.85L364.04,289.87L363.19,295.66L362.96,292.83L361.56,291.82L357.87,291.93L354.34,287.79L348.46,284.82L350.46,282.1L351.3,276.57L350.34,273.81L351.34,271.08L354.27,269.57L355.77,266.41L358.3,266.05L361.06,263.9Z" class="land" id="CO" title="Colombia"/>
    <path d="M220.77,328.16L220.77,328.16L220.77,328.16Z" class="land" id="CK" title="Cook Islands"/>
    <path d="M509,280.96L507.61,288.64L505.07,291.74L504.95,294.19L502.68,296.82L499.88,296.42L498.14,297.13L496.68,295.05L497.43,292.16L502.05,291.19L501.19,287.98L502.14,286.04L500.26,283.47L505.02,283.26L505.81,280.85Z" class="land" id="CG" title="Republic of Congo"/>
    <path d="M523.45,277.85L524.76,279.3L527.2,278.85L529.14,280.94L529.84,283.69L527.69,286.03L527.08,290.23L526.14,292.77L526.76,296.07L527.21,300.2L528.86,303.21L525.93,303.73L524.96,305.18L524.79,309.49L527.11,310.77L527.04,313.13L524.74,311.39L517.63,308.32L515.32,308.67L514.15,305.64L514.11,301.51L510.46,301.21L510.13,302.78L507.16,302.98L505.2,298.77L499.86,298.77L498.45,298.57L499.88,296.42L502.68,296.82L504.95,294.19L505.07,291.74L507.61,288.64L509,280.96L510.45,277.82L515.27,279.71L515.81,278.73L520.36,277.46Z" class="land" id="CD" title="Democratic Republic of Congo"/>
    <path d="M503.8,273.25L502.4,276.41L502.57,278.7L505.02,283.26L500.26,283.47L497.02,283.46L494.5,283.2L494.62,281.28L492.44,278.53L495.03,274.25L497.35,274.82L498.73,271.2L502.29,264.5L501.35,262.65L503.04,265L503.85,268.6L501.29,269.11Z" class="land" id="CM" title="Cameroon"/>
    <path d="M469.31,267.71L470.77,269.07L473.94,269.51L474.25,271.94L473.04,274.61L473.39,277.81L469.21,277.89L465.94,279.3L466.1,276.46L464.22,275.18L464.42,273.18L465.52,271.45L465.26,268.21Z" class="land" id="CI" title="Côte d'Ivoire"/>
    <path d="M657.63,249.42L655.99,252.82L654.3,250.67ZM674.43,206.27L673.06,205.39L671.84,208.44L669.67,207.7L667.35,211.07L664.13,213.24L663.73,210.05L661.77,209.37L659.1,214.55L662.08,216.57L663.55,215.21L666.7,215.99L663.21,220.61L665.21,221.93L670.01,228.47L670.73,230.43L669.21,238.69L665.49,243.76L662.12,244.54L661.73,244.6L661.09,245.15L660.99,245.2L655.32,247.65L652.38,246.52L647.35,243L642.65,244.85L641.35,246.4L638.02,245.33L636.62,241.52L634.97,241.94L635.74,238.06L635.04,234.89L632.65,233.65L630.06,231.29L627.89,231.55L623.81,234.53L620.35,233.86L619.64,235.38L618.18,234.31L613.27,233.46L607.61,229.6L606.05,229.91L602.19,227.73L601.05,221.88L598.78,219.68L596.24,219.08L593.06,216.76L593.5,216.36L590.53,212.13L590.78,211L596.51,209.04L599.05,206.92L599.35,205.08L597.16,201.61L600.2,200.64L600.39,197.52L602.97,198.18L603.3,195.29L605.09,193.99L605.74,193.85L610.48,196.61L613.08,201.25L620.38,202.98L623.02,205.92L631.2,206.4L634.73,207.75L642.82,206.42L645.55,204.04L644.36,201.5L647.14,202.1L650.17,199.2L654.51,198.6L651.41,196.03L647.15,196.11L646.97,192.62L650.44,192.18L649.2,186.49L652.89,185.81L656.35,186.73L663.6,193.1L666.08,193.55L669.99,196.58L674.5,195.41L675.6,201.56L672.97,201.79Z" class="land land-cn" id="CN" title="China"/>
    <path d="M384.66,392.26L384.66,392.26L384.66,392.26ZM380.84,391.84L380.84,391.84L380.84,391.84ZM375.35,389.25L375.35,389.25L375.35,389.25ZM380.9,387.74L382.26,391.72L378.2,391.3ZM370.32,381.3L370.32,381.3L370.32,381.3ZM369.84,380.27L369.84,380.27L369.84,380.27ZM369.93,373.15L369.93,373.15L369.93,373.15ZM368.6,372.42L368.6,372.42L368.6,372.42ZM367.97,370.44L367.97,370.44L367.97,370.44ZM370.37,331.18L370.41,333.5L368.69,335.04L369.65,339.25L367.7,343.65L367.6,347.96L369.51,351.47L368.82,357.46L369.95,361.69L369.38,365.41L372.1,373.52L372.92,379.85L371.89,382.11L375.8,386.53L380.98,387.2L377.9,387.95L378.27,389.79L373.24,387.72L369.17,378.62L367.04,376.58L369.49,374.47L368.9,368.47L366.52,366.22L366.71,362.62L365.33,359.71L366.64,350.06L365.45,345.59L365.77,335.69L365.4,328.63L364.18,322.6L365.48,321L367.57,324.68L367.33,326.65L369.27,331.18Z" class="land" id="CL" title="Chile"/>
    <path d="M492.31,196.89L492.33,197.36L492.42,197.76L493.72,198.12L491.59,200.06L488.73,199.88L487.29,198.94L489.51,196.76Z" class="land" id="CH" title="Switzerland"/>
    <path d="M636.8,310.82L636.8,310.82L636.8,310.82Z" class="land" id="CC" title="Cocos (Keeling) Islands"/>
    <path d="M351.38,153.01L351.38,153.01L351.38,153.01ZM383.14,151.87L383.14,151.87L383.14,151.87ZM371.98,156.01L376.25,152.36L380.88,151.9L380.06,154.12L384.41,153.31L393.19,156.4L395.11,158.77L392.85,159.96L400.02,163.07L396.26,165.62L393.13,163.68L390.59,164.25L393.49,166.43L390.26,171.12L384.5,169.12L381.51,166.37L377.08,165.92L383.45,164.91L386.55,162.08L380.94,156.69L379.91,157.79L369.6,157.21L368.49,155.24L370.87,152.78L373.84,153.08ZM359,151.43L361.82,151.51L360.6,154.71L357.49,155.54L354.32,153.22ZM367.39,151.1L370.43,151.54L362.55,154.4L363.92,151.81ZM335.68,151.17L339.85,152.21L327.16,155.83L325.52,154.23L330.33,151.7ZM367.95,149.78L367.95,149.78L367.95,149.78ZM358.97,148.3L358.97,148.3L358.97,148.3ZM364.82,147.64L363.03,149.65L357.95,149.05ZM351.94,148.24L354.81,148.7L343.54,150.69L339.91,149.41L343.99,147.68ZM369.32,146.98L374.79,149.05L382.22,148.58L381.24,150.62L369.55,150.14ZM345.42,146.33L345.42,146.33L345.42,146.33ZM369.05,145.71L369.05,145.71L369.05,145.71ZM352.37,145.27L352.37,145.27L352.37,145.27ZM353.92,144.5L353.92,144.5L353.92,144.5ZM369.18,144.66L369.18,144.66L369.18,144.66ZM362.12,143.58L362.12,143.58L362.12,143.58ZM377.54,141.16L382.37,143.72L373.01,144.86L370.73,142.46ZM404.22,138.84L412.21,139.49L398.58,142.97L386.87,146.63L387.49,147.48L374.29,147.6L383.19,144.05L380.12,140.21ZM388.13,199.84L388.13,199.84L388.13,199.84ZM384.4,198.86L384.4,198.86L384.4,198.86ZM367.5,201.61L374.83,197.81L377.78,195.49L382.39,193.75L384.83,194.98L382.31,196.57L383.2,199.29L387.53,201.17L380.1,204.33L382.37,200.44L378.84,201.3L378.84,197.71L376.95,197L372.24,201.6ZM388.68,193.97L388.68,193.97L388.68,193.97ZM295.46,191.12L297.57,191.72L298.22,195.38L295.07,193.37ZM399.05,189.48L396.55,192.19L400.22,193.33L401.28,196.84L391.83,196.8L397.07,189.95ZM363.78,187.27L363.78,187.27L363.78,187.27ZM291.77,184.76L291.77,184.76L291.77,184.76ZM368.94,180.93L368.94,180.93L368.94,180.93ZM373.05,170.19L373.05,170.19L373.05,170.19ZM370.27,169.27L370.27,169.27L370.27,169.27ZM368.53,165.38L371.69,166.41L367.12,168.67L364.1,168.05L367.6,164.64ZM383.06,160.33L383.06,160.33L383.06,160.33ZM357.12,158.19L357.12,158.19L357.12,158.19ZM367.5,201.61L363.57,204.2L359.97,204.51L359.79,205.76L354.02,207.9L356.08,200.96L353.67,198.06L349.53,195.44L344.77,195.9L340.18,194.16L323.75,194.16L310.13,194.16L300.07,194.16L298.14,191.42L295.29,190.18L296.67,187.06L294.55,185.49L297.64,181.6L296.23,179.99L295.31,174.71L291.65,175.7L288.57,173.83L302.92,158.18L307.07,159.41L321.03,157.23L334.71,159.78L332.72,161.15L339.35,160.89L341.23,162.49L342.31,159.86L346.8,160.8L356.16,161.58L360.66,159.97L359.05,157.89L362.4,154.6L364.99,159.45L367.98,159.53L367.35,162.19L375.6,158.11L375.23,161.74L367.8,164.11L363.38,167.19L358.51,168.33L353.11,171.79L349.53,176.26L351.34,176.52L351.15,179.6L353.62,179.22L359.64,182.68L363,182.92L361.77,186.88L363.93,190.14L366.61,188.17L366.73,183.74L371.99,181.21L372.73,177.82L371.39,176.65L374.1,174.28L374.95,170.29L380.91,170.12L384.91,173.15L383.89,175.5L385.98,177.48L391.52,173.88L394.7,182.73L399.41,186.42L399.01,188.38L391.77,191.83L382.5,191.91L373.6,198.25ZM339.8,153.52L351.06,153.21L350.35,156.4L353.17,157.57L348.63,159.54L345.7,158.97L336.11,160.05L333.22,157.46L336.47,153.15Z" class="land" id="CA" title="Canada"/>
    <path d="M515.81,266.77L518,271.07L521.7,274.94L523.45,277.85L520.36,277.46L515.81,278.73L515.27,279.71L510.45,277.82L509,280.96L505.81,280.85L505.02,283.26L502.57,278.7L502.4,276.41L503.8,273.25L508.67,272.28Z" class="land" id="CF" title="Central African Republic"/>
    <path d="M486.97,190.92L487.18,192.08L486.74,193.15L481.98,190.28L483.16,189.77L484.41,189.75Z" class="land" id="BE" title="Belgium"/>
    <path d="M519.36,321.55L520.7,324.89L525.62,329.97L521.92,332.52L517.85,336.92L515.54,335.87L512.81,338.91L511.37,338.9L510.33,334.93L510.53,329.6L512.12,329.6L512.37,322.55Z" class="land" id="BW" title="Botswana"/>
    <path d="M623.81,234.53L624.76,236.26L621.26,236.56L619.64,235.38L620.35,233.86Z" class="land" id="BT" title="Bhutan"/>
    <path d="M666.09,278.84L667.83,278.25L666.09,278.84Z" class="land" id="BN" title="Brunei"/>
    <path d="M381.13,262.64L381.13,262.64L381.13,262.64Z" class="land" id="BB" title="Barbados"/>
    <path d="M392.98,290.32L392.98,290.32L392.98,290.32ZM396.6,288.03L398.66,288.26L397.76,290.41L395.17,291L394.93,288.11ZM385.33,283.89L388.41,283.16L391.13,283.43L393.33,279.85L394.05,279.79L396.16,285.37L393.88,287.75L392.79,290.61L394.48,289.71L395.34,291.43L397.67,291.08L399.1,288.99L401.25,289.07L404.81,290.92L405.39,292.42L412.55,293.04L417.19,296.95L419.87,297.37L421.16,301.48L420.37,305.19L414.52,313.51L415.06,317.86L414.09,324.39L412.16,329.76L410.81,331.42L406.66,331.63L403.29,333.89L400.9,336.92L401.08,342.22L399.14,345.77L397.78,345.65L395.23,352.13L394.13,348.9L388.77,345.16L387.56,345.31L390.02,341.5L392.75,339.43L391.16,336.46L391.43,333.53L389.62,333.42L388.5,330.19L385.01,329.69L384.37,326.09L384.99,322.48L383.12,318.74L380.45,318.63L379.56,313.89L373,311.31L371.27,309.03L371.1,306.11L366.32,308.6L364.37,308.47L362.64,308.58L362.48,305.66L360,306.66L356.77,301.99L358.43,297.35L363.19,295.66L364.04,289.87L362.93,287.85L363.31,284.33L367.43,283.61L368.2,285.26L370.69,285.93L373.95,283.35L372.07,280.16L377.96,278.94L378.42,277.67L380.33,280.09L379.56,282.46L380.79,284.97Z" class="land" id="BR" title="Brazil"/>
    <path d="M384.37,326.09L382.71,324.4L378.46,325.09L377.54,330.05L371.9,329.29L370.37,331.18L369.27,331.18L367.33,326.65L367.57,324.68L365.48,321L366.03,311.43L364.37,308.47L366.32,308.6L371.1,306.11L371.27,309.03L373,311.31L379.56,313.89L380.45,318.63L383.12,318.74L384.99,322.48Z" class="land" id="BO" title="Bolivia"/>
    <path d="M377.03,225.82L377.03,225.82L377.03,225.82Z" class="land" id="BM" title="Bermuda"/>
    <path d="M333.64,257.27L333.65,253.59L335.22,252.33Z" class="land" id="BZ" title="Belize"/>
    <path d="M517.42,181.15L521.41,182.17L524.6,186.19L523.63,188.44L520.37,189.76L515.35,188.79L512.12,189.51L511.43,185.1L514.25,184.39L515.38,181.99Z" class="land" id="BY" title="Belarus"/>
    <path d="M376.39,253.47L376.39,253.47L376.39,253.47Z" class="land" id="BL" title="Saint Barthelemy"/>
    <path d="M353.97,240.38L353.97,240.38L353.97,240.38ZM355.16,238.09L355.16,238.09L355.16,238.09Z" class="land" id="BS" title="Bahamas"/>
    <path d="M559.1,238.13L559.1,238.13L559.1,238.13Z" class="land" id="BH" title="Bahrain"/>
    <path d="M506.59,201.86L507.06,204.38L506.05,206.22L504.86,205.58L504.73,205.51L501.77,201.28Z" class="land" id="BA" title="Bosnia and Herzegovina"/>
    <path d="M521.05,203.99L520.56,207.34L518.05,207.82L512.98,208.54L511.96,206.69L512.19,203.05L516.45,204.12Z" class="land" id="BG" title="Bulgaria"/>
    <path d="M627.42,245.62L627.38,247.89L625.83,244.61L621.71,245.4L619.48,240.81L619.28,237.19L621.86,239.24L625.48,239.5L624.59,242.39L626.32,242.35Z" class="land" id="BD" title="Bangladesh"/>
    <path d="M478.72,259.14L479.97,262.72L482.27,264.9L479.84,266.63L478.25,266.39L473.73,266.62L473.94,269.51L470.77,269.07L469.31,267.71L469.71,265.03L471.74,262.07L472.97,262.26L477.12,258.88Z" class="land" id="BF" title="Burkina Faso"/>
    <path d="M484.25,265.29L484.65,267.36L482.92,270.34L482.81,275.45L481.03,275.74L480.99,270.34L479.84,266.63L482.27,264.9Z" class="land" id="BJ" title="Benin"/>
    <path d="M528.68,292.16L529.06,293.83L526.76,296.07L526.14,292.77Z" class="land" id="BI" title="Burundi"/>
    <path d="M551.56,207.58L553.81,209.97L553.12,214.06L551.4,211.68L549.35,213.17L546.35,208.63L548.32,207.49ZM548.78,213.22L546.57,211.75L546.48,211.65Z" class="land" id="AZ" title="Azerbaijan"/>
    <path d="M503.03,194.89L503.4,195.99L502.01,198.12L498.53,198.77L493.72,198.12L492.42,197.76L492.33,197.36L492.31,196.89L496.92,196.62L498.45,194.58Z" class="land" id="AT" title="Austria"/>
    <path d="M698.01,365.59L702.77,365.9L699.99,370.09L696.67,370.82ZM691.13,355.96L691.13,355.96L691.13,355.96ZM701.59,313.92L701.59,313.92L701.59,313.92ZM692.25,309.28L692.25,309.28L692.25,309.28ZM712.67,310.39L712.92,314.96L715.22,316.09L715.57,324.01L718.71,326.33L719.16,330.45L720.79,330.71L722.66,337.21L721.81,341.57L718.47,347.71L710.53,356.14L708.59,359.38L701.19,362L699.89,360.68L697.6,361.85L693.86,360.34L692.87,351.08L688.75,354.43L688.32,349.84L684.2,347.82L675.48,349.36L670.91,352.31L664.9,352.58L661.56,354.52L657.18,353.12L659.84,348.2L659.25,338.35L660.59,336.99L659.96,334.27L661.86,329.49L666.79,327.02L673.9,325.13L682.51,315.66L685.59,313.8L689.42,316.08L691.13,312.3L695.6,309.53L700.94,311.28L699.17,315.74L705.69,321.37L707.09,320.82L709.22,316.31L709.36,313.91L711.27,308.46Z" class="land" id="AU" title="Australia"/>
    <path d="M578.75,381.23L578.75,381.23L578.75,381.23Z" class="land" id="TF" title="French Southern and Antarctic Lands"/>
    <path d="M412.11,432.99L412.11,432.99L412.11,432.99ZM300.71,432.27L300.71,432.27L300.71,432.27ZM399.67,432.1L399.67,432.1L399.67,432.1ZM427.21,430.9L429.99,432.79L418.71,433.68L422.34,429.83ZM334.18,423.46L334.18,423.46L334.18,423.46ZM326.56,422.74L326.56,422.74L326.56,422.74ZM388.85,422.45L388.85,422.45L388.85,422.45ZM368.71,422.58L368.71,422.58L368.71,422.58ZM358.89,420.6L358.89,420.6L358.89,420.6ZM387.49,418.57L387.49,418.57L387.49,418.57ZM385.13,417.12L385.13,417.12L385.13,417.12ZM390.83,416.26L394.29,418.93L394.58,421.57L389.46,419.77ZM392.09,413.46L392.09,413.46L392.09,413.46ZM290.68,437.84L317,438.67L304.66,437.23L313.66,435.66L306.67,434.06L315.3,433.72L312.79,432.23L301.02,430.66L295.91,428.55L306.97,429.47L309.86,426.2L318.02,424.89L341.68,424.53L343.82,425.33L362.23,425.64L354.94,422.27L371.93,422.07L380.18,423.62L381.37,422.21L386.17,423.56L395.52,422.46L397.11,420.88L392.7,416.65L392.45,412.87L395.48,409.66L403.45,406.62L403.45,406.62L398.36,409.42L395.56,414.54L403.51,419.42L405.93,424.57L395.18,427.96L388.82,427.78L393.1,430.01L384.15,430.85L392.39,431.62L395.43,433.59L407.7,434.52L415.32,436.84L420.03,435.36L431.23,435.45L435.67,433.7L451.38,432.62L437.36,430.85L439.18,428.94L444.7,427.4L455.48,426.17L458.58,423.29L464.43,421.38L466.22,419.2L477.26,419.71L489.68,417.85L494.36,417.9L511.82,419.01L522.19,416.98L526.55,417.57L532.38,414.52L539.91,413.99L542.8,411.77L547.43,410.79L553.54,413.48L564.74,414.14L566.38,415.08L559.01,422.21L565.42,420.14L570.28,417.15L577.54,414.78L585.9,412.87L596.18,411.87L611.98,411.01L617.95,412.53L623.97,410.7L629.66,413.29L639.62,411.63L642.97,412.75L646.39,411.35L652.13,411.24L662.4,412.92L663.53,414.92L668.5,414.95L677.41,416.79L684.61,418.85L686.18,420.15L682.57,422.37L668.82,425.68L667.16,430.4L658.99,431.45L654.29,434.35L656.72,436.73L666.04,437.84L655.4,440.38L641.57,441.79L478.36,441.79L315.15,441.79L301.33,440.38Z" class="land" id="AQ" title="Antarctica"/>
    <path d="M199.8,314.96L199.8,314.96L199.8,314.96Z" class="land" id="AS" title="American Samoa"/>
    <path d="M549.35,213.17L548.78,213.22L546.48,211.65L544.05,208.98L546.35,208.63Z" class="land" id="AM" title="Armenia"/>
    <path d="M377.54,330.05L380.48,332.97L386.38,336.13L385.15,339.45L389.84,339.99L391.16,336.46L392.75,339.43L390.02,341.5L387.56,345.31L387.3,349.7L387.88,353.94L391.1,358.09L390.19,360.45L383.6,362.04L383.92,365.79L379.77,365.77L380.37,367.84L382.77,368.67L380.81,370.98L380.96,373.58L378.8,376.08L382.23,379.06L378.99,384.63L380.98,387.2L375.8,386.53L371.89,382.11L372.92,379.85L372.1,373.52L369.38,365.41L369.95,361.69L368.82,357.46L369.51,351.47L367.6,347.96L367.7,343.65L369.65,339.25L368.69,335.04L370.41,333.5L370.37,331.18L371.9,329.29ZM382.26,391.72L380.9,387.74L386.91,391.77Z" class="land" id="AR" title="Argentina"/>
    <path d="M568.53,239.86L567.08,244.23L562.8,243.79L560.96,241.19L564.73,241.59L567.79,237.78Z" class="land" id="AE" title="United Arab Emirates"/>
    <path d="M480.92,206.33L480.51,206.15L480.92,206.33Z" class="land" id="AD" title="Andorra"/>
    <path d="M505.26,173.74L505.26,173.74L505.26,173.74Z" class="land" id="AX" title="Aland Islands"/>
    <path d="M508.5,206.25L509.35,207.52L510.1,209.47L508.8,211.64L507.51,207.53Z" class="land" id="AL" title="Albania"/>
    <path d="M376.18,252.81L376.18,252.81L376.18,252.81Z" class="land" id="AI" title="Anguilla"/>
    <path d="M498.45,298.57L498.14,297.13L499.88,296.42ZM517.63,308.32L517.33,312.38L514.29,312.38L514.38,319.26L516.32,321.25L513.11,321.94L508.24,320.79L497.44,320.51L498.86,313.22L501.04,308.67L499.69,304.84L500.33,303.54L498.59,299.2L499.86,298.77L505.2,298.77L507.16,302.98L510.13,302.78L510.46,301.21L514.11,301.51L514.15,305.64L515.32,308.67Z" class="land" id="AO" title="Angola"/>
    <path d="M593.5,216.36L593.06,216.76L588.31,218.64L588.92,222.46L587.13,222.75L586.94,226.51L582.77,228.47L582.77,230.54L579.63,231.39L574.35,230.5L575.54,228.63L573.88,227.38L572.46,222.37L573.14,219.45L575.36,220.19L578.05,216.55L580.58,216.14L582.56,216.48L586.18,215.54L586.79,214.02L588.98,217.39L591.22,215.9Z" class="land" id="AF" title="Afghanistan"/>
    <path d="M378.06,255.08L378.06,255.08L378.06,255.08Z" class="land" id="AG" title="Antigua and Barbuda"/>
    <path d="M364.04,263.84L364.04,263.84L364.04,263.84Z" class="land" id="AW" title="Aruba"/>
  </g>
</svg>