<?xml version="1.0" encoding="UTF-8" standalone="no"?>
<svg width="740.88721" height="134.42578" viewBox="0 0 740.88721 134.42578" fill="none" version="1.1" id="svg60" xmlns="http://www.w3.org/2000/svg" xmlns:svg="http://www.w3.org/2000/svg">
  <g id="g60" transform="scale(3.632)">
    <path fill-rule="evenodd" clip-rule="evenodd" d="m 176.40477,33.561105 c -0.023,-0.023 -0.034,-0.0345 -0.057,-0.0805 -0.935,0 -1.35,-0.63259 -2.123,-0.86259 -0.092,-0.0575 -0.185,-0.1265 -0.277,-0.184 -0.519,-0.1381 -1.557,-1.1157 -1.557,-1.6332 -0.035,0 -0.07,0 -0.093,-0.023 -0.138,-0.3336 -0.38,-0.4141 -0.438,-0.7591 -0.242,-0.05751 -0.242,-0.05751 -0.877,0.023 -0.369,1.2651 -1.511,1.2536 -2.411,1.9437 -0.288,0.1035 -0.681,0.138 -0.946,0.2645 0,0.0345 0,0.069 0,0.1266 -0.438,-0.023 -0.715,0.1955 -1.165,0.2185 -0.023,0.046 -0.023,0.092 -0.035,0.1265 -0.392,0.138 -0.761,0.1495 -1.13,0.2875 -0.023,0.0575 -0.023,0.092 -0.047,0.1496 -0.219,-0.0231 -0.426,-0.0231 -0.646,-0.0346 -0.023,0.023 -0.034,0.0346 -0.069,0.0576 -2.088,-0.1841 -2.157,-1.2192 -2.146,-2.7834 0.208,-0.0115 0.393,-0.0345 0.577,-0.023 1.477,0.7706 4.603,-0.3795 5.503,-1.598705 0.219,-0.1035 0.254,-0.1955 0.369,-0.23 0,-0.069 0.023,-0.1495 0.035,-0.2185 0.081,-0.0115 0.15,-0.0345 0.219,-0.046 -0.058,-0.7131 0.127,-0.9547 0.277,-1.5182 -0.104,-0.023 -0.104,-0.023 -0.127,-0.092 0.104,-0.1266 0.104,-0.1266 0.127,-0.2761 0.023,-0.023 0.069,-0.0345 0.104,-0.0345 0.15,-0.4025 0.046,-0.8626 0.161,-1.2881 -0.669,-0.0115 -1.661,0.437 -2.134,0.092 -0.023,-0.046 -0.046,-0.115 -0.058,-0.161 -0.034,0 -0.08,0 -0.08,0 0,-0.0345 0,-0.0691 0,-0.1151 -0.047,-0.023 -0.081,-0.023 -0.093,-0.023 -0.242,-0.483 -0.473,-1.1501 -0.311,-1.5987 0.104,-0.069 1.557,-0.4025 3.392,-1.0006 0.265,-0.138 0.288,-0.276 0.415,-0.529 -0.208,-0.6211 -0.058,-1.4722 -0.081,-2.0818 -0.058,0 -0.092,0 -0.138,0 -0.323,-1.2191 -0.577,-1.4147 0.057,-2.5993 0.808,-0.5406 1.327,0.069 2.077,0.5061 0.173,0.5175 0.519,1.2421 0.508,1.8632 0.184,0.391 0.173,2.4728 1.338,1.2766 0.496,0.0805 0.923,0.1841 1.43,0.3451 0.023,0.0575 0.023,0.115 0.035,0.1725 0.173,-0.0575 0.208,-0.0115 0.404,0.0805 0.011,0.4946 0.392,0.7936 0.334,1.2192 -0.38,0.4025 -0.415,0.7936 -0.992,0.8166 -0.15,0.253 -0.358,0.437 -0.669,0.46 0,0.0575 0,0.115 0,0.1725 -0.092,0.0115 -0.185,0.046 -0.265,0.0805 -0.012,0.0115 -0.012,0.0575 -0.012,0.0921 -0.796,-0.0691 -1.28,0.0345 -1.35,0.8511 0.243,0.184 0.381,0.5175 0.485,0.8511 0.035,0.023 0.069,0.023 0.115,0.0345 0.012,0.069 0.035,0.1725 0.046,0.2415 0.081,0.0115 0.15,0.023 0.22,0.046 0.288,0.4601 0.288,0.4601 0.357,0.7246 0.346,0.0575 0.623,0.069 0.623,0.4945 0.15,0.0231 0.162,0 0.289,0.1841 0.253,0.0345 0.45,0.1725 0.68,0.23 0,0.0115 0,0.0575 0,0.092 0.785,0.2875 1.615,0.7246 2.492,0.7361 0.392,0.3565 1.165,0.23 1.511,0.7361 0.127,0.0805 0.243,0.1725 0.37,0.2415 -0.023,0.115 -0.047,0.2185 -0.07,0.3336 -0.288,0.195495 -0.496,0.667005 -0.403,1.046595 -0.508,0.23001 -1.604,1.02361 -1.858,1.55271 -0.415,0.25299 -0.392,0.1265 -0.623,0.59799 -0.15,0.1036 -0.3,0.2071 -0.45,0.32211 -0.219,-0.023 -0.38,-0.11501 -0.484,0.069 -0.092,0.0345 -0.208,0.0345 -0.335,0.0345 z" fill="#ffffff" id="path1" style="fill:#00084d;fill-opacity:1"/>
    <path d="m 203.98877,22.0365 c -0.358,-0.7476 -0.612,-0.9776 -1.408,-1.2307 -0.749,-0.0115 -2.814,0.2646 -3.207,0.0575 0.093,-0.069 0.093,-0.069 0.219,-0.3565 0.577,-0.4946 0.566,-0.8741 0.577,-1.5297 -0.254,-0.6901 -0.392,-0.8166 -0.427,-0.9891 -0.057,0 -0.115,0 -0.196,0 -0.034,-0.1035 -0.057,-0.1725 -0.092,-0.2645 0.415,-0.0461 0.819,-0.0921 1.234,-0.1381 0.035,-0.0575 0.047,-0.1035 0.07,-0.138 0.138,-0.069 0.138,-0.069 0.473,-0.092 0.023,-0.0575 0.034,-0.0805 0.057,-0.115 0.831,-0.3335 1.108,-2.2888 0.312,-2.4498 -0.023,-0.0575 -0.035,-0.0805 -0.035,-0.1035 -0.231,-0.092 -0.346,-0.092 -0.404,-0.276 -0.83,-0.0461 -1.845,0.299 -2.053,-0.6211 -0.346,-0.2991 -0.438,-0.023 -0.681,-0.5061 -0.565,0.0115 -1.165,-0.138 -1.165,0.5176 -0.104,0.0115 -0.208,0.0345 -0.323,0.046 -0.058,0.3105 -0.115,0.6211 -0.161,0.9316 -0.15,0.207 -0.22,0.276 -0.243,0.5291 -0.138,0 -0.277,0.0115 -0.415,0.0115 -0.138,0.023 -0.254,0.0115 -0.392,0.0345 0,0.0345 0,0.069 0,0.1265 -0.323,0.046 -0.612,0.092 -0.831,0.276 -0.058,-0.3335 -0.023,-0.6901 -0.346,-0.8511 -0.012,-0.092 -0.035,-0.1495 -0.058,-0.2415 -0.011,0 -0.057,0 -0.092,0 -0.127,-0.4371 -0.565,-0.4371 -0.969,-0.4371 -0.035,0.138 -0.138,0.2301 -0.208,0.3336 -0.034,0.0345 -0.08,0.069 -0.127,0.115 -0.011,-0.0345 -0.034,-0.046 -0.057,-0.069 -0.139,0.2415 -0.139,0.2415 -0.393,1.0466 -0.046,0 -0.103,0 -0.138,0 -0.115,0.4256 -0.069,0.5291 0.046,1.0006 -0.057,0.3911 -0.127,0.7706 -0.207,1.1732 0,0.2415 -0.07,0.299 -0.15,1.0581 -0.047,0.253 -0.093,0.5176 -0.139,0.7706 -0.058,0 -0.092,0 -0.138,0 -0.046,0.391 0.034,0.6671 0.08,1.1041 0.035,0 0.058,0 0.093,0 0.138,0.4026 0.115,0.7246 0.6,0.9546 -0.023,0.0345 -0.047,0.069 -0.058,0.1266 -0.588,0.115 -1.108,0.2875 -1.673,0.322 0.289,-0.5291 0.289,-0.5291 0.323,-0.7016 -0.034,0 -0.081,0 -0.127,0 0.646,-0.9086 0.566,-1.5872 0.635,-2.6453 -0.035,-0.0115 -0.093,-0.0115 -0.139,-0.0345 -0.023,-0.8856 -0.184,-1.4032 -0.553,-2.1853 -0.081,0 -0.139,-0.023 -0.22,-0.023 -0.034,-0.5406 -0.138,-0.7476 -0.507,-1.1501 -0.058,0 -0.139,0 -0.196,0 0,-0.0345 0,-0.069 0,-0.1035 -1.869,0.0575 -0.439,1.2651 -1.073,1.8172 -0.173,0.7591 -0.058,1.5067 -0.289,2.3463 -0.357,0.299 -0.15,1.7367 -0.092,2.2197 0.15,0.1956 0.831,0.7936 0.865,1.0122 -1.349,0.483 -1.349,0.483 -1.73,0.5635 -0.035,-0.322 -0.081,-0.414 0.104,-0.6555 -0.081,-0.4141 -0.15,-0.8166 -0.22,-1.2307 -0.103,-0.023 -0.173,-0.0575 -0.253,-0.069 -0.07,-0.1725 -0.139,-0.345 -0.22,-0.5176 -0.842,-0.115 -0.957,0.069 -1.292,0.6901 -0.357,1.0351 -0.646,2.1278 -1.049,3.2089 -0.727,0.8166 -0.496,1.4952 -0.266,2.4498 0.035,0 0.093,0 0.139,0 0.046,0.092 0.069,0.1725 0.115,0.2645 0.162,0 0.312,0.023 0.496,0.046 0.058,0.2301 0.196,0.1956 0.242,0.4141 0.877,0.3105 1.339,-0.1725 1.535,-0.8626 0.104,0 0.184,0 0.277,0 0.138,-0.3106 0.496,-0.5176 0.542,-0.7016 0.057,-0.0115 0.092,-0.0345 0.161,-0.023 0.566,-0.8511 2.631,-1.5412 3.738,-1.6332 0.392,-0.1035 0.773,-0.1955 1.165,-0.276 0.623,-0.1611 1.258,-0.2991 1.927,-0.3911 0.3,-0.115 0.634,-0.23 0.992,-0.3335 1.477,-0.3911 3.346,-0.5521 4.742,-0.6671 -0.139,0.1265 -0.254,0.299 -0.45,0.3565 -0.22,0.5176 -1.073,0.5751 -1.154,1.1617 0.092,0 0.173,0 0.265,0.0115 0.023,0.1265 0.023,0.2415 0.035,0.368 0.173,0.069 0.277,0.0345 0.335,0.2416 0.311,0.1495 1.43,0.092 1.568,-0.2876 0.254,-0.0345 0.531,-0.207 0.727,-0.23 0,-0.046 0,-0.1265 0,-0.1725 0.116,-0.0345 0.219,-0.069 0.358,-0.092 0,-0.0575 0.023,-0.0921 0.046,-0.1381 0.115,-0.023 0.231,-0.0345 0.346,-0.046 0,-0.0345 0,-0.092 0,-0.115 0.116,-0.0345 0.219,-0.069 0.335,-0.115 0,-0.0345 0,-0.069 0,-0.1035 0.196,-0.069 0.196,-0.184 0.415,-0.23 0,-0.046 0,-0.092 0,-0.1265 0.508,-0.2071 0.415,-1.0582 0.427,-1.4377 z m -7.026,-2.1048 c -0.034,0 -0.081,0 -0.138,0 -0.219,0.2876 -0.219,0.2876 -0.658,0.6441 -0.058,0.023 -0.104,0.0575 -0.161,0.069 -0.439,0.1495 -0.912,0.276 -0.889,0.7476 -0.069,0.023 -0.127,0.0115 -0.184,0.0345 0.057,-1.2306 0.057,-1.2306 -0.012,-1.5757 0.127,-0.5751 0.231,-1.0696 0.219,-1.5987 0.22,0 0.439,0 0.669,0.0115 0.081,0.161 0.15,0.2876 0.231,0.4486 0,0.0115 0,0.023 0.012,0.023 0.38,0.115 0.577,0.7591 1.05,0.9891 -0.035,0.069 -0.093,0.138 -0.139,0.207 z" fill="#ffffff" id="path2" style="fill:#00084d;fill-opacity:1"/>
    <path d="m 198.19777,27.2351 c -0.808,0.0805 -0.866,0.1265 -2.285,0.322 0.012,-0.138 0.012,-0.138 0.277,-0.4255 0.785,-1.2077 0.808,-2.5418 -0.231,-2.8179 -0.392,-0.092 -0.922,-0.046 -1.592,0.184 -0.473,0.2416 -0.911,0.5061 -1.326,0.7821 -0.854,0.5636 -1.696,1.1502 -2.642,1.5527 -0.312,0.2186 -0.369,0.3911 -0.473,0.4256 -0.046,0.2415 -0.035,0.8626 0.334,0.9546 0,0.0345 0,0.069 0,0.1035 0.058,0 0.093,0.0115 0.139,0.0115 0.023,0.0345 0.023,0.069 0.035,0.1035 0.138,0.0115 0.138,0.0115 0.715,-0.0805 0.3,-0.414 1.119,-0.9891 1.869,-1.3687 0.334,-0.184 0.669,-0.322 0.923,-0.3795 -0.185,0.345 -0.231,0.5981 -0.254,1.0006 0.369,0.3566 -0.035,0.6901 -0.704,1.0236 -1.05,0.5061 -2.746,0.9317 -3.242,1.1502 -0.138,0 -0.542,0.161 -0.669,0.161 -0.184,0 -0.357,0 -0.53,-0.0115 -0.058,0.069 -0.104,0.137995 -0.139,0.206995 -0.704,0.3566 -0.727,0.42561 -1.061,0.5406 -0.739,0.11501 -2.135,0.21851 -2.527,0.83961 -0.046,0 -0.081,0 -0.138,0 -0.323,0.8741 -0.15,1.2076 0.542,1.7942 0,0.0115 0,0.0575 0,0.0805 0.369,0.023 0.646,0.0805 1.084,0.069 0,-0.0345 0,-0.0805 0,-0.1265 0.693,-0.3335 0.693,-0.3335 1.869,-1.0236 0.531,-0.184 1.062,-0.4601 1.604,-0.5061 0.404,-0.115 0.554,-0.3335 0.981,-0.368 0,-0.0345 0,-0.069 0,-0.1035 0.184,-0.046 0.369,-0.0805 0.553,-0.115 0.427,-0.2416 1.039,-0.3911 1.638,-0.5291 0.612,-0.161 1.2,-0.322 1.523,-0.5981 1.269,0.4141 0.012,1.7482 -0.311,2.4153 -0.3,0.1495 -0.3,0.1495 -0.358,0.2415 -0.161,0.0115 -0.507,0.0806 -0.888,0.1726 -0.773,0.1725 -1.708,0.4715 -1.765,0.6095 -0.231,0.0575 -0.462,0.1266 -0.669,0.2071 -0.023,0.023 -0.023,0.0575 -0.035,0.069 -0.219,0.0345 -0.438,0.069 -0.646,0.115 0,0.0575 -0.023,0.115 -0.023,0.207 0.496,0.2645 0.496,0.2645 1.096,0.4831 0,0.069 0,0.161 -0.012,0.23 0.162,0.0575 0.231,0.161 0.623,0.4601 0.45,0.115 0.9,0.12649 1.396,0.138 0.173,0 0.358,0 0.531,0.0115 0.934,-0.161 1.384,-0.70159 2.18,-1.0582 0,-0.0345 0.023,-0.0805 0.023,-0.11499 0.081,-0.023 0.139,-0.0575 0.197,-0.069 1.776,-0.6901 1.603,-2.3118 1.315,-3.899 -0.081,-0.0575 -0.093,-0.20699 -0.208,-0.379495 0.415,-0.7936 2.227,-0.4831 3.057,-0.322 1.05,-0.0575 1.362,-0.5176 1.408,-1.3457 -0.727,-1.5067 -1.5,-1.7827 -3.184,-1.0236 z" fill="#ffffff" id="path3" style="fill:#00084d;fill-opacity:1"/>
    <path fill-rule="evenodd" clip-rule="evenodd" d="m 160.34577,15.8144 c 0,-0.0345 0,-0.0805 0,-0.1265 -0.484,-0.0805 -1.315,-0.2185 -1.707,-0.0345 -0.023,0.069 -0.035,0.161 -0.058,0.23 -0.092,0 -0.15,0.046 -0.207,0.092 -0.243,0.2876 -0.139,1.1042 -0.023,1.3917 0,0.023 0.011,0.0345 0.011,0.0345 0.45,0.184 0.381,0.7246 0.75,0.8396 0.046,0.1495 0.035,0.1265 0.231,0.2415 0,0.0345 0,0.092 0,0.1265 0.046,0.023 0.092,0.0345 0.138,0.0806 0.404,-0.0115 1.535,0.115 1.696,-0.4141 0.058,0 0.127,0 0.185,0 0.288,-1.2191 0.265,-2.0587 -1.016,-2.4613 z m -2.607,5.8657 c -0.023,-0.0345 -0.034,-0.092 -0.046,-0.1265 -0.092,-0.023 -0.173,-0.0575 -0.265,-0.0805 -0.023,-0.0345 -0.035,-0.092 -0.035,-0.1265 -0.254,-0.115 -0.831,-0.3451 -0.9,-0.5751 -0.403,-0.023 -0.83,-0.023 -1.257,-0.0575 -0.427,0.1955 -0.427,0.1955 -3.842,1.1041 0.15,-0.7361 0.3,-1.2191 0.6,-1.8747 0.369,-0.092 0.369,-0.092 0.635,-0.2185 1.084,0.0115 2.157,0.1955 3.241,0.115 0.45,-0.115 0.716,-0.253 1.027,-0.276 0.023,-0.046 0.023,-0.0921 0.035,-0.1266 0.311,-0.092 0.496,-0.161 0.784,-0.3565 0,-0.0575 0,-0.1265 0,-0.184 0.335,-0.1035 0.219,-0.5061 0.139,-0.7476 -0.047,0 -0.093,0 -0.116,0 -0.092,-0.3566 -0.369,-0.4716 -0.634,-0.6556 -0.981,-0.5866 -2.388,-0.483 -3.357,0.0575 -0.427,0.0345 -0.854,0.0575 -1.269,0.092 -0.243,-0.575 -0.243,-0.9546 -0.543,-1.5182 -0.046,0 -0.103,0 -0.138,0 0,-0.0345 0,-0.092 0,-0.1265 -0.035,0 -0.069,0 -0.104,0 0,-0.0345 0,-0.069 0,-0.1265 -1.13,-0.092 -1.119,0.3681 -1.13,1.4147 -0.093,0.2415 -0.197,0.4715 -0.289,0.7131 -0.184,0.069 -0.208,0.0345 -0.265,0.23 -0.392,0.0345 -0.819,0.299 -1.142,0.4486 -0.173,0.0345 -0.335,0.069 -0.496,0.1035 -0.796,0.1725 -1.5,0.2875 -2.377,0.5175 -0.727,0.5061 -0.565,0.7591 -0.565,1.6447 0.415,0.4141 0.784,0.2301 1.326,0.1726 0,-0.0806 0.012,-0.1496 0.047,-0.2416 0.057,0.0115 0.08,0.0345 0.138,0.0575 0,-0.0345 0,-0.092 0,-0.1265 0.058,0 0.058,0 0.046,0.1265 0.462,-0.138 0.889,-0.3105 1.338,-0.4255 0.427,-0.1265 0.889,-0.2186 1.373,-0.2646 0.093,0.2416 0.069,1.2077 -0.08,1.3457 0.023,0.4486 0.034,1.2077 -0.416,1.4837 -0.011,0.0345 -0.034,0.092 -0.057,0.1265 -0.035,0.0115 -0.093,0.0345 -0.15,0.046 -0.139,0.2415 -0.508,0.5291 -0.716,0.7591 0,-0.0805 -0.011,-0.1495 -0.011,-0.207 0,-0.023 0,-0.0345 0,-0.0575 0.057,0 0.127,0 0.184,0 0.046,-0.3106 0.046,-0.3106 0.15,-0.5751 0.012,-0.6786 0.012,-0.6786 -0.069,-1.4377 -0.035,0 -0.081,0 -0.127,0 -0.011,-0.092 -0.034,-0.1265 -0.104,-0.207 -0.034,-0.0575 -0.103,-0.115 -0.184,-0.207 -1.488,-0.6326 -1.742,1.7597 -1.904,2.7028 -0.311,0.9661 -0.646,1.8287 -0.761,2.8639 -0.046,0 -0.092,0 -0.139,0 -0.103,0.644 -0.184,1.3341 -0.265,2.0012 -0.058,0 -0.092,0 -0.127,0 0.127,1.610205 -0.507,3.139895 0.277,4.773095 0.162,0.0805 1.119,0.069 1.407,0.0805 0.37,-0.58659 0.716,-2.70279 0.946,-2.8409 0.185,0.0575 0.381,0.0806 0.612,0.0806 0.311,-0.0115 0.646,-0.0691 0.946,-0.1496 0.127,0.98921 0.381,1.84031 1.65,1.86331 0.623,-0.50611 0.68,-0.5751 0.819,-1.3342 0.173,-2.633805 0.427,-1.966705 2.953,-2.162305 0.219,-0.1035 0.45,-0.1955 0.669,-0.2875 0,-0.0345 0.023,-0.069 0.023,-0.1265 0.335,-0.069 0.358,-0.1955 0.346,-0.5061 -0.265,-0.1495 -0.219,-0.3565 -0.253,-0.6096 -0.566,-0.23 -0.693,-0.3565 -0.935,-0.4715 -0.888,-0.0115 -1.857,0.414 -2.676,0.6096 -0.012,-0.0345 -0.058,-0.0575 -0.07,-0.092 0.07,-0.4026 0.012,-0.4946 0.047,-0.7706 0.38,-0.1611 0.38,-0.1611 0.819,-0.2071 0.726,-0.4255 3.172,-0.7361 3.276,-1.6677 -0.265,-0.115 -0.288,-0.2645 -0.335,-0.4715 -0.161,-0.115 -0.346,-0.2071 -0.519,-0.2991 -0.115,-0.4945 -0.415,-0.414 -0.796,-0.414 -1.05,0.3565 -1.996,0.7476 -3.034,0.8626 -0.034,-0.3911 -0.011,-0.6096 0.069,-0.9316 0.035,-0.023 0.093,-0.0345 0.15,-0.0575 0,-0.046 0.023,-0.092 0.047,-0.1265 1.269,-0.5866 2.768,-1.3802 4.233,-1.3572 0.808,0.5061 0.773,1.4492 0.866,2.3693 -0.035,2.5533 0.057,5.693205 -1.35,7.993495 -1.523,0.25301 -2.642,0.57501 -4.084,0.25301 0.127,0.7361 0.911,0.529 1.373,0.9776 1.015,0.4026 2.007,0.6786 3.057,1.0236 0.277,-0.0115 0.45,-0.046 0.704,-0.161 0.15,-0.1955 0.15,-0.1955 1.719,-3.5654 0.08,-0.3451 0.173,-0.7016 0.253,-1.0467 0.024,-1.265105 -0.15,-2.323205 0.07,-3.484905 0.046,-0.1495 0.08,-0.3105 0.127,-0.4715 0,-0.3681 0.161,-2.2428 -0.07,-3.4735 -0.08,-0.4945 -0.242,-0.9086 -0.519,-1.0006 z m -9.333,7.2459 c 0,0.0345 0,0.069 0,0.1035 -0.058,0.023 -0.127,0.0115 -0.184,0.0345 -0.07,0.023 -0.127,0.023 -0.185,0.0345 -0.023,0.0345 -0.046,0.0805 -0.058,0.1035 -0.207,-0.023 -0.207,-0.023 -0.519,0.069 -0.231,-0.299 -0.254,-1.8517 0.231,-1.8402 0.208,0.2531 0.369,0.4026 0.554,0.5061 0.219,0.115 0.473,0.161 0.888,0.2185 0.127,0.5636 -0.185,0.6556 -0.727,0.7706 z m -4.211,-4.267 c -0.646,0.1265 -0.53,0.6901 -1.026,0.7361 -0.012,0.0805 -0.047,0.161 -0.058,0.2415 -0.035,0 -0.104,0 -0.127,0 0,0.0345 -0.035,0.092 -0.035,0.1265 -0.034,-0.0115 -0.046,-0.0345 -0.069,-0.0575 -0.023,0.0345 -0.023,0.069 -0.046,0.1265 -0.046,0 -0.104,0 -0.173,0 -0.058,0.207 -0.381,0.5636 -0.554,0.6211 0,0.0805 0,0.1495 0,0.2415 -0.127,0.0115 -0.265,0.0115 -0.369,0.0345 0.012,0.046 0.035,0.115 0.046,0.1496 -0.092,0 -0.184,0 -0.254,0 -0.103,0.368 -0.403,0.276 -0.449,0.621 -0.035,0 -0.081,0 -0.139,0 0,0.092 0,0.161 0,0.2531 -0.092,0.023 -0.185,0.115 -0.369,0.184 -0.035,0.0115 -0.069,0.0345 -0.127,0.0575 -0.023,0.115 -0.035,0.2185 -0.069,0.3105 -0.046,0 -0.081,0 -0.127,0 -0.023,0.115 -0.046,0.2186 -0.069,0.3106 -0.093,0 -0.185,0 -0.254,0 -0.219,0.552 -0.785,0.6555 -1.015,1.2536 -0.058,0 -0.093,0 -0.127,0 -0.035,0.0575 -0.069,0.115005 -0.093,0.184005 0,-0.276005 0.024,-0.552005 0.035,-0.828105 -0.058,0 -0.115,0 -0.185,0 -0.069,0.4256 -0.276,0.885595 -0.646,1.092705 -0.046,1.1271 -0.507,1.8747 0.531,2.6108 0.392,-0.069 0.911,-0.1725 1.315,-0.29901 0.116,-0.2646 0.45,-0.37959 0.716,-0.54059 0.046,-0.0575 0.057,-0.092 0.057,-0.1265 0.081,-0.1725 0.15,-0.2186 0.381,-0.2531 0.415,-0.7821 0.496,-1.0811 1.361,-1.2881 0,-0.1035 0.023,-0.2185 0.023,-0.33361 0.058,-0.0115 0.093,-0.046 0.139,-0.046 0,-0.0575 0,-0.126505 0,-0.184005 -0.127,0 -0.127,0 -0.127,-0.0575 0.092,0 0.173,0 0.265,0 0,-0.0805 0,-0.1265 0,-0.207 0.035,0 0.081,0 0.127,0 0.023,-0.3106 -0.092,-0.6671 0.254,-0.7246 0.138,-0.7706 0.531,-1.4147 0.634,-2.1508 0.058,-0.046 0.104,-0.0575 0.162,-0.092 0,-0.1495 0,-0.3105 0.011,-0.4715 0.347,-0.2876 0.439,-0.8971 0.554,-1.3342 -0.034,0 -0.081,0 -0.115,0 0.011,-0.0805 0.011,-0.115 0.011,-0.161 z m -4.176,-3.554 c 0.208,0.0921 0.427,0.2531 0.635,0.3796 0.288,0.1725 0.576,0.322 0.819,0.2875 0.438,-0.069 0.957,-0.046 1.153,-0.115 0.15,-0.207 0.162,-0.4025 0.404,-0.4715 -0.011,-0.2761 0.127,-0.7131 -0.127,-0.7936 0.254,-0.6556 0,-0.9547 -0.588,-1.1157 -0.277,-0.483 -1.015,-0.5635 -1.604,-0.4255 -0.253,0.069 -0.484,0.1955 -0.623,0.345 -0.103,0.0115 -0.173,0.0115 -0.265,0.0345 -0.046,0.4946 -0.277,0.8281 0.185,1.1847 0,0.207 -0.012,0.4485 0.011,0.69 z m 0.577,4.4511 c 0.012,0 0.012,0 0.035,0 1.372,-0.161 1.915,-1.0236 1.396,-2.4843 -0.208,-0.046 -0.208,-0.115 -0.289,-0.2185 -0.334,-0.2071 -0.727,-0.3911 -1.096,-0.5176 -0.865,-0.253 -1.627,-0.0805 -1.603,1.2191 0.046,0.0115 0.092,0.0346 0.138,0.0576 -0.173,1.2651 0.265,1.7137 1.419,1.9437 z" fill="#ffffff" id="path4" style="fill:#00084d;fill-opacity:1"/>
    <path fill-rule="evenodd" clip-rule="evenodd" d="m 134.76977,22.5657 c -0.231,-0.414 -0.692,-1.4492 -1.05,-1.5642 -0.184,-0.184 -0.404,-0.2875 -0.496,-0.4255 -0.161,0 -0.346,-0.0575 -0.438,-0.161 -0.185,0 -0.254,-0.0575 -2.365,-0.4716 -0.877,0.023 -1.662,0.0345 -2.515,0.2415 0,-0.0575 -0.012,-0.115 -0.012,-0.1725 0.219,-0.161 0.508,-0.46 0.681,-0.6901 0.496,-0.1955 0.507,-0.6786 0.727,-1.0466 0.046,0 0.057,0.023 0.103,0.023 0.07,-0.3335 0.093,-0.5176 0.058,-0.8166 -0.023,0 -0.046,0 -0.092,0 -0.081,-0.276 -0.069,-0.3105 0,-0.5751 -0.738,-0.4715 -0.646,-0.6555 -1.477,-0.483 -0.3,0.276 -0.865,0.9086 -0.957,1.2766 -0.058,0 -0.093,0.023 -0.15,0.023 -0.266,0.4946 -1.027,0.9086 -1.2,1.3112 -0.035,0.0115 -0.081,0.0115 -0.127,0.0115 0,0.0345 -1.5,1.4952 -1.58,1.5067 -0.381,0.529 -0.554,0.4945 -0.993,0.8741 -0.069,0.1495 -0.161,0.368 -0.242,0.6211 -0.138,0.506 -0.242,1.1041 -0.023,1.4606 0.058,0.069 0.127,0.1496 0.219,0.1841 0.127,0.1725 0.254,0.322 0.381,0.4715 -0.139,0.3681 -0.219,0.4601 -0.612,1.3687 h -0.011 c -0.012,0 -0.058,0 -0.081,0 0,0.3565 -0.115,0.7591 0.058,1.0466 0.058,0.069 0.104,0.1495 0.196,0.207 0.058,1.0467 1.754,0.2991 2.296,-0.023 0,-0.1265 0,-0.1265 0.196,-0.391 0.519,-0.2645 0.807,-0.9431 0.911,-1.4837 0.335,-0.322 -0.069,-1.2767 -0.104,-1.6792 0.277,-0.276 0.762,-0.4486 1.177,-0.5176 0.092,-0.2185 0.473,-0.506 0.704,-0.2875 0.219,2.0703 -1.719,3.4274 -2.653,5.0261 -0.277,0.1265 -0.277,0.1265 -0.393,0.1265 -0.046,0.2761 -0.057,0.3221 0.035,0.6211 0.184,0.0575 0.346,0.1035 0.531,0.161 0.046,0.1265 0.08,0.2416 0.092,0.3681 1.188,0.0805 2.065,-0.7361 2.653,-1.6562 0.058,0 0.127,-0.0115 0.185,-0.0115 0,-0.0575 0.023,-0.115 0.023,-0.1726 0.3,-0.138 0.15,-0.4025 0.484,-0.506 0,-0.092 0.023,-0.184 0.023,-0.276 0.658,-0.8282 0.416,-1.5872 1.327,-2.1968 0.046,-0.207 0.104,-0.4026 0.162,-0.5866 -0.046,-0.0115 -0.058,-0.046 -0.081,-0.0575 0.023,-0.1495 0.046,-0.2875 0.092,-0.437 -0.034,-0.0231 -0.081,-0.0231 -0.115,-0.0346 0,-0.069 -0.012,-0.1495 -0.012,-0.2185 -0.046,0 -0.08,-0.0115 -0.115,-0.0345 0.023,-0.092 0.023,-0.207 0.046,-0.3105 0.346,0.046 0.773,0.1955 1.165,0.184 0,0.0345 0.012,0.092 0.012,0.1265 0.577,0.2991 0.68,1.2652 0.484,1.8747 0.196,0.8857 -0.15,1.3917 -0.553,2.1968 -0.243,0.184 -0.543,0.4716 -0.589,0.7706 -1.05,0.299 -1.811,1.6102 -2.93,1.8517 -0.681,-0.046 -0.738,-0.115 -1.361,-0.184 0,0.0345 0,0.069 0.011,0.1265 -0.092,0.023 -0.173,0.0345 -0.242,0.0575 0,0.3796 0.588,0.6326 0.761,1.058195 0.277,0.276 0.993,0.6325 1.373,0.7936 0.439,-0.0691 0.496,-0.12659 0.739,-0.1151 0.23,-0.138 0.357,-0.3105 0.657,-0.299 0.277,-0.368 0.75,-0.23 0.877,-0.5521 0.3,-0.0345 0.3,-0.0345 0.634,-0.0115 0.035,-0.069 0.035,-0.069 1.073,-0.517495 0.289,-0.3681 0.623,-0.4256 0.9,-0.8626 0.577,-0.2876 1.396,-1.5987 1.385,-2.1853 0.011,0 0.057,0 0.092,0 0.081,-0.6441 0.242,-1.2882 0.323,-1.8862 -0.092,-1.0697 -0.092,-1.0697 -0.277,-2.0703 z m -15.263,5.0951 c 0.012,-0.8281 -0.242,-1.2191 -0.415,-1.8862 -0.023,-0.8741 -0.312,-2.1277 -0.012,-2.8753 0.658,-0.9317 2.954,-0.9317 3.554,-1.8058 0.08,-0.092 0.138,-0.207 0.161,-0.3335 -0.058,0 -0.092,0 -0.138,0 0,-0.0345 0,-0.0575 -0.012,-0.092 -0.081,-0.4486 -0.415,-0.4371 -0.461,-0.8511 -0.185,-0.0575 -0.173,-0.092 -0.243,-0.207 -0.438,-0.2071 -0.876,-0.4026 -1.315,-0.6096 -0.346,-0.299 -0.784,-0.6786 -1.119,-0.8511 0,-0.0575 0,-0.092 0,-0.1265 -0.911,-0.2876 -1.142,-0.5291 -2.088,-0.2071 -0.254,0.6556 -0.496,1.3687 -0.807,2.0473 -0.197,0.6786 -0.197,0.9546 -0.866,1.1616 0.127,-0.4945 -0.288,-1.2191 -0.473,-1.6332 -0.496,-0.161 -1.442,-0.5405 -1.569,0.2416 -0.519,0.092 -0.565,0.7131 -0.692,1.1616 -0.369,0.3681 -0.657,0.8741 -0.831,1.3687 0,0.299 -0.057,1.1846 0.347,1.2996 0.773,1.1732 2.226,0.9201 3.426,0.5751 0.035,0.6096 0.081,0.6671 -0.127,1.2652 -0.288,0.1955 -0.288,0.1955 -2.93,1.6677 -0.9,0.5405 -1.95,1.4606 -2.977,1.4491 -0.427,0.3566 -0.45,0.3796 -0.969,0.3796 -0.3,0.4025 -0.38,0.5635 -0.853,0.7016 -0.081,0.207 -0.485,0.805105 -0.704,0.874105 0.011,0.5175 -0.058,1.5642 0.657,1.6907 0.185,0.3565 0.543,0.506 0.935,0.2645 0.15,0.3221 0.219,0.3451 0.623,0.3451 0.104,-0.1841 0.231,-0.3681 0.357,-0.5291 0.889,-0.2415 1.719,-0.3451 2.723,-0.4601 0,-0.0805 0,-0.1495 0,-0.207 -0.058,0 -0.092,0 -0.127,0 -0.023,-0.0345 -0.034,-0.069 -0.034,-0.115 -0.439,-0.1265 -1.039,-0.1725 -1.466,-0.253 0.024,-0.1266 0.035,-0.2531 0.058,-0.4026 0.415,-0.1265 0.508,-0.483 0.831,-0.5981 0,-0.046 0,-0.069 0,-0.1035 0.057,0 0.127,0 0.184,0 0.889,-0.943105 2.388,-1.276605 3.219,-2.426805 0.058,-0.0115 0.115,-0.0345 0.15,-0.023 0,-0.0575 0,-0.092 0,-0.1265 0.265,-0.1725 0.542,-0.3335 0.808,-0.483 0.276,1.2076 0.588,2.2887 0.611,3.588405 -0.058,0 -0.092,0 -0.127,0 0,0.0805 0,0.1495 0,0.2415 -0.058,0 -0.092,0 -0.127,0 -0.219,0.3451 -0.53,0.3221 -0.9,0.4256 -0.011,0.0575 -0.034,0.1265 -0.034,0.1955 -0.485,0.2645 -1.015,0.046 -1.338,0.2415 0.426,0.2991 2.065,0.1725 2.249,0.8166 0.496,0.1035 0.935,0.5176 1.558,0.6556 0.346,-0.0115 1.107,0 1.257,-0.4831 0.035,0 0.081,0 0.127,0 0.023,-0.1265 0.023,-0.1265 0.15,-0.253 -0.081,-1.5642 -0.265,-3.105405 -0.3,-4.635005 0.035,-0.0461 0.046,-0.0691 0.069,-0.0806 z" fill="#ffffff" id="path5" style="fill:#00084d;fill-opacity:1"/>
    <path fill-rule="evenodd" clip-rule="evenodd" d="m 105.91677,15.5959 c -0.058,-0.5751 -0.461,-1.4607 -0.865,-1.6907 -0.773,-0.1035 -0.9,-0.161 -1.511,-0.184 -1.108,0.5176 -0.52,1.3342 -0.531,2.3923 0.219,0.3105 -0.012,0.7591 0.196,0.9431 -0.012,0.6901 0.069,1.1961 0.15,1.9207 -0.023,1.3687 -0.035,2.7259 -0.058,4.0945 -0.023,0.2071 -0.219,3.4735 -0.496,3.7495 -0.011,0.6786 -0.184,1.1616 -0.254,1.8747 -0.057,0 -0.127,0 -0.184,0 -0.116,0.6441 -1.154,0.7706 -1.719,1.1732 -0.508,0.218505 -0.992302,0.494505 -1.453701,0.793605 -0.5653,0.299 -1.096,0.6095 -1.6613,0.7475 -0.0231,0.0691 -0.0231,0.1496 -0.0231,0.2186 0.5768,-0.0115 1.1191,-0.0575 1.6728,-0.1495 0.542199,-0.0691 1.073301,-0.1726 1.626301,-0.2646 0.012,0.0345 0.035,0.0575 0.058,0.092 0.462,-0.0115 0.462,-0.0115 1.165,-0.161 0.023,0.0345 0.012,0.069 0.035,0.12651 0.254,0 0.519,0 0.773,0.0115 0.427,0.2071 0.68,0.3451 1.2,0.3796 0,0.0345 0,0.069 0,0.1265 1.049,-0.0575 0.83,-0.23 1.476,-1.06961 0.046,-0.49459 -0.011,-1.874795 0.035,-3.829995 0.288,-0.3681 -0.265,-2.7143 -0.323,-3.1744 0.034,-0.7476 0.046,-1.5067 0.069,-2.2428 0.104,-0.5865 -0.127,-2.3808 0.185,-2.6913 0.069,-0.7361 0.115,-1.4492 0.161,-2.1853 0.162,-0.2875 0.289,-0.552 0.15,-0.8626 0.035,-0.0575 0.069,-0.092 0.127,-0.138 z m -7.775601,9.7532 c 0,0.0345 0.0231,0.069 0.0231,0.1265 0.2769,0.023 0.6807,0.115 1.1075,0.1495 0.588399,0.046 1.200001,-0.0345 1.350001,-0.644 0.046,-0.0115 0.057,-0.0345 0.092,-0.0345 0.012,-0.2071 0.046,-0.4026 0.081,-0.5866 0.404,-0.3911 -0.139,-1.5642 0.127,-1.8172 -0.093,-0.1841 -0.358,-1.2537 -0.335,-1.3802 -0.046,0 -0.115,-0.023 -0.161,-0.023 -0.15,-0.276 -0.3,-0.1265 -0.416,-0.3681 -0.241902,-0.1035 -0.472602,-0.161 -0.668802,-0.1955 -0.426799,-0.0805 -0.795999,-0.0115 -1.257499,0.2761 -0.023,0.092 -0.023,0.184 -0.0461,0.276 -0.0346,0.0115 -0.0692,0.0115 -0.0923,0.0345 -0.2999,1.1041 -0.5653,1.7827 -1.6151,2.4038 -0.4384,0.4715 -1.3613,1.1386 -1.9035,1.4722 -0.0116,-0.3911 -0.1385,-0.5751 -0.1385,-0.7016 -0.6575,-0.3796 -0.496,-0.4716 -0.5191,-1.2307 0.0346,-0.0115 0.0692,-0.0115 0.1269,-0.0345 0.2538,-0.4945 1.3036,-0.5865 1.8228,-0.6901 0.7037,-0.3565 0.7268,-0.4255 1.0729,-0.5405 0,-0.0575 0,-0.092 0,-0.1265 0.2076,-0.0805 0.3461,-0.0805 0.4268,-0.3221 0.0346,0 0.0808,-0.0115 0.1038,-0.0115 0,-0.3105 -0.0576,-0.368 -0.0576,-0.4945 -0.0347,-0.023 -0.0577,-0.0345 -0.0923,-0.0345 0.0346,-0.1151 0.0807,-0.2071 0.1384,-0.3106 0.0231,-0.0115 0.0462,-0.0115 0.0923,-0.0345 0,-0.299 -0.0577,-0.368 -0.0577,-0.5521 -0.0231,-0.023 -0.0692,-0.0345 -0.1038,-0.0345 0,-0.0575 -0.0231,-0.115 -0.0231,-0.1495 -0.4038,-0.207 -0.6691,-0.5405 -1.0844,-0.598 0,-0.0345 0,-0.0691 0,-0.1266 -0.4615,-0.115 -0.8076,-0.1265 -1.2344,-0.1265 0.023,-0.207 0.0461,-0.3795 0.0807,-0.575 0.5884,-0.2071 0.0346,-1.2537 -0.1038,-1.5642 -0.0346,0 -0.0923,0 -0.1269,0 -0.1269,-0.5521 -1.1306,-1.0352 -1.6497,-1.0927 0,-0.0345 0,-0.0805 0,-0.1265 -0.9576,0.046 -1.9728,0.0805 -2.8495,0.5061 -0.2308,0.4025 -0.1962,0.6671 0,1.0926 0.0346,0 0.0576,0 0.0923,0 -0.0577,0.5866 0.0115,0.6211 0.0692,1.1386 0.0577,0.0231 0.1153,0.0461 0.173,0.0461 0.1615,0.414 0.2308,0.4485 0.2654,0.5405 0.1038,0.046 0.2192,0.0805 0.3461,0.092 0,0.0575 0.0115,0.115 0.0115,0.1495 0.0577,0.0231 0.0923,0.0576 0.15,0.0806 0.0692,0.391 -0.0462,0.7245 -0.0577,1.1616 -0.0346,0 -0.0808,0.0115 -0.1038,0.0115 -0.0577,0.1495 -0.1039,0.276 -0.15,0.4256 -0.3576,0.046 -0.473,0.23 -0.7499,0.276 -0.0346,0.0805 -0.0577,0.1265 -0.0807,0.207 -0.2539,-0.115 -0.7384,0.1725 -0.9345,0.2415 -1.0383,0.1381 -2.0881,0.2646 -3.1033,0.2876 -0.2192,0.184 -0.2769,0.161 -0.3461,0.437 -0.3692,0.1035 -0.7384,0.2531 -1.096,0.3681 -0.9114,0.8971 -0.173,1.2766 0.0346,2.2197 0.0692,0.0115 0.15,0.0345 0.1961,0.0576 0.5077,0.7015 1.4306,0.7015 2.2497,0.7245 0.023,-0.0345 0.023,-0.069 0.0461,-0.1035 0.1384,0.023 0.3346,-0.069 0.5884,-0.0575 0.6114,-0.345 1.5689,-0.7361 2.2727,-0.8741 0.023,-0.0575 0.0461,-0.092 0.0461,-0.1265 0.2423,-0.0345 0.4845,-0.069 0.7268,-0.092 0.0346,0.2645 0.0346,0.2645 0.1269,0.3335 0.1154,0 0.2423,0 0.3576,0 0,0.2071 0,0.4256 -0.0115,0.6211 -0.8883,0.046 -1.9727,-0.2185 -1.9497,0.9431 -0.0577,0 -0.0923,0 -0.1384,0 0,0.0575 0,0.1265 0,0.184 -0.2192,0.0345 -0.473,0.3796 -0.473,0.6211 -0.8306,0.115 -0.7383,0.023 -1.0383,0.7591 -0.0807,0.0805 -0.3345,0.161 -0.6345,0.3796 0,0.0575 0,0.115 -0.0231,0.1495 -0.2422,0.0345 -0.3807,0 -0.4614,0.253 -0.4499,0.23 -0.5884,0.069 -0.7614,0.5636 -0.2077,0.046 -0.4269,0.1035 -0.6345,0.1725 0,0.046 0,0.069 0,0.1265 -0.0693,0 -0.15,0.0115 -0.2192,0.0115 -0.0231,0.0805 -0.0231,0.1495 -0.0231,0.2185 -0.0577,0.023 -0.1384,0.0345 -0.1846,0.0575 -0.3461,0.621105 -0.2769,0.897205 -0.2653,1.656205 0.0346,0.023 0.0692,0.0461 0.1153,0.0461 0,0.0345 0,0.092 0,0.1265 0.3577,0.092 0.7038,0.276 1.0845,0.3335 0,0.0345 0,0.0805 0,0.1265 0.2999,0 0.5883,0.0115 0.8883,0.0115 0.2076,-0.161 0.9229,-0.322 1.2575,-0.345 0,-0.0575 0,-0.092 0,-0.12651 0.496,-0.069 0.9459,-0.13809 1.3382,-0.51759 0.0923,-0.023 0.173,-0.0115 0.2538,-0.0345 0,-0.046 0,-0.092 0,-0.1265 0.2076,-0.0345 0.4153,-0.069 0.5999,-0.10351 0,-0.046 0,-0.092 0,-0.12649 0.2999,-0.0806 0.3345,-0.1726 0.5999,-0.2531 0.0692,0.12649 0.0692,0.12649 0.1038,0.39109 -0.0577,0 -0.1154,0.0115 -0.15,0.0345 -0.023,0.20699 -0.023,0.20699 0.0462,0.39099 -0.0923,0.28761 -0.2884,0.37961 -0.4269,0.65561 -0.6345,0.2875 -0.6114,0.9776 -0.0692,1.3917 -0.0231,0.483 -0.1615,1.21909 0.5422,1.3341 0.0116,0.58659 0.2884,0.78209 0.8883,0.92009 0.3577,-0.10349 0.3577,-0.10349 0.3923,-0.17249 0.3115,0.0805 0.623,0.19549 1.0037,-0.023 -0.0116,-0.1265 -0.0116,-0.276 -0.0346,-0.4025 0.646,-0.2646 0.5768,-1.1387 0.4729,-1.6677 -0.6806,-1.5297 -0.4614,-2.6454 -0.3807,-4.278595 -0.0346,0 -0.0692,0 -0.1269,0 0,-0.023 0,-0.0575 0,-0.092 0.4038,-0.161 0.623,-0.621 0.623,-1.0121 0.0923,-0.0575 0.1846,-0.0805 0.2769,-0.138 0.0231,-0.069 0.0346,-0.1495 0.0577,-0.2185 0.0692,-0.023 0.1269,-0.0345 0.2076,-0.046 0.0116,-0.1265 0.0808,-0.2761 0.1154,-0.4026 0.1846,-0.115 0.2769,-0.115 0.3576,-0.3105 0.0346,-0.0115 0.0692,-0.0115 0.1269,-0.0345 0.0808,-0.4601 0.2654,-0.9201 0.8306,-0.9891 0.0231,-0.0461 0.0462,-0.0806 0.0577,-0.1381 0.2423,-0.069 0.45,-0.207 0.5307,-0.4715 0.4153,-0.1955 0.6345,-0.7476 1.1075,-0.9546 0.1038,0.2875 0.4269,1.0696 0.8883,1.1501 z" fill="#ffffff" id="path6" style="fill:#00084d;fill-opacity:1"/>
    <path fill-rule="evenodd" clip-rule="evenodd" d="m 80.040569,31.157205 c -0.0346,-0.0115 -0.0577,-0.046 -0.0923,-0.046 0.0807,-0.368 0.0807,-0.368 0.0692,-0.75911 -0.5999,-0.2645 -0.4499,-0.690095 -1.119,-0.644095 -0.0116,-0.0575 -0.0347,-0.115 -0.0347,-0.1495 -0.6691,-0.138 -1.0498,-0.46 -1.6958,-0.5865 -0.0808,-0.3336 -1.0152,-0.4716 -1.5805,-0.5406 -0.15,-0.023 -0.2769,-0.0345 -0.3461,-0.046 -0.0231,-0.0575 -0.0231,-0.092 -0.0231,-0.1265 -0.5768,-0.046 -0.623,-0.4256 -1.1075,-0.4601 0,0.0345 0,0.069 0,0.1265 -0.2538,-0.0575 -0.3115,-0.0345 -0.3346,-0.276 -0.1961,-0.046 -0.2884,-0.1265 -0.5652,-0.1725 -0.0116,-0.046 -0.0347,-0.092 -0.0577,-0.1265 -0.3346,-0.1036 -0.6345,-0.3106 -0.8999,-0.4371 -0.0692,-0.7016 0.6345,-1.8287 0.9114,-2.4153 0.0346,0 0.0692,-0.023 0.1038,-0.023 0.0693,-0.6211 0.0577,-1.1386 -0.0692,-1.7137 -0.1269,-0.1265 -0.6345,-0.6671 -0.6691,-0.7476 -0.1154,-0.023 -0.2423,-0.046 -0.3692,-0.069 -0.2422,0.2415 -0.4153,0.2185 -0.7037,0.253 -0.3115,0.6786 -0.3922,1.3457 -0.5768,2.0933 -0.2077,0.3335 -0.3,0.3105 -0.3461,0.6786 -0.0346,0 -0.0923,0 -0.1269,0 0,0.1265 0,0.253 0,0.368 -0.1154,0.0805 -0.2192,0.1265 -0.3346,0.184 -0.023,0.0575 -0.0461,0.1265 -0.0577,0.1956 -0.2768,0.1035 -1.5805,-0.5751 -1.7074,-0.8166 -0.2768,-0.1266 -0.4037,-0.2531 -1.2805,-0.6901 0.1384,-0.3336 0.2423,-0.4371 0.2769,-0.8051 0.0576,0 0.1269,0 0.1845,0 0.0231,-0.046 0.0231,-0.1035 0.0231,-0.184 0.0346,-0.0231 0.0577,-0.0231 0.0692,-0.0461 0.0808,-0.138 0.0808,-0.138 0.0577,-0.6325 0.0231,-0.0115 0.0577,-0.0115 0.0692,-0.046 0.1039,-0.4026 0.1846,-1.0122 -0.3345,-1.0122 -0.0346,-0.069 -0.0692,-0.161 -0.1038,-0.2415 -0.1962,-0.069 -0.1962,-0.069 -0.623,-0.069 0,-0.0345 0,-0.069 0,-0.092 -0.5076,0.1035 -0.6691,0.3565 -1.0614,0.6096 0,0.3105 -0.2422,0.644 -0.2884,1.0466 -0.173,0.0345 -1.3613,0.9316 -1.6612,1.1386 0,0.0345 0,0.0805 -0.0231,0.1265 -0.323,0.0461 -0.6807,0.1726 -1.0152,0.2186 -0.2654,0.4715 -0.45,0.598 -0.6576,1.1846 -0.0346,0 -0.0808,0 -0.1269,0 -0.0462,0.2761 -0.2538,0.7131 -0.0692,1.0121 0.4499,-0.0115 0.2884,0.1151 0.6806,0.2531 0,-0.092 0,-0.092 0.1154,-0.1265 0.3461,-0.5981 0.323,-0.5981 1.0498,-0.6671 0.6461,-0.3911 1.2806,-0.4601 1.9497,-0.6901 0,-0.0345 0,-0.092 0,-0.1265 0.0692,0 0.15,0.0115 0.2192,0.023 0.2076,0.276 0.3115,0.483 0.2653,0.9201 0.3461,-0.0805 0.3461,-0.0805 0.5768,-0.046 -0.0461,0.253 0.1269,0.5521 0.4269,0.6556 0,0.0805 0,0.1265 0,0.207 0.0231,0 0.0577,0 0.0807,0 0.0231,0.0575 0.0231,0.115 0.0231,0.184 0.2884,0.207 0.8537,0.7706 0.8768,1.1962 -0.3807,0.161 -0.4153,0.6555 -0.8999,0.8396 0,0.0345 0,0.092 0,0.1265 -0.4268,0.161 -0.819,0.6326 -1.2459,0.7591 -0.0231,0.05751 -0.0461,0.09201 -0.0577,0.149505 -0.1153,0.023 -0.2307,0.0575 -0.323,0.092 -0.323,0.56361 -1.9497,0.35651 -2.0996,0.72461 -0.1731,0.0115 -0.3461,0.0345 -0.5192,0.069 -0.0231,0.046 -0.0461,0.0575 -0.0577,0.092 -0.2999,0 -0.5883,-0.023 -0.8883,-0.0345 0,-0.0345 0,-0.0805 0,-0.092 -0.2192,-0.0575 -0.2538,-0.1495 -0.4961,-0.1725 0.0116,0.2415 0.0693,0.1725 0.15,0.36799 -0.1384,0.0115 -0.2653,0.0115 -0.3922,0.0345 0,0.2415 0.0692,0.2761 0.1153,0.49459 -0.0461,0 -0.0922,0 -0.1269,0 -0.023,0.14951 -0.0576,0.29901 -0.0922,0.4485 0.0576,0.0115 0.0922,0.0345 0.1499,0.0575 0.6345,1.43771 3.9455,0.4946 5.1222,0.50611 0,-0.046 0.0231,-0.0805 0.0231,-0.11501 0.2769,-0.115 0.6114,-0.22999 0.8537,-0.3796 0,-0.0575 0,-0.10349 0,-0.161 0.15,-0.0575 0.2769,-0.1265 0.4038,-0.184 0.0231,-0.0345 0.0231,-0.092 0.0461,-0.1265 0.7614,-0.1725 1.4767,-1.0121 2.0305,-1.5067 0.2307,0 0.8767,0.253 0.9344,0.5751 0.2192,0.046 0.7153,0.25301 0.7499,0.5405 0.1269,0 0.8652,0.4371 0.8998,0.5406 0.1154,0.0345 0.2192,0.0805 0.3461,0.138 0,0.069 0,0.16101 0,0.253 0.15,0.0231 0.3692,0.2071 0.623,0.29911 0.2538,0.2645 0.5884,0.41399 0.9921,0.49449 0.0231,0.0576 0.0231,0.11511 0.0347,0.14961 0.2768,0.19549 0.5191,0.23 0.8998,0.276 0,0.0345 0,0.0805 0,0.1265 0.1846,0.023 0.2423,0 0.323,0.0575 0.0462,0.046 0.1038,0.092 0.1846,0.20701 0.2769,0 0.3115,-0.1035 0.5653,0.0691 0.3922,-0.0691 0.8306,-0.2186 1.2575,-0.0116 0.3345,-0.14949 0.7383,-0.19549 0.8537,-0.56349 0.1384,-0.069 0.1384,-0.069 0.3345,-0.0805 0,-0.023 0,-0.0575 0,-0.092 0.0577,-0.023 0.0923,-0.0345 0.15,-0.0345 0.1384,-0.31059 0.8998,-1.61019 1.1306,-1.65619 0.0807,-0.0921 0.0807,-0.0921 0.0577,-0.3221 z M 77.560169,20.7485 c -0.4038,-0.0921 -0.4038,-0.0921 -0.4614,-0.1496 -0.2308,0 -0.7615,-0.0345 -1.3844,-0.023 -1.0845,0.023 -2.4458,0.1726 -2.6534,0.7361 -0.3923,0.1035 -0.3346,0.138 -0.323,0.5406 0.2538,0.115 0.2538,0.3105 0.5652,0.437 0.7153,0.8051 1.3729,0.9432 2.3766,1.0697 0.1961,0.023 0.4153,0.046 0.6691,0.092 1.2229,-0.0805 1.0037,-0.0345 1.7305,-0.8971 0.2307,-0.069 0.4153,-0.092 0.5999,-0.2646 0.0115,-0.368 -0.0693,-0.8281 -0.45,-0.9546 -0.0346,-0.184 -0.0346,-0.184 -0.1269,-0.3565 -0.1615,-0.0345 -0.323,-0.0805 -0.496,-0.115 -0.0346,-0.0345 -0.0346,-0.069 -0.0462,-0.115 z m -14.6629,-0.1381 c 0,0.0805 0,0.1726 0,0.2531 0.3,0.0575 0.6115,0.1265 0.9114,0.1955 1.2344,-0.023 1.2344,-0.023 2.2381,-0.138 0,-0.0345 0,-0.0575 0,-0.092 0.0923,0.0575 0.0923,0.0575 0.623,0.092 0.023,-0.0345 0.0461,-0.0805 0.0576,-0.115 0.1846,-0.046 0.3692,-0.0921 0.5653,-0.1381 0,-0.0345 0,-0.069 0.0116,-0.092 1.6381,-0.2185 3.1148,-0.5635 4.7299,-1.0581 0.8422,-0.4831 2.4458,-0.4946 3.3572,-0.5521 0.1153,-0.046 0.2191,-0.0805 0.3576,-0.1265 0.5883,-0.115 1.3613,-0.069 1.3267,-0.9776 0.1846,-0.0115 0.1846,-0.0115 0.7037,0.092 0.0231,-0.3565 0.0462,-0.6096 -0.0577,-0.8856 -0.0577,-0.023 -0.1269,-0.0345 -0.1961,-0.0575 -0.0692,-0.207 -0.0692,-0.23 -0.2192,-0.2645 -0.0923,-0.8166 -0.5768,-0.3796 -0.796,-0.8051 -0.15,0 -0.3922,-0.023 -0.7037,-0.0115 -0.8307,0.023 -2.0535,0.1265 -2.1574,0.4485 -0.1038,0.0115 -0.2422,0.0345 -0.3691,0.046 0,0.0345 0,0.069 0,0.092 -0.2769,0.092 -0.6691,0.1381 -0.7499,0.4141 -0.5999,0.23 -1.2229,0.3335 -1.8343,0.506 0.0461,-0.1725 0.0808,-0.3105 0.1384,-0.46 0.5307,-0.345 0.1846,-1.1962 -0.0115,-1.5987 -0.0692,-0.023 -0.1269,-0.023 -0.1846,-0.0345 -0.0115,-0.0575 -0.0115,-0.115 -0.0346,-0.1725 -1.4421,-0.0575 -1.6959,-0.1725 -1.7766,1.3916 0.2192,0.1726 0.2307,0.3336 0.3461,0.6441 0.1615,0.138 0.3461,0.2876 0.4499,0.5406 -1.1998,0.276 -1.1998,0.276 -1.2575,0.3335 -0.473,-0.0115 -0.6922,-0.0115 -1.1306,0.1265 0,0.0345 0,0.0806 0,0.0921 -0.2768,0 -0.4037,-0.023 -0.6114,0.1035 -1.1652,0.2415 -2.388,0.207 -3.5994,0.184 -0.3691,0.6901 -0.7037,1.1501 -0.2884,1.9552 0.0115,0.023 0.0808,0.0575 0.1615,0.069 z" fill="#ffffff" id="path7" style="fill:#00084d;fill-opacity:1"/>
    <path fill-rule="evenodd" clip-rule="evenodd" d="m 56.621569,25.1649 c -0.1384,-0.7936 -0.4615,-1.6102 -0.5191,-2.3462 -0.0347,-0.023 -0.0808,-0.023 -0.1039,-0.0345 -0.0807,-0.1726 -0.15,-0.3451 -0.2192,-0.5406 -0.0346,0 -0.0807,0 -0.1153,0 0,-0.0345 0,-0.0805 0,-0.115 -0.1962,-0.1035 -0.1962,-0.1035 -0.2538,-0.2646 -0.0577,-0.0115 -0.1269,-0.0345 -0.1846,-0.0575 -1.0498,-1.2191 -2.9303,-1.1731 -4.3839,-1.1156 -0.2538,-0.184 -0.3576,-0.3565 -0.3576,-0.6441 -0.0346,-0.023 -0.0692,-0.0345 -0.1154,-0.0345 -0.0577,-0.1495 -0.1038,-0.299 -0.173,-0.4485 -0.0231,-0.0805 -0.0577,-0.1496 -0.0923,-0.2071 -0.2538,-0.0575 -0.4615,-0.483 -0.4846,-0.667 0.1962,-0.0115 0.4038,-0.046 0.5884,-0.0691 0.7037,-0.046 1.4075,-0.069 2.1458,0.0691 0.4614,-0.0115 0.9229,-0.023 1.3844,-0.0345 0.0577,-0.0806 0.0577,-0.0806 0.5422,-0.2531 0.2423,-0.46 0.2422,-1.0696 0.2538,-1.5642 -0.4845,-1.1846 -1.7651,-0.598 -2.7226,-0.5405 -0.3692,0.0345 -0.7384,0.069 -1.1306,0.115 -0.15,0 -0.2884,0.0115 -0.4384,0.0115 -0.9114,0.0805 -1.7997,0.23 -2.7226,0.253 -0.1154,0.0345 -0.3,0.069 -0.5076,0.1035 -1.1306,0.184 -3.2187,0.3566 -3.4033,0.5521 -0.5191,0.046 -0.6345,0.1265 -0.946,0.115 -0.1846,0.092 -0.5076,0.1725 -0.8652,0.23 -1.0729,0.1611 -2.5957,0.2186 -2.8726,0.5291 0.0461,0.8166 -0.1615,1.2306 0.6576,1.6332 0.7383,0.0115 1.442,-0.1265 2.1919,-0.1725 0.2423,-0.0345 0.4961,-0.0345 0.7384,-0.023 -0.0347,0.069 -0.0347,0.069 -0.5653,0.4025 -0.0231,0.092 -0.0923,0.184 -0.1846,0.2531 -0.2538,0.2415 -0.6922,0.4485 -0.8076,0.713 -0.3345,0.2416 -1.4882,1.7943 -1.5805,1.7943 -0.2076,0.529 -0.2999,0.575 -0.4614,0.9546 -0.1962,0.9776 -1.1998,3.8529 -0.9345,4.4855 -0.0461,0.5521 -0.4961,3.277895 -0.2423,3.611495 -0.2192,0.2875 0.1962,1.67921 0.3577,2.10471 0.6575,0.6901 0.8075,0.31059 1.419,0.2415 0.0576,-0.11501 0.1153,-0.21851 0.173,-0.33351 0.0231,0 0.0577,-0.023 0.0923,-0.023 0.0231,-0.184 0.0346,-0.368 0.0692,-0.5406 0.0577,0 0.0923,0 0.1269,0 0.0231,-0.184 0.0577,-0.345 0.0808,-0.529 0.5422,-0.046 1.0383,-0.2761 1.5228,-0.4716 0.3692,-0.138 0.7153,-0.2645 1.1075,-0.276 0.7845,-0.2991 1.9843,-0.253 2.8726,-0.2991 0.0807,-0.207 0.6345,-0.368 1.2459,-0.4945 0.6691,-0.138 1.4075,-0.2185 1.6844,-0.1955 0.023,0.115 0.0346,0.2185 0.0461,0.3565 0.2423,0.0575 0.4845,0.115 0.7383,0.1955 0,0.046 0.0116,0.092 0.0116,0.1495 0.0346,0.0231 0.0692,0.023 0.1153,0.0461 0,0.1495 0.0116,0.299 0.0231,0.4485 0.2423,0.069 0.2423,0.069 0.3346,0.1495 0.0692,0 0.173,0 0.2422,0 0.4846,0.0115 0.9691,0.0115 1.4652,0.023 0.0692,0.023 0.1269,0.0575 0.1961,0.069 0,0.046 0,0.0805 0,0.11509 0.1154,0.023 0.2307,0.023 0.3576,0.0345 0.9922,0.37951 2.5496,0.69 3.0226,-0.6786 0.0346,0 0.0807,0 0.0923,0 0.0461,-0.184 0.3115,-0.5521 0.8191,-1.5872 0.1961,-0.517595 0.3345,-1.322695 0.473,-1.725195 0.2076,-0.2186 0.1499,-0.3106 0.1615,-0.5751 0.0115,-0.9891 0.0231,-1.9437 0.0346,-2.8984 z m -13.5669,4.865105 c -0.4846,0.1151 -0.9691,0.2531 -1.4421,0.40259 -0.2077,0.0575 -0.4268,0.11501 -0.6576,0.17251 0,0.0345 0,0.0805 0,0.1265 -0.323,0.092 -0.4038,0.138 -0.8075,0.23009 0.0346,-0.14959 0.0577,-0.31059 0.1038,-0.46009 0.2884,-0.092 0.8883,-1.253705 1.3959,-1.966705 0.1846,-0.2416 0.3576,-0.4371 0.5076,-0.5061 0.1385,-0.3105 0.2423,-0.3681 0.2884,-0.4601 0.0346,0 0.0577,0 0.0923,-0.023 0.0462,-0.2415 0.1731,-0.2875 0.3577,-0.46 0.0346,0.7591 0.0692,1.5297 0.1153,2.2888 0.0346,0.1265 0.1269,0.4715 0.0462,0.655505 z m -0.4961,-5.589605 c 0,0.0345 0,0.069 0,0.115 -0.2538,0.0575 -0.4269,0.3795 -0.6922,0.4715 -0.0692,0.046 -0.1384,0.1035 -0.1846,0.1841 -0.7729,0.8166 -1.4651,1.6562 -2.1804,2.5303 0.0116,-1.0122 0.4269,-2.0933 0.4961,-3.1054 0.0807,-0.2876 0.173,-0.5636 0.2538,-0.8396 0.1846,-0.3451 0.8652,-1.3342 1.4882,-2.0588 0.3922,-0.4485 0.7614,-0.7936 0.9691,-0.8166 0.173,0.5866 0.9344,3.1974 -0.15,3.5195 z m 4.903,2.3807 c -0.1961,0.6786 -0.323,1.3802 -0.623,1.9208 -0.2653,0.414 -0.6229,0.7246 -1.2113,0.8166 0,-0.1265 0.0231,-0.2646 0.0346,-0.3911 0.0116,0 0.0462,0 0.0692,0 0.0116,-0.4945 0.0116,-1.0006 0.0231,-1.4951 -0.0231,0 -0.0577,0 -0.0692,0 -0.0462,-0.7821 -0.2538,-1.9438 0.1846,-2.5994 0.2422,-0.1495 0.5307,-0.276 0.6576,-0.529 0.1269,-0.0345 0.2653,-0.092 0.3922,-0.1265 0.2653,-0.1036 0.5422,-0.2301 0.8191,-0.2991 0,-0.046 0,-0.0575 0,-0.092 0.2076,0 0.2076,-0.161 0.4614,-0.069 -0.1499,0.9316 -0.3576,1.9207 -0.7383,2.8638 z m 1.0614,-7.6024 c -0.1731,0.5521 -0.0231,1.2192 -0.0923,1.8632 -0.4499,0.3221 -0.9576,0.6441 -1.4767,0.9317 -0.5076,0.276 -1.0037,0.506 -1.4882,0.6785 -0.0577,-0.2415 -0.0577,-0.2415 0,-1.4721 -0.2307,-0.9431 -0.4038,-1.3687 -0.4384,-1.6447 0.6345,-0.2991 1.2921,-0.5751 1.9728,-0.7246 0.6345,-0.161 1.2805,-0.2185 1.9842,-0.161 -0.2307,0.345 -0.2307,0.345 -0.4614,0.529 z m 1.5113,11.719895 c -0.2423,0.0576 -0.5423,0.12661 -0.9114,0.19561 -0.0923,-0.0345 -0.1962,-0.0575 -0.2884,-0.092 0.5422,-0.20709 0.8767,-0.3681 1.2113,-0.43709 0.3345,-0.069 0.6806,-0.0575 1.2113,0.0575 -0.1384,0.0575 -0.1615,0.0575 -1.2228,0.27599 z m 3.7147,-2.518795 c 0.1846,0.046 0.1846,0.046 0.1846,0.0921 -0.2307,0.1035 -0.4269,0.368 -0.2423,0.621 -0.0923,0.0115 -0.173,0.0345 -0.2422,0.0575 -0.0462,0.115 -0.0693,0.2186 -0.0808,0.3336 -0.2653,0.046 -0.5538,0.459995 -0.7383,0.667105 -0.2077,0.069 -0.4038,0.161 -0.6115,0.253 -0.0461,-0.586605 -0.0807,-0.885605 -0.0346,-1.437705 -0.0346,0 -0.0461,0 -0.0807,0 -0.0346,-0.368 -0.0693,-0.46 -0.4038,-0.4945 0,-0.0576 0,-0.0921 0,-0.1266 -0.4615,0.0115 -0.9345,0.1496 -1.4305,0.2876 -0.45,0.1495 -0.9114,0.299 -1.3498,0.3565 0.0807,-0.2415 0.1269,-0.3105 0.1384,-0.5521 0.2077,-0.046 0.6461,-1.2536 0.7384,-1.4721 0.0346,-0.023 0.0807,-0.023 0.0923,-0.023 0.1961,-0.5061 0.3114,-1.0237 0.4268,-1.5527 0.1731,-0.7361 0.3115,-1.4607 0.5999,-2.1508 0.8191,-0.4255 2.5726,-0.46 3.0803,0.5981 0.2191,0.115 0.346,1.1501 0.3807,1.4837 -0.0462,0.023 -0.0577,0.0345 -0.0693,0.0805 0.0346,1.0466 -0.0346,1.8747 -0.3576,2.9788 z" fill="#ffffff" id="path8" style="fill:#00084d;fill-opacity:1"/>
    <path d="m 40.297269,4.91105 -2.1342,-3.47343 h 0.8652 0.8768 l 1.2344,2.26578 1.2921,-2.26578 h 0.8537 0.8537 l -2.1574,3.36991 2.3073,3.66895 h -0.8767 -0.8768 l -1.3844,-2.4153 -1.3844,2.4153 h -0.8652 -0.8768 z" fill="#ffffff" id="path9" style="fill:#00084d;fill-opacity:1"/>
    <path d="m 45.096469,1.38013 h 1.3959 v 1.26515 h -1.3959 z m 0.0116,1.88623 h 0.6922 0.6921 v 5.19863 h -0.6921 -0.6922 z" fill="#ffffff" id="path10" style="fill:#00084d;fill-opacity:1"/>
    <path d="M 47.819169,2.0587 V 1.43762 h 0.6922 0.6922 v 0.93162 c 0,0.49456 -0.1153,0.8856 -0.3345,1.16164 -0.2192,0.28753 -0.5538,0.47155 -1.0152,0.56357 V 3.61139 c 0.2884,-0.09201 0.4845,-0.21853 0.5883,-0.40255 0.0692,-0.12652 0.1154,-0.29904 0.1385,-0.51757 h -0.3461 -0.4154 z" fill="#ffffff" id="path11" style="fill:#00084d;fill-opacity:1"/>
    <path d="m 51.764669,8.60299 c -0.4846,0 -0.8768,-0.13802 -1.1652,-0.41405 -0.2884,-0.27603 -0.4384,-0.64408 -0.4384,-1.09263 0,-0.47156 0.1269,-0.85111 0.3922,-1.13864 0.2654,-0.28754 0.6576,-0.47156 1.1652,-0.54057 l 0.9114,-0.12651 c 0.2423,-0.03451 0.4384,-0.09202 0.5884,-0.16102 0.0692,-0.03451 0.1153,-0.09201 0.1499,-0.17252 0.0347,-0.08051 0.0462,-0.16102 0.0462,-0.25304 -0.0231,-0.14951 -0.0923,-0.25303 -0.2192,-0.34504 -0.1615,-0.09201 -0.3807,-0.14952 -0.6807,-0.14952 -0.2653,0 -0.4614,0.05751 -0.6114,0.19553 -0.15,0.12651 -0.2307,0.31054 -0.2307,0.54056 h -1.3267 c 0.0231,-0.60957 0.2422,-1.06963 0.623,-1.38016 0.3807,-0.29904 0.9575,-0.44856 1.7074,-0.44856 0.646,0 1.1651,0.13802 1.5343,0.40255 0.3807,0.27603 0.5653,0.65558 0.5653,1.11564 v 2.90985 c 0,0.23003 0.0231,0.39105 0.0577,0.49456 0.0346,0.09201 0.1154,0.16102 0.2307,0.21853 v 0.19552 h -0.7383 -0.7384 v 0.0115 c -0.0576,-0.20702 -0.1038,-0.41405 -0.1269,-0.60957 V 7.8439 c -0.4499,0.50606 -1.0036,0.75909 -1.6958,0.75909 z m 1.6612,-2.05875 V 5.94617 c -0.1615,0.09201 -0.3691,0.16102 -0.6345,0.21852 l -0.5076,0.09201 c -0.2422,0.04601 -0.4268,0.12652 -0.5422,0.25303 -0.1269,0.11502 -0.1846,0.26454 -0.1846,0.44856 0,0.20702 0.0577,0.37954 0.1731,0.48306 0.1153,0.11501 0.2653,0.17252 0.473,0.17252 0.4383,0 0.796,-0.16102 1.0498,-0.46006 0.0461,-0.0575 0.0923,-0.14952 0.1269,-0.26453 0.0231,-0.11501 0.0461,-0.23003 0.0461,-0.34504 z" fill="#ffffff" id="path12" style="fill:#00084d;fill-opacity:1"/>
    <path d="m 55.975569,3.26634 h 0.6575 0.6576 v 0.75909 c 0.0577,-0.09201 0.1154,-0.17252 0.1731,-0.26453 0.3345,-0.42555 0.8306,-0.64408 1.4766,-0.64408 0.5423,0 0.9806,0.16102 1.2921,0.48306 0.3115,0.32204 0.4615,0.7821 0.4615,1.35717 v 3.50792 h -0.6922 -0.6922 V 5.22158 c 0,-0.32204 -0.0692,-0.56357 -0.2076,-0.71309 -0.1385,-0.16102 -0.3461,-0.23003 -0.6346,-0.23003 -0.3576,0 -0.6345,0.11502 -0.8306,0.32204 -0.1961,0.21853 -0.2884,0.52907 -0.2884,0.93161 v 2.93286 h -0.6922 -0.6922 V 3.26634 Z" fill="#ffffff" id="path13" style="fill:#00084d;fill-opacity:1"/>
    <path d="m 67.350369,1.43762 h 0.7383 0.7383 v 5.04912 c 0,0.71308 -0.1961,1.25365 -0.5768,1.62169 -0.3807,0.36805 -0.9575,0.55207 -1.6958,0.55207 -0.7961,0 -1.3844,-0.19552 -1.7536,-0.59807 -0.3692,-0.40255 -0.5422,-1.02363 -0.5191,-1.86323 V 5.77365 h 1.3959 V 6.1992 c -0.0116,0.42555 0.0461,0.74759 0.1846,0.95462 0.1384,0.20702 0.3576,0.31054 0.6691,0.31054 0.2884,0 0.4961,-0.06901 0.623,-0.23003 0.1269,-0.14952 0.1961,-0.39105 0.1961,-0.73609 z" fill="#ffffff" id="path14" style="fill:#00084d;fill-opacity:1"/>
    <path d="m 70.211569,1.38013 h 1.3959 v 1.26515 h -1.3959 z m 0,1.88623 h 0.6922 0.6922 v 5.19863 h -0.6922 -0.6922 z" fill="#ffffff" id="path15" style="fill:#00084d;fill-opacity:1"/>
    <path d="m 74.145569,8.60299 c -0.4845,0 -0.8768,-0.13802 -1.1652,-0.41405 -0.2999,-0.27603 -0.4384,-0.64408 -0.4384,-1.09263 0,-0.47156 0.1269,-0.85111 0.4038,-1.13864 0.2653,-0.28754 0.646,-0.47156 1.1652,-0.54057 l 0.9114,-0.12651 c 0.2422,-0.03451 0.4384,-0.09202 0.5883,-0.16102 0.0693,-0.03451 0.1154,-0.09201 0.15,-0.17252 0.0346,-0.08051 0.0462,-0.16102 0.0462,-0.25304 -0.0231,-0.14951 -0.0923,-0.25303 -0.2192,-0.34504 -0.1616,-0.09201 -0.3807,-0.14952 -0.6807,-0.14952 -0.2653,0 -0.4614,0.05751 -0.6114,0.19553 -0.15,0.12651 -0.2192,0.31054 -0.2308,0.54056 h -1.3267 c 0.0347,-0.60957 0.2423,-1.06963 0.623,-1.38016 0.3807,-0.29904 0.9575,-0.44856 1.7074,-0.44856 0.6461,0 1.1652,0.13802 1.5344,0.40255 0.3807,0.27603 0.5653,0.65558 0.5653,1.11564 v 2.90985 c 0,0.23003 0.023,0.39105 0.0576,0.49456 0.0346,0.09201 0.1154,0.16102 0.2308,0.21853 v 0.19552 h -0.7384 -0.7383 v 0.0115 c -0.0577,-0.20702 -0.1038,-0.41405 -0.1269,-0.60957 V 7.8439 c -0.4615,0.50606 -1.0152,0.75909 -1.7074,0.75909 z m 1.6613,-2.05875 V 5.94617 c -0.1616,0.09201 -0.3692,0.16102 -0.6346,0.21852 l -0.5076,0.09201 c -0.2422,0.04601 -0.4268,0.12652 -0.5422,0.25303 -0.1269,0.11502 -0.1846,0.26454 -0.1846,0.44856 0,0.20702 0.0577,0.37954 0.1615,0.48306 0.1154,0.11501 0.2654,0.17252 0.4615,0.17252 0.4384,0 0.796,-0.16102 1.0498,-0.46006 0.0462,-0.0575 0.0923,-0.14952 0.1269,-0.26453 0.0462,-0.11501 0.0693,-0.23003 0.0693,-0.34504 z" fill="#ffffff" id="path16" style="fill:#00084d;fill-opacity:1"/>
    <path d="m 78.771669,7.86699 c -0.4845,-0.48305 -0.7267,-1.15014 -0.7267,-1.97824 0,-0.8511 0.2422,-1.51818 0.7267,-2.01274 0.4846,-0.50606 1.1306,-0.74759 1.9497,-0.74759 0.8191,0 1.4767,0.24153 1.9497,0.74759 0.4845,0.49456 0.7153,1.17314 0.7153,2.01274 0,0.83961 -0.2423,1.49519 -0.7153,1.97824 -0.473,0.49456 -1.1306,0.73609 -1.9497,0.73609 -0.8191,0 -1.4651,-0.24153 -1.9497,-0.73609 z m 2.8842,-0.81659 c 0.2076,-0.27604 0.323,-0.66709 0.323,-1.17315 0,-0.52906 -0.1038,-0.92011 -0.323,-1.19614 -0.2192,-0.26454 -0.5307,-0.40255 -0.9345,-0.40255 -0.4038,0 -0.7152,0.13801 -0.9344,0.40255 -0.2192,0.27603 -0.3231,0.67858 -0.3231,1.19614 0,0.50606 0.1039,0.90861 0.3231,1.17315 0.2076,0.26453 0.5191,0.40254 0.9344,0.40254 0.4153,0 0.7153,-0.12651 0.9345,-0.40254 z" fill="#ffffff" id="path17" style="fill:#00084d;fill-opacity:1"/>
    <path d="m 86.766469,8.49947 c -0.2307,0.023 -0.5191,0.023 -0.8537,0.023 -0.4845,0 -0.8421,-0.08051 -1.0498,-0.26453 -0.2192,-0.17252 -0.323,-0.44856 -0.323,-0.85111 V 4.23245 h -0.7268 V 3.26633 h 0.7268 V 1.86316 h 1.3844 v 1.40317 h 0.8421 v 0.96612 h -0.8421 v 2.94436 c 0,0.12651 0.0346,0.20702 0.1038,0.24152 0.0692,0.03451 0.2192,0.05751 0.4499,0.05751 h 0.2884 z" fill="#ffffff" id="path18" style="fill:#00084d;fill-opacity:1"/>
    <path d="m 88.046869,7.86699 c -0.4845,-0.48305 -0.7153,-1.15014 -0.7153,-1.97824 0,-0.8511 0.2423,-1.51818 0.7153,-2.01274 0.4845,-0.50606 1.1306,-0.74759 1.9497,-0.74759 0.8191,0 1.4766,0.24153 1.9496,0.74759 0.473,0.49456 0.7153,1.17314 0.7153,2.01274 0,0.83961 -0.2423,1.49519 -0.7153,1.97824 -0.4845,0.49456 -1.1305,0.73609 -1.9496,0.73609 -0.8191,0 -1.4767,-0.24153 -1.9497,-0.73609 z m 2.8726,-0.81659 c 0.2192,-0.27604 0.323,-0.66709 0.323,-1.17315 0,-0.52906 -0.1038,-0.92011 -0.323,-1.19614 -0.2077,-0.26454 -0.5192,-0.40255 -0.9345,-0.40255 -0.4037,0 -0.7152,0.13801 -0.9344,0.40255 -0.2077,0.27603 -0.323,0.67858 -0.323,1.19614 0,0.50606 0.1038,0.90861 0.323,1.17315 0.2076,0.26453 0.5191,0.40254 0.9344,0.40254 0.4153,0 0.7268,-0.12651 0.9345,-0.40254 z" fill="#ffffff" id="path19" style="fill:#00084d;fill-opacity:1"/>
    <path d="m 93.630769,3.26634 h 0.6575 0.6576 v 0.75909 c 0.0577,-0.09201 0.1154,-0.17252 0.1731,-0.26453 0.3345,-0.42555 0.8306,-0.64408 1.4766,-0.64408 0.5538,0 0.9806,0.16102 1.2921,0.48306 0.3115,0.32204 0.4615,0.7821 0.4615,1.35717 v 3.50792 h -0.6922 -0.6922 V 5.22158 c 0,-0.32204 -0.0692,-0.56357 -0.2076,-0.71309 -0.1385,-0.16102 -0.3461,-0.23003 -0.6345,-0.23003 -0.3577,0 -0.6346,0.11502 -0.8307,0.32204 -0.1961,0.21853 -0.2884,0.52907 -0.2884,0.93161 v 2.93286 h -0.6922 -0.6922 V 3.26634 Z" fill="#ffffff" id="path20" style="fill:#00084d;fill-opacity:1"/>
    <path d="m 101.97177,9.5462 c 0.381,0 0.669,-0.09201 0.83,-0.28754 0.173,-0.18402 0.254,-0.49456 0.254,-0.92011 V 7.70597 l -0.115,0.17253 c -0.3,0.41405 -0.738,0.62107 -1.304,0.62107 -0.68,0 -1.223,-0.24153 -1.638002,-0.73609 -0.4153,-0.48306 -0.6229,-1.12714 -0.6229,-1.92073 0,-0.8166 0.2076,-1.47218 0.6114,-1.96674 0.403502,-0.49456 0.934502,-0.74759 1.592502,-0.74759 0.588,0 1.038,0.20702 1.361,0.63257 0.058,0.08051 0.115,0.16102 0.161,0.26454 v -0.7591 h 1.304 v 4.9341 c 0,0.82811 -0.208,1.42618 -0.611,1.81727 -0.404,0.391 -1.039,0.5865 -1.904,0.5865 -0.715,0 -1.269,-0.138 -1.696,-0.414 C 99.779668,9.91424 99.548868,9.5347 99.525868,9.05164 h 1.499902 c 0.011,0.17252 0.092,0.31054 0.254,0.37954 0.15,0.08051 0.38,0.11502 0.692,0.11502 z m -0.035,-5.23314 c -0.357,0 -0.634,0.13802 -0.83,0.41405 -0.197,0.27604 -0.3,0.65558 -0.3,1.13864 0,0.47156 0.103,0.8511 0.3,1.11564 0.196,0.26453 0.484,0.39104 0.83,0.39104 0.358,0 0.646,-0.13801 0.842,-0.40254 0.208,-0.27604 0.3,-0.64408 0.3,-1.12714 0,-0.48306 -0.104,-0.85111 -0.3,-1.11564 -0.207,-0.28753 -0.484,-0.41405 -0.842,-0.41405 z" fill="#ffffff" id="path21" style="fill:#00084d;fill-opacity:1"/>
    <path d="m 105.24777,5.07202 h 2.746 v 1.28816 h -2.746 z" fill="#ffffff" id="path22" style="fill:#00084d;fill-opacity:1"/>
    <path d="M 108.99677,8.46498 V 1.43762 h 0.739 0.738 v 5.7737 h 3.507 V 7.8324 8.45347 h -4.984 z" fill="#ffffff" id="path23" style="fill:#00084d;fill-opacity:1"/>
    <path d="m 114.92677,1.38013 h 1.396 v 1.26515 h -1.396 z m 0.012,1.88623 h 0.692 0.692 v 5.19863 h -0.692 -0.692 z" fill="#ffffff" id="path24" style="fill:#00084d;fill-opacity:1"/>
    <path d="m 117.11877,3.26636 h 0.761 0.762 l 1.107,3.87597 h 0.012 l 1.119,-3.87597 h 0.727 0.727 l -1.881,5.19863 h -0.715 -0.715 z" fill="#ffffff" id="path25" style="fill:#00084d;fill-opacity:1"/>
    <path d="m 125.15977,8.60308 c -0.796,0 -1.407,-0.24153 -1.834,-0.73609 -0.427,-0.48305 -0.646,-1.18464 -0.646,-2.08175 0,-0.8281 0.219,-1.48368 0.657,-1.95524 0.439,-0.47155 1.05,-0.70158 1.823,-0.70158 0.796,0 1.408,0.24153 1.846,0.72459 0.427,0.47155 0.646,1.16164 0.646,2.04725 0.012,0.10351 0,0.20702 -0.023,0.31053 h -3.553 c 0.034,0.41405 0.127,0.72459 0.277,0.92011 0.196,0.25304 0.507,0.39105 0.957,0.39105 0.208,0 0.404,-0.0575 0.577,-0.17252 0.173,-0.11501 0.288,-0.25303 0.323,-0.42555 h 1.396 c -0.116,0.52906 -0.392,0.94311 -0.819,1.24215 -0.45,0.28754 -0.981,0.43705 -1.627,0.43705 z m 1.038,-3.27789 c -0.034,-0.31054 -0.115,-0.55207 -0.242,-0.72459 -0.173,-0.23003 -0.45,-0.34504 -0.819,-0.34504 -0.358,0 -0.623,0.12651 -0.808,0.40254 -0.115,0.17253 -0.196,0.40255 -0.253,0.66709 z" fill="#ffffff" id="path26" style="fill:#00084d;fill-opacity:1"/>
    <path d="m 128.53977,3.26634 h 0.658 0.657 v 0.93161 c 0.047,-0.10351 0.104,-0.20702 0.162,-0.29903 0.323,-0.51757 0.738,-0.7821 1.246,-0.7821 h 0.311 v 1.40317 c -0.126,-0.0115 -0.253,-0.023 -0.415,-0.023 -0.415,0 -0.727,0.10351 -0.934,0.31054 -0.208,0.20702 -0.312,0.52906 -0.312,0.94311 v 2.70283 h -0.692 -0.692 V 3.26634 Z" fill="#ffffff" id="path27" style="fill:#00084d;fill-opacity:1"/>
    <path d="m 132.33577,3.26643 h 0.657 0.658 v 0.7706 l 0.092,-0.12652 c 0.369,-0.51756 0.854,-0.78209 1.465,-0.78209 0.658,0 1.189,0.24153 1.592,0.72459 0.404,0.49456 0.6,1.12713 0.6,1.93223 0,0.8396 -0.196,1.52969 -0.6,2.04725 -0.403,0.51756 -0.934,0.77059 -1.592,0.77059 -0.599,0 -1.084,-0.24153 -1.465,-0.72458 l -0.034,-0.03451 v 2.66831 h -0.692 -0.693 V 3.26643 Z m 2.48,4.20952 c 0.369,0 0.658,-0.13802 0.854,-0.41405 0.208,-0.27604 0.311,-0.65558 0.311,-1.15014 0,-0.50607 -0.103,-0.89711 -0.311,-1.17315 -0.208,-0.28753 -0.496,-0.42555 -0.854,-0.42555 -0.369,0 -0.657,0.14952 -0.853,0.43706 -0.197,0.28753 -0.312,0.70158 -0.312,1.21914 0,0.47156 0.104,0.83961 0.312,1.11564 0.207,0.25303 0.484,0.39105 0.853,0.39105 z" fill="#ffffff" id="path28" style="fill:#00084d;fill-opacity:1"/>
    <path d="m 138.78477,7.86699 c -0.485,-0.48305 -0.727,-1.15014 -0.727,-1.97824 0,-0.8511 0.242,-1.51818 0.727,-2.01274 0.484,-0.50606 1.13,-0.74759 1.949,-0.74759 0.82,0 1.477,0.24153 1.95,0.74759 0.485,0.49456 0.715,1.17314 0.715,2.01274 0,0.83961 -0.242,1.49519 -0.715,1.97824 -0.484,0.49456 -1.13,0.73609 -1.95,0.73609 -0.819,0 -1.465,-0.24153 -1.949,-0.73609 z m 2.872,-0.81659 c 0.208,-0.27604 0.323,-0.66709 0.323,-1.17315 0,-0.52906 -0.103,-0.92011 -0.323,-1.19614 -0.207,-0.26454 -0.53,-0.40255 -0.934,-0.40255 -0.404,0 -0.715,0.13801 -0.935,0.40255 -0.219,0.27603 -0.323,0.67858 -0.323,1.19614 0,0.50606 0.104,0.90861 0.323,1.17315 0.208,0.26453 0.52,0.40254 0.935,0.40254 0.415,0 0.727,-0.12651 0.934,-0.40254 z" fill="#ffffff" id="path29" style="fill:#00084d;fill-opacity:1"/>
    <path d="m 144.78377,7.86699 c -0.485,-0.48305 -0.727,-1.15014 -0.727,-1.97824 0,-0.8511 0.242,-1.51818 0.727,-2.01274 0.484,-0.50606 1.13,-0.74759 1.949,-0.74759 0.82,0 1.477,0.24153 1.95,0.74759 0.485,0.49456 0.715,1.17314 0.715,2.01274 0,0.83961 -0.242,1.49519 -0.715,1.97824 -0.484,0.49456 -1.13,0.73609 -1.95,0.73609 -0.819,0 -1.476,-0.24153 -1.949,-0.73609 z m 2.872,-0.81659 c 0.208,-0.27604 0.323,-0.66709 0.323,-1.17315 0,-0.52906 -0.103,-0.92011 -0.323,-1.19614 -0.207,-0.26454 -0.53,-0.40255 -0.934,-0.40255 -0.404,0 -0.715,0.13801 -0.935,0.40255 -0.219,0.27603 -0.323,0.67858 -0.323,1.19614 0,0.50606 0.104,0.90861 0.323,1.17315 0.208,0.26453 0.52,0.40254 0.935,0.40254 0.415,0 0.727,-0.12651 0.934,-0.40254 z" fill="#ffffff" id="path30" style="fill:#00084d;fill-opacity:1"/>
    <path d="m 150.40177,1.43762 h 0.692 0.692 v 7.02736 h -0.692 -0.692 z" fill="#ffffff" id="path31" style="fill:#00084d;fill-opacity:1"/>
    <path d="m 161.59277,5.81966 c 0,1.00062 -0.22,1.72521 -0.67,2.17376 -0.449,0.43705 -1.176,0.66708 -2.18,0.66708 -0.969,0 -1.684,-0.23003 -2.146,-0.69008 -0.461,-0.47156 -0.703,-1.17314 -0.703,-2.13926 V 1.43762 h 0.738 0.738 v 4.42804 c 0,0.50606 0.116,0.88561 0.346,1.12714 0.231,0.25303 0.577,0.37954 1.027,0.37954 0.496,0 0.842,-0.11501 1.05,-0.34504 0.208,-0.23002 0.323,-0.62107 0.323,-1.16164 V 1.43762 h 0.738 0.739 z" fill="#ffffff" id="path32" style="fill:#00084d;fill-opacity:1"/>
    <path d="m 162.91877,3.26634 h 0.658 0.657 v 0.75909 c 0.058,-0.09201 0.116,-0.17252 0.173,-0.26453 0.335,-0.42555 0.831,-0.64408 1.477,-0.64408 0.554,0 0.981,0.16102 1.292,0.48306 0.312,0.32204 0.473,0.7821 0.473,1.35717 v 3.50792 h -0.692 -0.692 V 5.22158 c 0,-0.32204 -0.07,-0.56357 -0.208,-0.71309 -0.138,-0.16102 -0.346,-0.23003 -0.634,-0.23003 -0.358,0 -0.635,0.11502 -0.831,0.32204 -0.196,0.21853 -0.289,0.52907 -0.289,0.93161 v 2.93286 h -0.692 -0.692 z" fill="#ffffff" id="path33" style="fill:#00084d;fill-opacity:1"/>
    <path d="m 168.95277,1.38013 h 1.396 v 1.26515 h -1.396 z m 0.011,1.88623 h 0.692 0.693 v 5.19863 h -0.693 -0.692 z" fill="#ffffff" id="path34" style="fill:#00084d;fill-opacity:1"/>
    <path d="m 171.13277,3.26636 h 0.761 0.762 l 1.107,3.87597 h 0.012 l 1.119,-3.87597 h 0.727 0.726 l -1.892,5.19863 h -0.715 -0.715 z" fill="#ffffff" id="path35" style="fill:#00084d;fill-opacity:1"/>
    <path d="m 179.17377,8.60308 c -0.796,0 -1.407,-0.24153 -1.834,-0.73609 -0.427,-0.48305 -0.646,-1.18464 -0.646,-2.08175 0,-0.8281 0.219,-1.48368 0.657,-1.95524 0.439,-0.47155 1.05,-0.70158 1.823,-0.70158 0.796,0 1.407,0.24153 1.846,0.72459 0.427,0.47155 0.646,1.16164 0.646,2.04725 0.011,0.10351 0,0.20702 -0.023,0.31053 h -3.553 c 0.034,0.41405 0.126,0.72459 0.276,0.92011 0.197,0.25304 0.508,0.39105 0.958,0.39105 0.208,0 0.404,-0.0575 0.577,-0.17252 0.173,-0.11501 0.277,-0.25303 0.323,-0.42555 h 1.396 c -0.116,0.52906 -0.393,0.94311 -0.819,1.24215 -0.439,0.28754 -0.981,0.43705 -1.627,0.43705 z m 1.05,-3.27789 c -0.035,-0.31054 -0.116,-0.55207 -0.254,-0.72459 -0.173,-0.23003 -0.45,-0.34504 -0.819,-0.34504 -0.358,0 -0.623,0.12651 -0.808,0.40254 -0.115,0.17253 -0.196,0.40255 -0.253,0.66709 z" fill="#ffffff" id="path36" style="fill:#00084d;fill-opacity:1"/>
    <path d="m 182.55377,3.26634 h 0.658 0.657 v 0.93161 c 0.047,-0.10351 0.104,-0.20702 0.162,-0.29903 0.323,-0.51757 0.738,-0.7821 1.246,-0.7821 h 0.311 v 1.40317 c -0.115,-0.0115 -0.253,-0.023 -0.415,-0.023 -0.415,0 -0.727,0.10351 -0.934,0.31054 -0.208,0.20702 -0.312,0.52906 -0.312,0.94311 v 2.70283 h -0.692 -0.692 V 3.26634 Z" fill="#ffffff" id="path37" style="fill:#00084d;fill-opacity:1"/>
    <path d="m 189.33777,4.83053 c 0,-0.20703 -0.081,-0.36804 -0.254,-0.48306 -0.162,-0.12651 -0.381,-0.18402 -0.658,-0.18402 -0.265,0 -0.473,0.046 -0.623,0.13802 -0.15,0.08051 -0.219,0.21852 -0.219,0.37954 0,0.11502 0.081,0.21853 0.254,0.29904 0.173,0.08051 0.461,0.16102 0.888,0.25303 0.842,0.19552 1.408,0.40255 1.696,0.62107 0.289,0.21853 0.427,0.57507 0.427,1.04663 0,0.50606 -0.208,0.92011 -0.623,1.23065 -0.415,0.29904 -0.957,0.46006 -1.638,0.46006 -0.808,0 -1.419,-0.14952 -1.858,-0.46006 -0.438,-0.31054 -0.669,-0.74759 -0.692,-1.33416 h 1.396 c 0.012,0.24153 0.116,0.42555 0.323,0.56357 0.208,0.13802 0.485,0.20702 0.831,0.20702 0.277,0 0.496,-0.046 0.646,-0.13801 0.15,-0.09201 0.231,-0.23003 0.231,-0.40255 0,-0.11502 -0.07,-0.21853 -0.231,-0.29904 -0.15,-0.08051 -0.415,-0.16102 -0.796,-0.25303 -0.888,-0.19552 -1.477,-0.40255 -1.777,-0.62108 -0.3,-0.21852 -0.45,-0.55206 -0.45,-1.01212 0,-0.51756 0.196,-0.93161 0.577,-1.25365 0.381,-0.32204 0.889,-0.47156 1.523,-0.47156 0.715,0 1.281,0.16102 1.719,0.47156 0.438,0.31054 0.658,0.72459 0.658,1.23065 h -1.35 z" fill="#ffffff" id="path38" style="fill:#00084d;fill-opacity:1"/>
    <path d="m 191.88677,1.38013 h 1.396 v 1.26515 h -1.396 z m 0.012,1.88623 h 0.692 0.692 v 5.19863 h -0.692 -0.692 z" fill="#ffffff" id="path39" style="fill:#00084d;fill-opacity:1"/>
    <path d="m 196.98577,8.49947 c -0.23,0.023 -0.519,0.023 -0.853,0.023 -0.485,0 -0.842,-0.08051 -1.05,-0.26453 -0.219,-0.17252 -0.323,-0.44856 -0.323,-0.85111 V 4.23245 h -0.727 V 3.26633 h 0.727 V 1.86316 h 1.384 v 1.40317 h 0.842 v 0.96612 h -0.842 v 2.94436 c 0,0.12651 0.035,0.20702 0.104,0.24152 0.069,0.03451 0.219,0.05751 0.45,0.05751 h 0.288 z" fill="#ffffff" id="path40" style="fill:#00084d;fill-opacity:1"/>
    <path d="m 200.63177,8.57998 c -0.3,0.8741 -0.554,1.42612 -0.773,1.65622 -0.219,0.2185 -0.6,0.3335 -1.142,0.3335 l -0.658,-0.0115 V 9.45408 c 0.035,0.0115 0.116,0.02301 0.266,0.02301 0.369,0 0.611,-0.08051 0.715,-0.21853 0.069,-0.09201 0.138,-0.29904 0.207,-0.58657 l -1.949,-5.39416 h 0.761 0.762 l 1.13,3.85297 1.108,-3.85297 h 0.715 0.715 z" fill="#ffffff" id="path41" style="fill:#00084d;fill-opacity:1"/>
    <path d="M 0.49606948,0 C 0.49606948,0 0,3.33541 0,7.98197 0,14.7103 1.0498195,24.1759 6.1950995,30.179705 c 2.94181,3.4389 8.6638695,6.8203 8.6869695,6.8318 0.0231,-0.0115 5.7337,-3.3814 8.687,-6.8318 5.1453,-6.003805 6.1951,-15.469405 6.1951,-22.197735 C 29.752669,3.33541 29.256569,0 29.256569,0 Z" fill="#ffffff" id="path42" style="fill:#00084d;fill-opacity:1"/>
    <path fill-rule="evenodd" clip-rule="evenodd" d="m 4.5811295,3.47351 c -0.01154,0.023 -0.05769,0.0575 -0.1269,0.0575 -0.06922,0 -0.11537,-0.0115 -0.11537,-0.069 -0.01255,0 -0.01903,-0.0015 -0.02494,-0.0029 -0.0104,-0.0024 -0.01905,-0.0045 -0.05582,0.0029 -0.02168,0.0043 -0.07107,0.02002 -0.1255,0.03732 -0.09038,0.02872 -0.19465,0.06187 -0.20905,0.05469 0,0 0.39224,-0.20703 0.48453,-0.20703 0.06684,0 0.12891,0.01907 0.18311,0.03572 0.02999,0.0092 0.05757,0.01769 0.08223,0.02179 0.06922,0.023 0.21919,0.05751 0.23073,0.05751 0.01154,0.0115 -0.01154,0.023 -0.05768,0.023 -0.05769,0.0115 -0.18459,0.0115 -0.26534,-0.0115 z m 1.41899,5.60118 c 0,-0.08051 -0.04615,-0.16102 -0.10383,-0.23003 0,-0.0115 -0.01154,-0.0115 -0.01154,-0.0115 -0.01153,-0.023 -0.02307,-0.04601 -0.03461,-0.05751 l -0.05768,-0.0575 -0.01154,-0.01151 c -0.03461,-0.0345 -0.06922,-0.069 -0.11536,-0.10351 l 0.33456,0.08051 z M 10.891569,3.50801 c -0.8335,0.61882 -2.3417795,0.73482 -3.1522595,0.79715 -0.24397,0.01877 -0.42471,0.03267 -0.50479,0.05396 -0.35763,0.09201 -0.24226,0.34504 -0.24226,0.34504 -0.49607,1.27665 -1.37285,0.64408 -1.37285,0.64408 -0.66912,-0.41405 -0.55375,0.023 -0.28841,0.54056 -1.04982,-0.12651 -0.18458,-1.57569 0.18458,-1.86323 0.39224,-0.29903 0.83063,-1.12713 0.83063,-1.12713 -0.1269,0.14952 -0.5076,0.41405 -1.53435,0.20702 -0.44993,-0.09201 -0.76141,0.18402 -0.76141,0.18402 -1.98428,-0.17252 -1.47668,0.69009 -1.47668,0.69009 0.20766,-0.33354 0.79602,-0.18402 0.79602,-0.18402 0,0.12651 0.05769,0.18402 0.13844,0.21852 -0.01153,0.13802 -0.04614,0.31054 -0.10383,0.48306 -0.03754,-0.0054 -0.09504,-0.02313 -0.15162,-0.04062 v 0 h -1e-5 c -0.0651,-0.02013 -0.12899,-0.03989 -0.15985,-0.03989 -0.07677,0.01178 -0.11122,0.07779 -0.14822,0.14868 -0.03528,0.06762 -0.07289,0.13967 -0.15173,0.17336 0.01154,0.03451 0.09229,0.09201 0.17305,0.10351 -0.07409,0.07386 -0.0705,0.19611 -0.0694,0.23357 l 1.8e-4,0.008 c 0,0.04043 0.01583,0.06112 0.02895,0.07826 0.00928,0.01212 0.01719,0.02247 0.01719,0.03676 v 0.09201 c 0.01039,-0.0052 0.02077,-0.01094 0.03102,-0.01662 0.03531,-0.01958 0.06906,-0.0383 0.09588,-0.02939 0.03461,0.0115 0.12691,0 0.18459,-0.0345 0.03461,-0.023 0.09229,-0.06901 0.1269,-0.16102 0.00577,0.0057 0.01154,0.0086 0.01731,0.0115 0.00576,0.0029 0.01153,0.0058 0.0173,0.0115 0.02194,0.02188 0.04388,0.06224 0.05995,0.09179 0.00927,0.01706 0.01658,0.03052 0.02081,0.03473 0.0117,0 0.01746,-0.02071 0.02482,-0.04712 0.00715,-0.02567 0.0158,-0.05672 0.03286,-0.0794 0.03461,-0.0345 0.09229,-0.16102 0.1269,-0.24153 0.02307,-0.09201 -0.02307,-0.16102 -0.03461,-0.17252 -0.01905,-0.01899 -0.0416,-0.03799 -0.06187,-0.05506 -0.01655,-0.01395 -0.03159,-0.02661 -0.04196,-0.03695 0.05768,-0.14952 0.09229,-0.32204 0.11537,-0.50606 0,0 0.01153,-0.14952 0.01153,-0.23003 0,-0.08051 -0.04614,-0.10351 -0.04614,-0.10351 0.06922,-0.05751 0.1269,0.05751 0.1269,0.05751 v 0.26453 c 0.10383,-0.0115 0.18458,-0.03451 0.18458,-0.03451 0,0 0.63451,-0.06901 0.7268,0.09201 0.09229,0.16102 0.05768,0.57507 -0.5076,1.5872 -0.61144,1.12713 0.04614,2.20827 0.95753,2.67982 0.31148,0.21853 0.94599,0.7936 0.86523,1.54119 0,0 -1.16518,0.24151 -1.21133,0.75911 0,0 0.38071,-0.2645 0.70373,-0.2876 0.59905,-0.0459 0.92201,-0.0115 1.78451,0.0802 l 0.00365,4e-4 c 0,0 -0.473,-0.2761 -0.98061,-0.3681 0,0 -0.23073,-0.85109 0.0923,-1.50667 0.01153,0 0.02307,0 0.0346,-0.0115 0.39225,-0.08051 1.06136,0.29903 1.06136,0.29903 l -0.14997,-0.40254 c 0.71526,0.10351 1.06136,0.94311 1.06136,0.94311 -0.02308,-0.71309 -0.49607,-1.42617 -1.03829,-2.02425 0.04034,0.0058 0.07779,0.01149 0.11524,0.01724 l 1.3e-4,2e-5 c 0.03749,0.0057 0.07498,0.0115 0.11536,0.01725 0.19612,0.0115 0.38071,0 0.56529,-0.023 l -0.2538,-0.96612 0.49607,0.92011 C 8.8727095,7.223 9.2764795,6.92397 9.5995094,6.54442 L 9.0803595,6.02686 9.7379394,6.3834 C 10.003269,6.03836 10.210969,5.64731 10.372469,5.26777 L 9.6802594,4.96873 10.441669,5.08374 c 0.3346,-0.8396 0.4499,-1.57569 0.4499,-1.57569 z m 1.764,21.28869 c -0.0115,0.023 -0.0807,0.0806 -0.1615,0.0806 -0.0807,0 -0.1384,-0.023 -0.1384,-0.0806 -0.012,0 -0.0199,-0.0013 -0.0274,-0.0027 -0.0142,-0.0025 -0.0272,-0.0048 -0.0649,0.0027 -0.0281,0.0056 -0.1161,0.033 -0.2018,0.0596 -0.0906,0.0281 -0.1786,0.0555 -0.1905,0.0555 0,0 0.473,-0.2531 0.5884,-0.2531 0.0766,0 0.1447,0.021 0.207,0.0401 0.041,0.0126 0.0794,0.0244 0.116,0.0289 0.0808,0.023 0.2654,0.069 0.2769,0.069 0.0115,0.0115 -0.0115,0.023 -0.0692,0.0346 -0.0808,0 -0.2308,0 -0.3346,-0.0346 z m 1.719,6.797405 c 0,-0.092 -0.0577,-0.1955 -0.1269,-0.2876 0,-0.003 -8e-4,-0.005 -0.0019,-0.007 -0.0011,-0.002 -0.0025,-0.003 -0.0039,-0.005 -0.0029,-0.003 -0.0058,-0.006 -0.0058,-0.0115 -0.0115,-0.023 -0.0346,-0.046 -0.0461,-0.0575 l -0.0692,-0.069 -0.0116,-0.0115 c -0.0346,-0.0345 -0.0807,-0.0805 -0.1384,-0.12651 l 0.4038,0.10351 z m 5.9297,-6.751305 c -1.0236,0.7609 -2.8859,0.9017 -3.8625,0.9755 -0.2781,0.021 -0.4844,0.0366 -0.579,0.0596 -0.4269,0.115 -0.2884,0.414 -0.2884,0.414 -0.5999,1.5527 -1.6613,0.7821 -1.6613,0.7821 -0.8191,-0.506 -0.6691,0.0345 -0.3461,0.6556 -1.269,-0.161 -0.2192,-1.9092 0.2307,-2.2543 0.473,-0.3565 1.0037,-1.3571 1.0037,-1.3571 -0.15,0.1725 -0.6114,0.4945 -1.8574,0.23 -0.5537,-0.115 -0.9344,0.23 -0.9344,0.23 -2.3996196,-0.207 -1.7766,0.8281 -1.7766,0.8281 0.2538,-0.4025 0.969,-0.207 0.969,-0.207 0,0.1495 0.0808,0.23 0.1731,0.2645 -0.0231,0.1725 -0.0577,0.3796 -0.1385,0.5866 -0.0279,-0.007 -0.0664,-0.0192 -0.1085,-0.0326 v 0 0 c -0.0968,-0.0307 -0.2124,-0.0674 -0.2606,-0.0594 -0.0933,0.0116 -0.1336,0.0879 -0.1774,0.1709 -0.0428,0.0812 -0.0891,0.1688 -0.1918,0.2086 0.0231,0.046 0.1154,0.115 0.2077,0.1266 -0.0869,0.0974 -0.0818,0.256 -0.0809,0.2838 l 10e-5,0.0037 c 0,0.0486 0.0211,0.0763 0.0377,0.0982 0.011,0.0143 0.02,0.0262 0.02,0.0398 0,0.0163 -0.0015,0.0326 -0.0028,0.0479 -0.0025,0.0278 -0.0047,0.0523 0.0028,0.0671 0.0163,-0.0065 0.0325,-0.0139 0.0485,-0.0212 0.0408,-0.0185 0.0799,-0.0363 0.113,-0.0363 0.0346,0.0115 0.15,0 0.2192,-0.0345 0.0461,-0.023 0.1153,-0.092 0.1615,-0.1955 0.0115,0.0115 0.0346,0.023 0.0346,0.023 0.0346,0.0345 0.0923,0.138 0.0923,0.1495 0.012,0 0.0208,-0.0278 0.0314,-0.061 0.0098,-0.0308 0.0211,-0.0664 0.0378,-0.0885 0.0346,-0.046 0.1038,-0.1955 0.15,-0.2991 0.0346,-0.115 -0.0231,-0.1955 -0.0462,-0.207 -0.0115,-0.0115 -0.0243,-0.023 -0.0371,-0.0345 -0.0257,-0.023 -0.0513,-0.046 -0.0667,-0.069 0.0692,-0.184 0.1154,-0.391 0.1385,-0.6096 0,0 0.0115,-0.184 0.0115,-0.276 0,-0.1035 -0.0577,-0.1265 -0.0577,-0.1265 0.0923,-0.069 0.1615,0.069 0.1615,0.069 v 0.322 c 0.1269,-0.0115 0.2192,-0.046 0.2192,-0.046 0,0 0.773,-0.0805 0.8883,0.115 0.1154,0.1956 0.0692,0.6901 -0.6114,1.9323 -0.7499,1.3571 0.0461,2.656795 1.1536,3.231895 0.3692,0.276 1.1422,0.9546 1.0499,1.87471 0,0 -1.419,0.28749 -1.4767,0.92009 0,0 0.4614,-0.31049 0.8537,-0.345 0.7238,-0.0677 1.115,-0.0248 2.1191,0.0853 v 0 l 0.0613,0.007 c 0,0 -0.5768,-0.3336 -1.1883,-0.4486 0,0 -0.2768,-1.0236 0.1154,-1.8287 0.0115,0 0.0231,0 0.0461,-0.0115 0.473,-0.092 1.2921,0.3565 1.2921,0.3565 l -0.1846,-0.483 c 0.8653,0.1265 1.2921,1.1501 1.2921,1.1501 -0.023,-0.86259 -0.5999,-1.7252 -1.2574,-2.449795 l 0.2768,0.0345 c 0.2423,0.023 0.473,0 0.6807,-0.023 l -0.3,-1.1846 0.5999,1.1156 c 0.5999,-0.1725 1.0845,-0.529 1.4882,-0.9891 l -0.6345,-0.6326 0.7961,0.4371 c 0.323,-0.4141 0.5768,-0.8856 0.7729,-1.3457 l -0.8306,-0.368 0.9344,0.138 c 0.3461,-1.0121 0.473,-1.9092 0.473,-1.9092 z m 0.8659,-21.31157 c 0.0692,0 0.1154,-0.0345 0.1269,-0.05751 0.0808,0.02301 0.2077,0.02301 0.2769,0.01151 0.0461,0 0.0692,-0.02301 0.0577,-0.02301 -0.0046,0 -0.0306,-0.0071 -0.0647,-0.0165 -0.0525,-0.01439 -0.1241,-0.03403 -0.166,-0.041 -0.0247,-0.0041 -0.0523,-0.01257 -0.0823,-0.02179 -0.0542,-0.01665 -0.1162,-0.03572 -0.1831,-0.03572 -0.0923,0 -0.4845,0.20702 -0.4845,0.20702 0.0145,0 0.1207,-0.03196 0.2087,-0.05848 0.0517,-0.01557 0.0972,-0.02927 0.1143,-0.03353 0.0368,-0.0073 0.0454,-0.0053 0.0558,-0.0029 0.0059,0.0014 0.0124,0.0029 0.025,0.0029 0,0.05751 0.0461,0.06901 0.1153,0.06901 z m 1.5459,5.47149 V 8.69536 l -0.3345,-0.08051 c 0.0461,0.0345 0.0807,0.06901 0.1153,0.10351 l 0.0116,0.0115 c 0.0081,0.0082 0.0163,0.01486 0.024,0.02114 0.0139,0.01146 0.0262,0.02152 0.0336,0.03637 0.0231,0.0115 0.0346,0.023 0.0462,0.04601 0,0 0.0115,0 0.0115,0.0115 0.0404,0.04829 0.0751,0.10222 0.0923,0.15784 z m 1.7808,-4.69558 c 0.8195,-0.06814 2.2912,-0.19052 3.1107,-0.79891 0,0 -0.1038,0.73609 -0.4384,1.57569 l -0.7614,-0.11501 0.6922,0.31053 c -0.1615,0.36805 -0.3692,0.7591 -0.6345,1.10414 l -0.6576,-0.35654 0.5191,0.51756 c -0.323,0.37954 -0.7268,0.67858 -1.2228,0.8166 l -0.4961,-0.92011 0.2307,0.95461 c -0.1846,0.023 -0.3691,0.03451 -0.5653,0.023 -0.0692,-0.0115 -0.1499,-0.023 -0.2307,-0.0345 0.5538,0.59807 1.0152,1.31116 1.0383,2.02425 0,0 -0.3461,-0.83961 -1.0614,-0.94312 l 0.15,0.40255 c 0,0 -0.6691,-0.37954 -1.0613,-0.29904 -0.0116,0.01151 -0.0231,0.01151 -0.0347,0.01151 -0.323,0.65558 -0.0922,1.50665 -0.0922,1.50665 0.5076,0.092 0.9806,0.3681 0.9806,0.3681 -0.0732,-0.0078 -0.1424,-0.0153 -0.2083,-0.0223 -0.7136,-0.0768 -1.0307,-0.1109 -1.5799,-0.0582 -0.323,0.023 -0.7037,0.2875 -0.7037,0.2875 0.0346,-0.5176 1.2113,-0.75909 1.2113,-0.75909 0.0808,-0.74759 -0.5537,-1.31116 -0.8652,-1.54119 -0.9114,-0.47156 -1.569,-1.55269 -0.9576,-2.66833 0.5653,-1.02362 0.5999,-1.42617 0.5076,-1.58719 -0.0922,-0.16102 -0.7268,-0.09201 -0.7268,-0.09201 0,0 -0.0807,0.023 -0.1845,0.0345 V 3.78426 c 0,0 -0.0577,-0.11501 -0.1269,-0.0575 0,0 0.0461,0.023 0.0461,0.10351 0,0.08051 -0.0115,0.23003 -0.0115,0.23003 -0.0231,0.18402 -0.0577,0.35654 -0.1154,0.50606 0.0161,0.02406 0.0434,0.04811 0.0663,0.06827 0.0099,0.0088 0.019,0.01677 0.026,0.02374 0.0115,0.0115 0.0692,0.08051 0.0346,0.17252 -0.0346,0.08051 -0.0923,0.20702 -0.1269,0.24153 -0.0171,0.02267 -0.0257,0.05373 -0.0329,0.0794 -0.0073,0.02641 -0.0131,0.04711 -0.0248,0.04711 0,-0.0115 -0.0346,-0.09201 -0.0692,-0.12651 -0.0058,-0.0057 -0.0115,-0.0086 -0.0173,-0.0115 -0.0058,-0.0029 -0.0115,-0.0057 -0.0173,-0.0115 -0.0346,0.09201 -0.0923,0.13801 -0.1269,0.16102 -0.0462,0.0345 -0.1384,0.046 -0.1731,0.0345 -0.0193,0 -0.0422,0.01076 -0.0667,0.02227 -0.0194,0.0091 -0.0398,0.01866 -0.0602,0.02374 -0.0071,-0.0071 -0.0054,-0.02301 -0.0031,-0.04497 0.0015,-0.01358 0.0031,-0.02947 0.0031,-0.04705 0,-0.01429 -0.0079,-0.02463 -0.0172,-0.03675 -0.0131,-0.01714 -0.0289,-0.03783 -0.0289,-0.07826 0,-0.023 0,-0.16102 0.0692,-0.24153 -0.0807,-0.0115 -0.1615,-0.06901 -0.1846,-0.10351 0.0798,-0.02839 0.1173,-0.09881 0.1529,-0.16562 0.0366,-0.06853 0.0711,-0.13327 0.1471,-0.14492 0.0357,-0.0071 0.1201,0.02106 0.1957,0.04628 0.0464,0.01549 0.0894,0.02985 0.1158,0.03423 0.0576,-0.17252 0.0923,-0.34504 0.1038,-0.48306 -0.0808,-0.0345 -0.1384,-0.09201 -0.1384,-0.21852 0,0 -0.5884,-0.16102 -0.7961,0.17252 0,0 -0.496,-0.85111 1.4767,-0.67859 0,0 0.323,-0.28753 0.773,-0.19552 1.0267,0.20703 1.4074,-0.05751 1.5343,-0.19552 0,0 -0.4268,0.8166 -0.8306,1.11563 -0.3692,0.28754 -1.2344,1.73671 -0.1846,1.86323 -0.2653,-0.51756 -0.3807,-0.95462 0.2884,-0.54057 0,0 0.8768,0.63258 1.3729,-0.64408 0,0 -0.1154,-0.24152 0.2422,-0.33354 0.0846,-0.02529 0.2814,-0.04165 0.5464,-0.06369 z" fill="#010544" id="path43" style="fill:#ffffff"/>
    <path d="m 14.859369,8.78711 c 0.0113,0.01114 0.0225,0.02227 0.045,0.02227 -0.0225,0 -0.0337,0 -0.045,-0.02227 z" fill="#010544" id="path44" style="fill:#ffffff"/>
    <path d="m 20.443669,14.5268 0.7153,-0.069 c 0,-0.0345 0.0115,-0.6786 0.0115,-0.7246 l -0.7268,-0.0805 c -0.0231,-0.23 -0.0577,-0.483 -0.0577,-0.5751 l 0.6576,-0.253 -0.1846,-0.7246 -0.7152,0.1265 c -0.0923,-0.322 -0.0692,-0.23 -0.2192,-0.529 l 0.5768,-0.4141 -0.3692,-0.6441 -0.646,0.2991 c -0.0692,-0.1035 -0.1384,-0.2415 -0.3576,-0.4486 l 0.4499,-0.55204 c -0.0462,-0.0345 -0.473,-0.47155 -0.5192,-0.51756 l -0.5768,0.42555 c -0.2076,-0.19552 -0.3461,-0.27603 -0.4384,-0.36804 l 0.2884,-0.62108 -0.646,-0.37954 -0.4038,0.58657 c -0.2769,-0.18402 -0.5422,-0.23003 -0.5422,-0.23003 l 0.1154,-0.70159 -0.7153,-0.18402 -0.2538,0.65558 c 0,0 -0.2192,-0.046 -0.5768,-0.06901 l -0.0692,-0.67858 -0.7384,-0.023 -0.0692,0.71308 h -0.0808 c -0.3114,0.02301 -0.1961,-0.0115 -0.4845,0.06901 l -0.2653,-0.66708 -0.7153,0.20703 0.1154,0.67858 c 0,0 -0.2192,0.08051 -0.5192,0.23003 l -0.4499,-0.55207 c -0.1038,0.05751 -0.5076,0.29904 -0.6114,0.35654 l 0.2769,0.63258 c -0.1616,0.11502 -0.3346,0.24153 -0.4615,0.36805 l -0.5422,-0.44856 -0.5192,0.50606 0.45,0.54054 c -0.1616,0.161 -0.1154,0.1265 -0.3692,0.4716 L 9.6224494,10.6393 9.2648195,11.2834 9.8301094,11.686 c -0.04615,0.1035 -0.17305,0.3105 -0.24227,0.552 L 8.8956495,12.1345 c -0.03461,0.138 -0.14997,0.5521 -0.18458,0.6901 -0.01154,0 0.6575799,0.253 0.6575799,0.253 -0.05768,0.2416 -0.04615,0.4601 -0.06922,0.5751 l -0.70373,0.0575 v 0.7591 l 0.70373,0.046 c -0.01154,0.184 0.05768,0.4371 0.06922,0.5981 l -0.6575799,0.253 0.19612,0.7131 0.6806499,-0.115 c -0.03461,-0.092 0.08076,0.2185 0.2192,0.5176 l -0.5537599,0.437 0.3691699,0.6326 0.6460196,-0.276 c 0.1961,0.276 0.4384,0.5635 0.3461,0.4485 l -0.4384,0.5406 0.5076,0.5175 0.5423,-0.437 c 0.0922,0.092 0.2538,0.207 0.4499,0.3335 l -0.2654,0.6441 c 0.1269,0.069 0.5192,0.3105 0.5999,0.023 l 0.4154,-0.5751 c 0.323,0.4946 0.5191,0.2301 0.5191,0.2301 l -0.0808,-0.046 0.7038,0.184 0.2307,0.0805 c 0.323,0.0805 0.2769,0.4025 0.623,0.4255 l 0.0692,0.7016 h 0.7499 l 0.0807,-0.7016 c 0.3346,-0.023 0.2538,0 0.5653,-0.0805 l 0.2538,-0.299 0.4384,-0.046 0.2538,0.046 c 0.1615,-0.046 0.2653,-0.0345 0.4499,-0.1265 l 0.4269,0.5636 c 0.1384,-0.0806 0.496,-0.2876 0.6229,-0.3681 l -0.2884,-0.6326 c 0.2077,-0.138 0.3807,-0.2645 0.473,-0.3565 l 0.5422,0.437 0.5192,-0.5175 -0.4615,-0.5521 c 0.2423,-0.2415 0.1615,-0.1955 0.3577,-0.46 l 0.646,0.299 0.3692,-0.6441 -0.5653,-0.414 c 0.1384,-0.2876 0.1269,-0.2301 0.2192,-0.5521 l 0.6922,0.138 0.2076,-0.7131 -0.6576,-0.253 c 0,-0.092 0.0346,-0.345 0.0577,-0.5866 z m -5.6298,4.5891 c -1.1998,0 -2.3073,-0.4141 -3.1725,-1.1272 h 6.345 c -0.8537,0.7016 -1.9612,1.1272 -3.1725,1.1272 z m 3.484,-1.3917 h -6.9565 c -0.969,-0.9201 -1.5689396,-2.2083 -1.5689396,-3.6344 0,-2.7719 2.2611396,-5.02614 5.0414396,-5.02614 2.7918,0 5.0415,2.25424 5.0415,5.02614 0.0115,1.4261 -0.5999,2.7143 -1.5575,3.6344 z" fill="#010544" id="path45" style="fill:#ffffff"/>
    <path d="m 17.062869,12.9162 0.3807,-0.253 -1.2113,-1.8632 c 0,0 -0.2884,-0.0345 -0.3807,0.276 0.2077,0.322 1.2113,1.8402 1.2113,1.8402 z" fill="#010544" id="path46" style="fill:#ffffff"/>
    <path d="m 14.835969,12.7432 h 0.5422 l -0.0116,-2.4498 c 0,0 -0.2884,-0.2185 -0.5306,0 0,0.3796 0,2.4498 0,2.4498 z" fill="#010544" id="path47" style="fill:#ffffff"/>
    <path d="m 15.448169,12.7439 h 0.45 v -2.2773 c 0,0 -0.2077,-0.207 -0.4384,0.0115 -0.0231,0.3681 -0.0116,2.2658 -0.0116,2.2658 z" fill="#010544" id="path48" style="fill:#ffffff"/>
    <path d="m 14.708969,10.7882 c -0.1961,-0.2071 -0.3461,-0.1035 -0.3576,-0.092 0,0.0115 -0.1385,0.1035 -0.1385,0.1035 0,0 -0.7383,0 -0.9921,0.0575 -0.2423,0.0575 -0.6114,0.115 -0.623,0.115 -0.0115,0 0.0346,0.0115 -0.0115,0.1035 -0.0462,0.092 -0.1038,0.207 -0.1038,0.207 0,0 0.6345,-0.184 0.9113,-0.207 0.2769,-0.023 0.6692,-0.0345 0.6807,-0.023 0,0.0115 -0.7153,0.0805 -0.7153,0.0805 l 0.0808,0.0805 1.0383,0.0115 c 0.0115,0.0115 0.3807,-0.0805 0.2307,-0.437 z m -0.1731,0.2415 c -0.1384,0.115 -0.1615,0.0575 -0.1615,0.0575 0,-0.0115 0.0693,-0.0575 0.1039,-0.092 0.0346,-0.0345 0,-0.0575 -0.0462,-0.1035 -0.0461,-0.0345 0.0116,-0.046 0.0116,-0.046 0.0576,0.0115 0,0 0.0922,0.023 0.0923,0.023 0,0.161 0,0.161 z" fill="#010544" id="path49" style="fill:#ffffff"/>
    <path d="m 12.943369,11.7198 h 1.7766 v -0.46 h -1.7766 z m 1.6036,-0.0575 h -0.0231 v -0.345 h 0.0231 z" fill="#010544" id="path50" style="fill:#ffffff"/>
    <path d="m 12.943369,12.7667 h 1.7766 v -0.4601 h -1.7766 z m 1.6036,-0.0575 h -0.0231 v -0.3566 h 0.0231 z" fill="#010544" id="path51" style="fill:#ffffff"/>
    <path d="m 12.943369,12.2491 h 1.7766 v -0.46 h -1.7766 z m 1.6036,-0.0575 h -0.0231 v -0.345 h 0.0231 z" fill="#010544" id="path52" style="fill:#ffffff"/>
    <path d="m 11.652369,16.8843 0.1961,0.0805 1.3959,-3.8069 -0.1961,-0.069 z" fill="#010544" id="path53" style="fill:#ffffff"/>
    <path d="m 12.241269,17.0565 -0.8883,-0.368 c -0.0346,0.023 -0.0807,0.0345 -0.1269,0.0345 -0.0346,0 -0.0577,0 -0.0807,-0.0115 l -0.1962,0.483 c 0.0577,0.0345 0.1039,0.0805 0.1039,0.1496 l 0.9229,0.3795 c 0.0461,-0.0345 0.1038,-0.0345 0.1615,-0.0115 l 0.1961,-0.4946 c -0.0461,-0.0345 -0.0807,-0.092 -0.0923,-0.161 z" fill="#010544" id="path54" style="fill:#ffffff"/>
    <path d="m 13.163369,15.9411 0.4499,-0.276 c 0,0 0.7499,-1.1502 -0.5653,-1.5757 0.1961,-0.7131 0.2538,-0.8856 0.2538,-0.8856 0,0 0.0346,-0.1381 -0.0923,-0.1726 -0.1269,-0.046 -0.173,0 -0.2192,0.0691 -0.0461,0.1265 -0.346,0.8856 -0.346,0.8856 l -0.3692,-0.046 c 0,0 -0.3807,-0.023 -0.3576,-0.4486 -0.0231,-0.4946 -0.0347,-0.6671 -0.0347,-0.6671 h 4.5685 l 0.1154,0.138 v 1.1617 c 0,0 -0.773,0.1725 -0.5884,0.8281 0.173,0.6901 0.3576,0.7706 0.5191,0.8626 0.1616,0.092 0.1846,0.115 0.1846,0.115 z" fill="#010544" id="path55" style="fill:#ffffff"/>
    <path d="m 13.175569,16.0213 c 0,0 -0.1846,-0.046 -0.1731,0.1265 v 0.253 l 0.1384,0.0115 c 0,0 0.0116,-0.0345 0.1039,-0.0345 0.0923,0 3.4263,-0.0115 3.4263,-0.0115 0,0 -0.0115,-0.0115 0.0577,0.023 h 0.1038 v -0.2875 c 0,0 0.0346,-0.092 -0.1961,-0.092 -0.2538,0 -3.4609,0.0115 -3.4609,0.0115 z" fill="#010544" id="path56" style="fill:#ffffff"/>
    <path d="m 18.517369,13.3303 v -0.161 c 0.0807,-0.0805 0.1615,-0.1611 0.2422,-0.2531 -0.0922,0 -0.1845,0 -0.2653,0 -0.0461,-0.0575 -0.1269,-0.092 -0.1961,-0.092 0,0 -0.1961,0.0115 -0.1961,0.092 -1.3959,0 -1.4536,-0.0115 -1.4536,-0.0115 l 0.0115,1.1502 c 0,0 0.7268,0.023 1.5805,-0.6441 l 0.0115,0.0115 v 0.3795 c -0.1038,0 -0.1845,0.0805 -0.1845,0.1841 v 0.437 c 0,0.1035 0.0807,0.184 0.1845,0.184 V 14.86 c -0.1038,0 -0.1845,0.0805 -0.1845,0.184 v 0.437 c 0,0.1036 0.0807,0.1841 0.1845,0.1841 h 0.1154 c 0.1038,0 0.1731,-0.0805 0.1731,-0.1841 v -0.437 c 0,-0.092 -0.0693,-0.1725 -0.1731,-0.184 v -0.2531 c 0.0923,-0.0115 0.1731,-0.0805 0.1731,-0.184 v -0.437 c 0,-0.0921 -0.0693,-0.1726 -0.1731,-0.1841 v -0.322 c 0.0808,0 0.15,-0.069 0.15,-0.1495 z m -0.0923,1.7827 v 0.3105 c 0,0.069 -0.0462,0.1266 -0.0923,0.1266 h -0.0692 c -0.0577,0 -0.0923,-0.0576 -0.0923,-0.1266 V 15.113 c 0,-0.0575 0.0346,-0.1035 0.0692,-0.1265 v 0.069 c 0,0.0115 0.0115,0.023 0.0115,0.023 h 0.0923 c 0.0116,0 0.0116,-0.0115 0.0116,-0.023 v -0.069 c 0.0461,0.023 0.0692,0.0805 0.0692,0.1265 z m 0,-1.0581 v 0.3105 c 0,0.0575 -0.0231,0.1035 -0.0577,0.115 v -0.0805 c 0,-0.0115 -0.0115,-0.023 -0.0115,-0.023 h -0.0923 c -0.0116,0 -0.0116,0.0115 -0.0116,0.023 v 0.092 c -0.0461,-0.0115 -0.0692,-0.069 -0.0692,-0.1265 v -0.3105 c 0,-0.0575 0.0346,-0.1035 0.0692,-0.1265 v 0.092 c 0,0.0115 0.0116,0.0115 0.0116,0.0115 h 0.0923 c 0.0115,0 0.0115,-0.0115 0.0115,-0.0115 v -0.092 c 0.0346,0.023 0.0577,0.069 0.0577,0.1265 z" fill="#010544" id="path57" style="fill:#ffffff"/>
    <path d="m 17.443269,16.459 h -5.0761 v 1.1271 h 5.0761 z" fill="#010544" id="path58" style="fill:#ffffff"/>
    <path fill-rule="evenodd" clip-rule="evenodd" d="m 21.528069,20.3921 h 0.3114 l 0.45,-0.0115 v 0.5521 1.2651 c 0,0 -1.419,1.0236 -3.311,-0.23 -1.892,-1.2537 -3.2302,-1.6792 -4.0839,0.6096 l 0.0129,-0.3472 -0.0243,0.3474 c -0.8537,-2.2888 -2.1919,-1.8632 -4.0839,-0.6096 -1.8919995,1.2537 -3.3109895,0.23 -3.3109895,0.23 v -1.2651 -0.5521 l 0.74987,0.023 v -0.8626 c 0,0 0.08076,0.0575 0.84217,0.6326 0.2768799,0.207 0.6345099,0.253 0.9921495,0.069 0.4746,-0.2514 0.8634,-0.536 1.3228,-0.8723 0.2551,-0.1868 0.5321,-0.3896 0.8576,-0.6114 1.3613,-0.9316 2.5265,1.3572 2.5265,1.3572 v -0.0115 h 0.2074 l 10e-5,-2e-4 c 0,0 1.1651,-2.2888 2.5264,-1.3572 0.3003,0.2073 0.5608,0.3979 0.802,0.5744 0.4816,0.3524 0.8865,0.6487 1.3784,0.9093 0.3577,0.1955 0.7038,0.138 0.9922,-0.069 0.7614,-0.5751 0.8422,-0.6326 0.8422,-0.6326 z" fill="#010544" id="path59" style="fill:#ffffff"/>
    <path fill-rule="evenodd" clip-rule="evenodd" d="m 13.113169,19.4209 0.0045,0.0165 v 0 c 0.023,0.138 0.0346,0.207 0.0807,0.368 0.0231,0.161 0.0692,0.2646 0.15,0.3336 0.0692,0.069 0.1615,0.092 0.2538,0.1035 0.1038,0.0115 0.1961,0 0.2423,-0.0575 0.0577,-0.069 0.0577,-0.1726 0.0461,-0.2991 -0.0057,-0.0287 -0.0086,-0.0488 -0.0115,-0.069 v 0 0 0 0 c -0.0029,-0.0201 -0.0058,-0.0402 -0.0116,-0.069 -0.023,-0.1035 -0.0346,-0.207 -0.023,-0.23 0.0115,-0.023 0.023,-0.023 0.0577,-0.0115 h 0.023 c 0.0116,-0.0115 0,-0.0345 -0.0115,-0.046 -0.0231,-0.0154 -0.0564,-0.0307 -0.0897,-0.046 v 0 c -0.0167,-0.0077 -0.0334,-0.0154 -0.0487,-0.023 -0.0094,-0.0047 -0.0206,-0.0107 -0.0328,-0.0173 -0.0483,-0.0261 -0.1127,-0.0609 -0.1403,-0.0517 0,0 0,0.023 0.0115,0.046 0.0116,0 0.0231,0 0.0347,0.0115 0.0082,0.0055 0.0165,0.0103 0.0245,0.015 v 0 0 0 c 0.0253,0.0148 0.0474,0.0277 0.0562,0.054 0.0231,0.046 0.0462,0.1495 0.0577,0.253 0.0058,0.0345 0.0086,0.0575 0.0115,0.0805 v 0 0 0 c 0.0029,0.023 0.0058,0.046 0.0116,0.0805 0.023,0.1841 -0.0116,0.3221 -0.1731,0.2991 -0.1961,-0.023 -0.2422,-0.2071 -0.2653,-0.3796 v 0 c -0.0231,-0.138 -0.0346,-0.207 -0.0577,-0.3335 -0.0231,-0.1265 -0.0115,-0.138 0.0461,-0.138 h 0.0347 c 0.0115,-0.0115 -10e-5,-0.046 -0.0116,-0.046 -0.0278,-0.0139 -0.0723,-0.0152 -0.1185,-0.0166 -0.0304,-9e-4 -0.0616,-0.0019 -0.0891,-0.0064 -0.0693,-0.0115 -0.1616,-0.0231 -0.2077,-0.0116 -0.0115,0 0,0.0346 0.0115,0.0461 0.0116,0.0115 0.0231,0.0115 0.0346,0.0115 0.0661,0.0109 0.0691,0.0219 0.0994,0.133 z m -0.4223,0.5801 c 0.0115,0.069 0.0346,0.115 0.0577,0.1381 0.023,0.023 0.0461,0.023 0.1384,0.0115 0.1154,-0.023 0.1384,-0.0461 0.1961,-0.1956 0,-0.0115 0.0462,-0.0115 0.0462,0 0.023,0.0575 0,0.2301 -0.0116,0.2416 -0.0102,0.0051 -0.0479,0.0079 -0.0958,0.0115 -0.0596,0.0045 -0.135,0.0102 -0.1926,0.023 -0.0692,0.0115 -0.1038,0.023 -0.173,0.046 -0.0176,0.007 -0.0373,0.0172 -0.0582,0.028 -0.0476,0.0247 -0.1013,0.0525 -0.1495,0.0525 -0.0115,0 -0.0231,-0.0345 -0.0115,-0.046 0.0115,-0.0058 0.0173,-0.0115 0.023,-0.0173 0.0058,-0.0057 0.0116,-0.0115 0.0231,-0.0172 0.0577,-0.0345 0.0577,-0.046 0.0346,-0.1841 -0.0404,-0.1532 -0.0639,-0.2556 -0.0902,-0.3705 v 0 -10e-5 0 0 0 -10e-5 c -0.0112,-0.0489 -0.0229,-0.1 -0.0367,-0.1583 -0.0346,-0.1265 -0.0461,-0.1265 -0.1038,-0.1035 -0.0115,0.0115 -0.0231,0.0115 -0.0461,0.0115 -0.0116,0 -0.0231,-0.0345 -0.0116,-0.046 0.0482,-0.0289 0.1125,-0.0497 0.1727,-0.0691 l 0.035,-0.0114 c 0.0205,-0.0069 0.0421,-0.0157 0.0634,-0.0245 v 0 c 0.0507,-0.0208 0.1002,-0.0411 0.1327,-0.0331 0.0115,0 0.0231,0.0346 0.0115,0.0461 -0.0057,0 -0.0115,0.0028 -0.0173,0.0057 -0.0057,0.0029 -0.0115,0.0058 -0.0173,0.0058 -0.0577,0.023 -0.0577,0.0345 -0.023,0.161 0.0346,0.184 0.0576,0.2875 0.1038,0.4945 z m -1.0857,-0.1379 c 0.0346,-0.023 0.0346,-0.023 0.0462,0.0115 0.0692,0.207 0.1153,0.345 0.2192,0.5981 0.0461,0.138 0.0461,0.1495 -0.0116,0.1955 v 0 c -0.0231,0.023 -0.0346,0.0345 -0.0577,0.046 -0.0115,0.0115 0,0.046 0.0116,0.046 0.0434,-0.0144 0.096,-0.0561 0.1433,-0.0936 0.0281,-0.0222 0.0544,-0.0431 0.0759,-0.0559 0.0266,-0.0212 0.063,-0.04 0.099,-0.0586 v 0 0 0 c 0.0421,-0.0217 0.0838,-0.0431 0.1086,-0.0679 0.0116,-0.0115 0,-0.046 -0.0115,-0.046 -0.0116,0.0057 -0.0202,0.0086 -0.0289,0.0115 -0.0086,0.0029 -0.0173,0.0057 -0.0288,0.0115 -0.0692,0.0345 -0.0808,0.023 -0.1154,-0.1035 -0.0581,-0.2126 -0.1,-0.3441 -0.153,-0.5103 l -0.0315,-0.0993 v 0 c -0.0055,-0.0164 -0.0084,-0.025 -0.0062,-0.032 0.0024,-0.0077 0.0111,-0.0135 0.0292,-0.0255 v 0 c 0.0231,-0.0115 0.0462,-0.023 0.0808,-0.046 0.099,-0.0494 0.1385,-0.0056 0.1769,0.0369 0.0063,0.007 0.0126,0.014 0.0192,0.0206 0,0 0.0461,-0.023 0.0461,-0.0345 -0.0031,-0.0156 -0.007,-0.0379 -0.0114,-0.0624 v 0 c -0.0117,-0.066 -0.0263,-0.1478 -0.0347,-0.1561 0,-0.0115 -0.0115,-0.0115 -0.0231,0 l -0.0115,0.0115 c -0.0115,0.0115 -0.0346,0.0345 -0.1269,0.092 -0.1453,0.0838 -0.2399,0.1475 -0.3442,0.2177 -0.0532,0.0357 -0.1088,0.0731 -0.175,0.1158 -0.0898,0.0498 -0.1019,0.0479 -0.111,0.0464 -0.0014,-2e-4 -0.0028,-4e-4 -0.0043,-4e-4 -0.0058,0 -0.0087,0.0029 -0.0116,0.0058 -0.0028,0.0028 -0.0057,0.0057 -0.0115,0.0057 0,0.0058 -0.0029,0.0086 -0.0058,0.0115 -0.0028,0.0029 -0.0057,0.0058 -0.0057,0.0115 0,0.023 0.0115,0.161 0.0346,0.2185 0,0 0.0461,-0.0115 0.0461,-0.023 0.0059,-0.0204 0.0095,-0.0415 0.0132,-0.0628 0.0107,-0.0628 0.0218,-0.1272 0.0907,-0.1787 0.0173,-0.0115 0.0288,-0.0201 0.0403,-0.0287 v 0 c 0.0116,-0.0087 0.0231,-0.0173 0.0404,-0.0288 z m -0.519,0.4939 c -0.0346,-0.115 -0.0461,-0.115 -0.1038,-0.092 -0.0115,0.0115 -0.0231,0.0115 -0.0461,0.0115 v 0 c -0.0116,0 -0.0231,-0.0345 -0.0116,-0.0345 0.027,-0.0269 0.0657,-0.0459 0.1025,-0.064 0.0262,-0.0128 0.0514,-0.0252 0.0706,-0.0395 0.0131,-0.0098 0.028,-0.0224 0.0438,-0.0357 v 0 0 0 c 0.0398,-0.0334 0.0846,-0.0711 0.1177,-0.0794 0.0115,0 0.0231,0.023 0.0115,0.0345 l -0.023,0.023 c -0.0462,0.046 -0.0462,0.0461 -0.0116,0.1726 0.0232,0.0741 0.0446,0.1351 0.0656,0.1951 v 0 0 0 0 c 0.0311,0.089 0.0615,0.1758 0.0959,0.2994 0.0346,0.1035 0.0577,0.2071 0.0577,0.2761 0,0.1265 -0.0692,0.253 -0.2423,0.345 -0.0461,0.023 -0.1153,0.046 -0.1269,0.0115 0,-0.023 0.0116,-0.0575 0.0231,-0.0805 l 0.0346,-0.0345 c 0.0231,-0.0115 0.0462,-0.0115 0.0808,-0.0115 h 0.0692 c 0.0346,-0.0115 0.0231,-0.069 0.0115,-0.115 0,-0.023 -0.023,-0.115 -0.0692,-0.2646 -0.0491,-0.1761 -0.0814,-0.2856 -0.1255,-0.4348 z m -0.8522,1.2085 c 0.0692,-0.0575 0.1038,-0.115 0.1384,-0.1955 0.0202,-0.0402 0.0442,-0.1078 0.07,-0.1799 v 0 0 c 0.0184,-0.0516 0.0376,-0.1057 0.0569,-0.1537 0.0115,-0.023 0.0115,-0.046 0.0115,-0.0575 0,-0.0115 -0.0115,-0.023 -0.023,-0.0345 -0.0462,-0.046 -0.1385,-0.138 -0.2077,-0.1955 -0.0346,-0.023 -0.0577,-0.023 -0.1038,0 -0.0115,0.0115 -0.0115,0.0115 -0.0231,0.0115 v 0 c -0.0115,0 -0.0115,-0.0345 0,-0.046 0.0231,-0.023 0.1038,-0.069 0.1731,-0.1035 0.028,-0.0175 0.0517,-0.0328 0.0722,-0.046 v 0 c 0.047,-0.0303 0.0767,-0.0495 0.1008,-0.0575 0.0115,0 0.0231,0.023 0.0115,0.0345 l -0.023,0.023 c -0.0231,0.0115 -0.0346,0.0345 -0.0346,0.046 0,0.0115 0.0115,0.023 0.023,0.0345 0.0462,0.046 0.1269,0.1265 0.1385,0.1265 0.0164,0 0.0386,-0.0929 0.0584,-0.1756 0.008,-0.0337 0.0157,-0.0656 0.0223,-0.0889 0.0081,-0.0241 0.0049,-0.0314 0.0022,-0.0375 -0.0011,-0.0026 -0.0022,-0.005 -0.0022,-0.0085 0,0 -0.0115,-0.0115 -0.023,0 -0.0058,0 -0.0116,0.0028 -0.0173,0.0057 -0.0058,0.0029 -0.0116,0.0058 -0.0174,0.0058 -0.0115,0 -0.0115,-0.0345 0,-0.046 0.0113,-0.0112 0.0307,-0.0197 0.053,-0.0294 0.0235,-0.0103 0.0503,-0.0219 0.0739,-0.0396 0.0242,-0.0145 0.0443,-0.029 0.0621,-0.0417 0.0246,-0.0177 0.0447,-0.0322 0.0648,-0.0389 0.0116,0 0.0231,0.023 0.0116,0.0345 -0.0058,0.0058 -0.0115,0.0087 -0.0173,0.0116 -0.0058,0.0028 -0.0116,0.0057 -0.0173,0.0115 -0.019,0.0094 -0.0302,0.0267 -0.0464,0.0517 l -0.0113,0.0173 c -0.0129,0.0342 -0.0274,0.0716 -0.0429,0.1117 v 0 c -0.0261,0.0675 -0.055,0.1424 -0.084,0.2218 -0.0115,0.023 -0.0115,0.0575 -0.0115,0.0575 0,0.0115 0.0115,0.023 0.023,0.0345 0.1269,0.1035 0.2192,0.184 0.2769,0.2415 0.0692,0.046 0.1038,0.046 0.15,0.023 v 0 c 0.0231,-0.0115 0.0231,-0.0115 0.0461,-0.0115 0.0116,0 0.0231,0.0345 0.0116,0.046 -0.0244,0.0183 -0.0553,0.0301 -0.0961,0.0457 v 0 0 0 c -0.0362,0.0139 -0.0803,0.0308 -0.1347,0.0579 -0.0431,0.0215 -0.0838,0.0455 -0.1207,0.0673 -0.042,0.0249 -0.0793,0.0469 -0.11,0.0592 -0.0115,0 -0.0231,-0.023 -0.0115,-0.046 0.0057,-0.0058 0.0115,-0.0087 0.0173,-0.0115 0.0057,-0.0029 0.0115,-0.0058 0.0173,-0.0115 0.0346,-0.023 0.0461,-0.0345 0.0461,-0.046 0,-0.0115 -0.0115,-0.023 -0.0577,-0.0575 -0.023,-0.023 -0.1615,-0.1496 -0.173,-0.1496 -0.0157,0 -0.0472,0.1111 -0.0767,0.2149 -0.014,0.0493 -0.0275,0.0969 -0.0387,0.1302 -0.0115,0.023 -0.0115,0.0345 -0.0115,0.0345 0,0.0115 0.0115,0.0115 0.0461,0 0.0116,-0.0115 0.0231,-0.0115 0.0346,-0.0115 0.0116,0 0.0116,0.0345 0,0.046 -0.0254,0.019 -0.0614,0.0346 -0.0983,0.0505 -0.0299,0.0129 -0.0604,0.026 -0.0862,0.0415 -0.0271,0.0135 -0.0581,0.0348 -0.0837,0.0525 -0.0182,0.0126 -0.0337,0.0232 -0.0432,0.028 -0.0116,0 -0.0116,-0.023 -0.0116,-0.0345 0.0196,-0.0065 0.0281,-0.013 0.0339,-0.0174 0.0044,-0.0034 0.0073,-0.0056 0.0123,-0.0056 z m 6.5396,-1.4839 c 0.1014,0.0112 0.1148,5e-4 0.1691,-0.0428 l 0.004,-0.0032 c 0.0115,-0.0115 0.0461,0 0.0461,0.023 0,0.069 -0.0692,0.1955 -0.0923,0.1955 -0.0126,0.0063 -0.0427,-0.0012 -0.0825,-0.0112 -0.0327,-0.0082 -0.072,-0.0181 -0.1136,-0.0233 -0.0923,-0.0115 -0.1384,-0.0115 -0.2307,-0.0115 -0.0808,0 -0.1385,0.0115 -0.1615,0.023 -0.0116,0 -0.0231,-0.0115 -0.0231,-0.023 0.0154,-0.0205 0.0468,-0.0478 0.0861,-0.0819 0.0489,-0.0426 0.1101,-0.0958 0.1677,-0.1596 0.1154,-0.115 0.2192,-0.2415 0.2423,-0.4141 0.0115,-0.1035 -0.0462,-0.1955 -0.1615,-0.184 -0.0923,0.0115 -0.1731,0.1035 -0.2308,0.1725 -0.0115,0.0231 -0.0577,0.0115 -0.0577,0 0.0231,-0.138 0.2654,-0.299 0.4154,-0.2875 0.1845,0 0.2768,0.138 0.2538,0.2875 -0.0116,0.1151 -0.0693,0.1956 -0.2654,0.3451 -0.0173,0.0115 -0.0288,0.0201 -0.0404,0.0287 -0.0115,0.0087 -0.023,0.0173 -0.0403,0.0288 -0.0693,0.0575 -0.0808,0.0805 -0.0808,0.092 0,0.0115 0,0.023 0.0231,0.023 0.0388,0.0065 0.0632,0.0093 0.0913,0.0126 0.022,0.0025 0.0463,0.0054 0.0817,0.0104 z m 0.5887,0.3213 c 0.2192,0.0805 0.3,-0.115 0.323,-0.3795 0.0231,-0.2416 -0.023,-0.5406 -0.2307,-0.6096 -0.1961,-0.069 -0.323,0.161 -0.3576,0.4025 -0.0346,0.2531 0.0577,0.5061 0.2653,0.5866 z m 0.1412,-0.3876 c -0.0213,0.1525 -0.0503,0.3603 -0.1412,0.3301 -0.0923,-0.0345 -0.0923,-0.3105 -0.0692,-0.46 l 0.0025,-0.0151 c 0.0239,-0.1435 0.07,-0.4208 0.159,-0.3875 0.0923,0.0345 0.0692,0.3335 0.0577,0.4716 -0.0029,0.0186 -0.0057,0.0391 -0.0088,0.0608 z m 0.8281,0.3536 c -0.0346,0.2646 -0.1269,0.4486 -0.3345,0.3221 -0.2077,-0.1265 -0.2654,-0.3796 -0.2423,-0.6326 0.0231,-0.253 0.1154,-0.4716 0.3115,-0.368 0.1846,0.092 0.2884,0.4255 0.2653,0.6785 z m -0.2079,-0.0999 v 0 l 3e-4,-0.0036 c 0.0115,-0.1495 0.0115,-0.46 -0.0808,-0.506 -0.0923,-0.046 -0.1269,0.2415 -0.1384,0.391 l -2e-4,0.0386 c -0.0011,0.1389 -0.0029,0.3818 0.0809,0.4445 0.103,0.057 0.1265,-0.2251 0.1382,-0.3645 z m 0.8994,-0.0843 c -0.1038,-0.1035 -0.2999,-0.115 -0.4037,-0.0575 -0.1154,0.0575 -0.2077,0.207 -0.2308,0.4141 -0.023,0.253 0.0577,0.483 0.2423,0.6095 0.1615,0.115 0.3115,0.069 0.3346,-0.1495 0.0115,-0.161 -0.0462,-0.368 -0.1962,-0.4715 -0.0461,-0.0346 -0.1269,-0.0346 -0.1384,-0.0115 -0.0115,0 -0.0115,0.023 0,0.0345 0.0115,0 0.0231,0 0.0346,0.0115 0.0923,0.069 0.1154,0.2875 0.1038,0.4025 -0.0115,0.0805 -0.0461,0.161 -0.1153,0.115 -0.0808,-0.0575 -0.1038,-0.2875 -0.0808,-0.46 0.0231,-0.1496 0.0692,-0.2991 0.15,-0.3566 0.0585,-0.0499 0.1411,-0.0396 0.2173,-0.0301 0.029,0.0036 0.0572,0.0071 0.0826,0.0071 0.0116,0 0.0116,-0.046 0,-0.0575 z" fill="#ffffff" id="path60" style="fill:#ffffff"/>
  </g>
  <defs id="defs60"/>
</svg>